<svg width="32" height="27" viewBox="0 0 32 27" fill="none" xmlns="http://www.w3.org/2000/svg">
<path d="M21.5998 9.76516C20.8898 9.76516 20.1978 9.54103 19.6226 9.1247L17.9771 7.93367C16.7973 7.07973 15.2025 7.07973 14.0228 7.93367L12.3773 9.1247C11.8021 9.54103 11.1102 9.76516 10.4001 9.76516H1V25.7116H30.9999V9.76516H21.5998Z" stroke="#615EFC" stroke-miterlimit="10"/>
<path d="M16.0001 17.5795C17.4751 17.5795 18.6708 16.3838 18.6708 14.9088C18.6708 13.4338 17.4751 12.238 16.0001 12.238C14.5251 12.238 13.3293 13.4338 13.3293 14.9088C13.3293 16.3838 14.5251 17.5795 16.0001 17.5795Z" stroke="#615EFC" stroke-miterlimit="10"/>
<path d="M1 20.4224C3.49989 20.4224 3.49989 21.6672 5.99984 21.6672C8.4998 21.6672 8.4998 20.4224 10.9998 20.4224C13.4996 20.4224 13.4996 21.6672 15.9996 21.6672C18.4996 21.6672 18.4996 20.4224 20.9996 20.4224C23.4996 20.4224 23.4996 21.6672 25.9998 21.6672C28.4999 21.6672 28.4999 20.4224 31 20.4224" stroke="#615EFC"/>
<path d="M1 20.4224C3.49989 20.4224 3.49989 21.6672 5.99984 21.6672C8.4998 21.6672 8.4998 20.4224 10.9998 20.4224C13.4996 20.4224 13.4996 21.6672 15.9996 21.6672C18.4996 21.6672 18.4996 20.4224 20.9996 20.4224C23.4996 20.4224 23.4996 21.6672 25.9998 21.6672C28.4999 21.6672 28.4999 20.4224 31 20.4224V25.7118H1V20.4224Z" stroke="#615EFC" stroke-miterlimit="10"/>
<path d="M16 4.45592V0" stroke="#615EFC" stroke-miterlimit="10"/>
<path d="M11.9464 5.84238L9.35229 2.21948" stroke="#615EFC" stroke-miterlimit="10"/>
<path d="M20.0535 5.84238L22.6475 2.21948" stroke="#615EFC" stroke-miterlimit="10"/>
</svg>
