<svg width="30" height="31" viewBox="0 0 30 31" fill="none" xmlns="http://www.w3.org/2000/svg">
<path d="M12.2178 30.9684C11.9501 30.9684 11.7344 30.7514 11.7344 30.485V26.8557C11.7344 24.748 12.9805 22.8572 14.9076 22.0389C16.7827 21.241 17.9028 19.9299 17.9028 18.5317C17.9028 17.4414 17.2258 16.4006 15.9978 15.6014C14.7036 14.762 12.9754 14.2981 11.1287 14.2981C9.28214 14.2981 7.55403 14.7607 6.25967 15.6014C5.0317 16.4006 4.35468 17.4414 4.35468 18.5317C4.35468 19.9299 5.4748 21.2397 7.34988 22.0375C9.27825 22.8575 10.5244 24.7481 10.5244 26.8557V30.485C10.5244 30.7527 10.3074 30.9684 10.041 30.9684C9.77334 30.9684 9.55765 30.7514 9.55765 30.485V26.8557C9.55765 25.1379 8.54278 23.5967 6.97308 22.9287C4.72765 21.9736 3.38672 20.3311 3.38672 18.5313C3.38672 17.1019 4.21966 15.7726 5.73221 14.7903C7.18109 13.8495 9.09635 13.3297 11.1289 13.3297C13.1599 13.3297 15.0765 13.8482 16.5256 14.7903C18.0381 15.7739 18.871 17.102 18.871 18.5313C18.871 20.3297 17.5313 21.9737 15.286 22.9274C13.7163 23.5953 12.7014 25.1364 12.7014 26.8557V30.485C12.7014 30.7514 12.4854 30.9684 12.2178 30.9684Z" fill="#615EFC"/>
<path d="M12.7622 30.2419H12.2178C11.9501 30.2419 11.7344 30.0249 11.7344 29.7585C11.7344 29.4908 11.9514 29.2751 12.2178 29.2751H12.7622C13.2625 29.2751 13.7342 29.0802 14.0876 28.7255C14.4424 28.3707 14.6373 27.9003 14.6373 27.3987C14.6373 26.3644 13.7966 25.5237 12.7622 25.5237H12.5764C12.3087 25.5237 12.093 25.3066 12.093 25.0403C12.093 24.7726 12.31 24.5569 12.5764 24.5569H12.7622C14.3293 24.5569 15.6054 25.8316 15.6054 27.4001C15.6054 28.1589 15.3091 28.8736 14.7725 29.4103C14.2358 29.947 13.5211 30.2419 12.7622 30.2419Z" fill="#615EFC"/>
<path d="M10.0406 30.2419H9.49617C8.73732 30.2419 8.02261 29.9456 7.48594 29.409C6.94926 28.8723 6.6543 28.1589 6.6543 27.3987C6.6543 25.8316 7.92903 24.5555 9.49747 24.5555H9.68329C9.95097 24.5555 10.1667 24.7725 10.1667 25.0389C10.1667 25.3066 9.94967 25.5223 9.68329 25.5223L9.49617 25.5249C8.46181 25.5249 7.62109 26.3656 7.62109 27.4C7.62109 27.9003 7.81601 28.372 8.17074 28.7254C8.52547 29.0789 8.99589 29.2751 9.49617 29.2751H10.0406C10.3083 29.2751 10.524 29.4921 10.524 29.7585C10.5253 30.0248 10.3083 30.2419 10.0406 30.2419Z" fill="#615EFC"/>
<path d="M18.2514 10.645C17.2171 10.645 16.2685 10.1694 15.6512 9.3391C15.034 8.50876 14.8495 7.46402 15.1471 6.47253C15.3732 5.72016 15.3732 4.92491 15.1471 4.17381C14.8495 3.18233 15.034 2.13758 15.6512 1.30724C16.2685 0.476896 17.2158 0 18.2514 0C19.7042 0 20.9893 0.978476 21.3765 2.37926C21.908 4.30504 21.908 6.33987 21.3765 8.26429C20.9893 9.66637 19.7042 10.645 18.2514 10.645ZM18.2514 0.968064C17.525 0.968064 16.861 1.30202 16.427 1.88417C15.9943 2.46632 15.8643 3.19919 16.0735 3.89441C16.3542 4.82871 16.3542 5.81627 16.0735 6.74927C15.8643 7.44446 15.9943 8.17736 16.427 8.75951C16.8597 9.34166 17.525 9.67562 18.2514 9.67562C19.2715 9.67562 20.172 8.98951 20.4435 8.00585C20.9282 6.24902 20.9282 4.3922 20.4435 2.63511C20.172 1.65404 19.2702 0.968064 18.2514 0.968064Z" fill="#615EFC"/>
<path d="M3.52375 10.6448C2.06968 10.6448 0.785824 9.66637 0.398613 8.26558C-0.132871 6.3398 -0.132871 4.30498 0.398613 2.38056C0.785857 0.978476 2.07097 0 3.52375 0C4.55811 0 5.50667 0.475599 6.12392 1.30594C6.74116 2.13629 6.92568 3.18103 6.62809 4.17251C6.40199 4.92488 6.40199 5.72013 6.62809 6.47123C6.92566 7.46272 6.74114 8.50746 6.12392 9.3378C5.50667 10.1694 4.55811 10.6448 3.52375 10.6448ZM3.52375 0.967864C2.50369 0.967864 1.60319 1.65397 1.33161 2.63763C0.846933 4.39446 0.846933 6.25128 1.33161 8.00837C1.6032 8.99074 2.50369 9.67814 3.52375 9.67814C4.25013 9.67814 4.91415 9.34419 5.34816 8.76204C5.78088 8.17989 5.91082 7.44702 5.70161 6.7518C5.42093 5.8175 5.42093 4.82994 5.70161 3.89694C5.91082 3.20175 5.78088 2.46884 5.34816 1.8867C4.91415 1.30195 4.25013 0.967864 3.52375 0.967864Z" fill="#615EFC"/>
<path d="M13.0648 14.468C12.7971 14.468 12.5814 14.251 12.5814 13.9846L12.5801 8.71038C12.5801 6.86387 13.8938 5.26572 15.7052 4.91078C15.9677 4.8588 16.2211 5.03033 16.2731 5.2928C16.3237 5.55528 16.1535 5.80868 15.891 5.86064C14.5331 6.12703 13.5481 7.3251 13.5481 8.71031V13.9846C13.5481 14.251 13.3311 14.468 13.0648 14.468Z" fill="#615EFC"/>
<path d="M8.70942 14.5668C8.44173 14.5668 8.22603 14.3498 8.22603 14.0834V8.71032C8.22603 7.3251 7.24107 6.12704 5.88314 5.86065C5.62065 5.80997 5.45042 5.55528 5.50112 5.2928C5.55179 5.03032 5.80649 4.85879 6.06896 4.91078C7.87907 5.26553 9.1941 6.86384 9.1941 8.71038V14.0835C9.1941 14.3498 8.97709 14.5668 8.70942 14.5668Z" fill="#615EFC"/>
<path d="M14.9798 27.079C14.8057 27.079 14.6381 26.9854 14.5523 26.8217C14.4276 26.5852 14.5172 26.2929 14.7537 26.1681L20.5792 23.0845C20.8157 22.9598 21.1081 23.0495 21.2328 23.286C21.3575 23.5225 21.2679 23.8148 21.0314 23.9396L15.2059 27.0231C15.1345 27.0608 15.0565 27.079 14.9798 27.079Z" fill="#615EFC"/>
<path d="M29.5159 25.1612H20.8056C20.538 25.1612 20.3223 24.9442 20.3223 24.6778V15.9675C20.3223 15.6998 20.5393 15.4841 20.8056 15.4841H29.5159C29.7836 15.4841 29.9993 15.7011 29.9993 15.9675V24.6778C29.9993 24.9455 29.7836 25.1612 29.5159 25.1612ZM21.2903 24.1944H29.0322V16.4525H21.2903V24.1944Z" fill="#615EFC"/>
<path d="M24.6777 19.3551H24.1943C23.9266 19.3551 23.7109 19.1381 23.7109 18.8717C23.7109 18.604 23.9279 18.3883 24.1943 18.3883H24.6777C24.9454 18.3883 25.1611 18.6053 25.1611 18.8717C25.1624 19.1381 24.9454 19.3551 24.6777 19.3551Z" fill="#615EFC"/>
<path d="M23.2265 20.8066H22.7431C22.4755 20.8066 22.2598 20.5896 22.2598 20.3232C22.2598 20.0555 22.4768 19.8398 22.7431 19.8398H23.2265C23.4942 19.8398 23.7099 20.0568 23.7099 20.3232C23.7112 20.5896 23.4942 20.8066 23.2265 20.8066Z" fill="#615EFC"/>
<path d="M24.6777 22.7414H24.1943C23.9266 22.7414 23.7109 22.5244 23.7109 22.258C23.7109 21.9904 23.9279 21.7747 24.1943 21.7747H24.6777C24.9454 21.7747 25.1611 21.9917 25.1611 22.258C25.1624 22.5257 24.9454 22.7414 24.6777 22.7414Z" fill="#615EFC"/>
<path d="M26.1289 20.8066H25.6455C25.3778 20.8066 25.1621 20.5896 25.1621 20.3232C25.1621 20.0555 25.3791 19.8398 25.6455 19.8398H26.1289C26.3966 19.8398 26.6123 20.0568 26.6123 20.3232C26.6136 20.5896 26.3965 20.8066 26.1289 20.8066Z" fill="#615EFC"/>
<path d="M27.0976 18.8718H26.6142C26.3466 18.8718 26.1309 18.6548 26.1309 18.3884C26.1309 18.1207 26.3479 17.905 26.6142 17.905H27.0976C27.3653 17.905 27.581 18.122 27.581 18.3884C27.581 18.6548 27.3653 18.8718 27.0976 18.8718Z" fill="#615EFC"/>
<path d="M27.0976 23.2262H26.6142C26.3466 23.2262 26.1309 23.0092 26.1309 22.7428C26.1309 22.4751 26.3479 22.2594 26.6142 22.2594H27.0976C27.3653 22.2594 27.581 22.4764 27.581 22.7428C27.581 23.0092 27.3653 23.2262 27.0976 23.2262Z" fill="#615EFC"/>
</svg>
