<svg width="32" height="33" viewBox="0 0 32 33" fill="none" xmlns="http://www.w3.org/2000/svg">
<path d="M23.2678 6.49135C24.8636 7.15168 26.4156 7.95602 27.6613 8.90929C27.5468 10.4847 27.1948 13.2553 26.119 16.2745C24.1749 21.7307 20.7742 25.6662 15.9999 27.9906C11.2255 25.6662 7.82485 21.7307 5.88078 16.2745C4.80505 13.2565 4.45303 10.4866 4.33789 8.90805C7.735 6.30304 13.3851 4.81868 15.9968 4.3325C16.8683 4.4962 18.0782 4.77129 19.4302 5.16084" stroke="#615EFC" stroke-width="1.5" stroke-miterlimit="10" stroke-linecap="round" stroke-linejoin="round"/>
<path d="M12.2168 29.6281C13.3578 30.3586 14.615 31.0183 16.0003 31.5857C31.4397 25.2624 30.999 7.46974 30.999 7.46974C29.4328 5.90353 27.3152 4.67394 25.165 3.72806L20.7347 10.1812L23.6818 10.7954L16.3142 22.3374L19.6294 12.2687L16.6828 11.532L17.5081 9.61812" stroke="#615EFC" stroke-width="1.5" stroke-miterlimit="10" stroke-linecap="round" stroke-linejoin="round"/>
<path d="M10.7075 28.5714C0.668353 20.901 1.00129 7.46971 1.00129 7.46971C5.85378 2.61723 16 0.999939 16 0.999939C16 0.999939 18.0462 1.3261 20.7399 2.12552L18.2395 7.92265" stroke="#615EFC" stroke-width="1.5" stroke-miterlimit="10" stroke-linecap="round" stroke-linejoin="round"/>
</svg>
