<svg width="30" height="34" viewBox="0 0 30 34" fill="none" xmlns="http://www.w3.org/2000/svg">
<path d="M1.85526 33.4013H24.8397C25.8704 33.4013 26.695 32.6798 26.695 31.7865C26.695 30.8933 25.8704 30.1718 24.8397 30.1718H12.2653C14.6015 29.038 17.1439 27.2858 19.4114 24.606C22.9158 20.4489 24.0152 15.3298 22.1256 12.6156L29.5122 3.57986C30.2681 2.65224 30.1306 1.24362 29.203 0.48778C28.2754 -0.268062 26.8668 -0.130649 26.1109 0.796976L3.02337 28.9349C2.71416 29.3129 2.57674 29.7251 2.54239 30.1718H1.85526C0.824564 30.1718 0 30.8933 0 31.7865C0 32.6798 0.824564 33.4013 1.85526 33.4013ZM1.85526 31.1337H2.6798C2.81723 31.4773 3.02337 31.7865 3.33258 32.027C3.43565 32.1301 3.57307 32.1644 3.7105 32.1644C3.7105 32.1644 3.81357 32.1644 3.951 32.1644C4.70684 32.1644 6.97437 32.0614 9.86032 31.1337H24.8397C25.3207 31.1337 25.6986 31.443 25.6986 31.7865C25.6986 32.1301 25.2864 32.4393 24.8397 32.4393H1.85526C1.37427 32.4393 0.996346 32.1301 0.996346 31.7865C0.996346 31.443 1.40862 31.1337 1.85526 31.1337ZM4.01971 29.7595L27.1073 1.62154C27.2447 1.44976 27.4852 1.31232 27.7257 1.31232C27.7257 1.31232 27.7944 1.31232 27.8288 1.31232C28.0349 1.31232 28.241 1.38105 28.3784 1.51847C28.5502 1.6559 28.6877 1.89639 28.6877 2.13689C28.6877 2.37738 28.6533 2.61787 28.4815 2.78965L20.7513 12.2377C20.5452 12.4782 20.5452 12.8561 20.7513 13.0966C22.6753 15.158 21.6102 19.9335 18.3807 23.7815C12.7806 30.4466 5.39396 30.8933 3.98534 30.9276C3.74485 30.6184 3.74485 30.1374 3.98534 29.8282L4.01971 29.7595Z" fill="#615EFC"/>
</svg>
