<svg width="32" height="34" viewBox="0 0 32 34" fill="none" xmlns="http://www.w3.org/2000/svg">
<path d="M12.1602 14.2624L17.1741 19.9726H20.975V15.9202L15.7185 9.93372" stroke="#615EFC" stroke-width="2" stroke-linecap="round" stroke-linejoin="round"/>
<path d="M24.3711 24.6697L30.9995 32.6216" stroke="#615EFC" stroke-width="2" stroke-linecap="round" stroke-linejoin="round"/>
<mask id="path-3-inside-1_688_1259" fill="white">
<ellipse cx="23.4819" cy="23.2882" rx="1.94089" ry="2.2104"/>
</mask>
<path d="M25.4228 23.2882H23.4228C23.4228 23.4263 23.3735 23.5064 23.3515 23.5315C23.3416 23.5428 23.3447 23.5349 23.3694 23.523C23.3968 23.5098 23.4371 23.4986 23.4819 23.4986V25.4986V27.4986C25.8948 27.4986 27.4228 25.3613 27.4228 23.2882H25.4228ZM23.4819 25.4986V23.4986C23.5267 23.4986 23.567 23.5098 23.5944 23.523C23.6191 23.5349 23.6222 23.5428 23.6124 23.5315C23.5903 23.5064 23.541 23.4263 23.541 23.2882H21.541H19.541C19.541 25.3613 21.069 27.4986 23.4819 27.4986V25.4986ZM21.541 23.2882H23.541C23.541 23.15 23.5903 23.0699 23.6124 23.0448C23.6222 23.0336 23.6191 23.0414 23.5944 23.0533C23.567 23.0665 23.5267 23.0778 23.4819 23.0778V21.0778V19.0778C21.069 19.0778 19.541 21.2151 19.541 23.2882H21.541ZM23.4819 21.0778V23.0778C23.4371 23.0778 23.3968 23.0665 23.3694 23.0533C23.3447 23.0414 23.3416 23.0336 23.3515 23.0448C23.3735 23.0699 23.4228 23.15 23.4228 23.2882H25.4228H27.4228C27.4228 21.2151 25.8948 19.0778 23.4819 19.0778V21.0778Z" fill="#615EFC" mask="url(#path-3-inside-1_688_1259)"/>
<rect width="1.03692" height="3.65082" rx="0.518458" transform="matrix(0.914184 0.228246 -0.199229 1.03497 24.8164 16.7723)" fill="#615EFC"/>
<rect width="1.03381" height="3.66158" rx="0.516907" transform="matrix(0.693573 0.720386 -0.625081 0.780559 27.3652 18.1959)" fill="#615EFC"/>
<rect width="1.03692" height="3.65082" rx="0.518458" transform="matrix(0.283527 1.01577 -0.886634 0.320987 29.2656 20.6464)" fill="#615EFC"/>
<rect width="1.03692" height="3.65082" rx="0.518458" transform="matrix(-0.914184 -0.228246 0.199229 -1.03497 22.4531 30.3225)" fill="#615EFC"/>
<rect width="1.03381" height="3.66158" rx="0.516907" transform="matrix(-0.693573 -0.720386 0.625081 -0.780559 19.9043 28.8989)" fill="#615EFC"/>
<rect width="1.03692" height="3.65082" rx="0.518458" transform="matrix(-0.283527 -1.01577 0.886634 -0.320987 18.0039 26.4485)" fill="#615EFC"/>
<path d="M1 3.6709L11.1088 15.1834L16.8506 8.64431L10.1383 1" stroke="#615EFC" stroke-width="2" stroke-linecap="round" stroke-linejoin="round"/>
</svg>
