<svg width="30" height="30" viewBox="0 0 30 30" fill="none" xmlns="http://www.w3.org/2000/svg">
<path d="M4.77539 26.1038C4.79004 26.0477 4.81201 25.9915 4.84131 25.9403C5.01221 25.5179 5.16602 25.0858 5.32227 24.6536C5.74463 23.4744 6.16699 22.2977 6.875 21.2723C8.56689 18.8187 9.93164 18.8309 12.3828 18.8553L12.605 18.8577V18.8553H13.3594C13.7134 18.7259 14.0308 18.5794 14.3042 18.4158C14.4849 18.3084 14.646 18.1912 14.7852 18.0667V16.1307H14.7876V16.1087C14.8315 14.9124 14.7803 14.0115 14.5361 13.3475C14.3481 12.8372 14.0259 12.4564 13.5107 12.161C13.4448 12.1268 13.3813 12.0926 13.313 12.056C13.2935 12.0462 13.2739 12.0364 13.2544 12.0291C12.4927 11.6702 11.665 11.4822 10.8154 11.3797C9.94629 11.2772 9.04053 11.265 8.15674 11.265H7.59521C7.54883 11.4774 7.48291 11.6702 7.39502 11.846C7.22656 12.1805 6.98975 12.449 6.68945 12.6639C6.41357 12.8616 6.03027 12.7957 5.83252 12.5198C5.63477 12.244 5.70068 11.8607 5.97656 11.6629C6.11084 11.5677 6.21826 11.4481 6.29395 11.2991C6.37695 11.1331 6.42578 10.9256 6.43555 10.6717C6.43555 10.6424 6.44043 10.6155 6.44531 10.5862C6.44531 10.5789 6.44775 10.5692 6.44775 10.5618C6.47949 10.3421 6.4502 10.1688 6.37695 10.0272C6.29639 9.87336 6.1499 9.7342 5.96191 9.60969C5.68115 9.41926 5.60547 9.0384 5.7959 8.75519C5.98633 8.47443 6.36719 8.39875 6.65039 8.58918C6.99463 8.82111 7.27783 9.10187 7.46338 9.45588C7.55859 9.6341 7.62695 9.82697 7.66113 10.0369H8.15674C9.07471 10.0369 10.0171 10.0467 10.9595 10.159C11.8433 10.264 12.7148 10.4593 13.5498 10.8182C13.6133 10.8304 13.6743 10.8524 13.7329 10.8865C13.7915 10.9207 13.8477 10.9525 13.9038 10.9818C13.9722 11.0159 14.0405 11.0526 14.1064 11.0892C15.061 11.5823 15.6738 11.6898 16.0645 11.4139C16.4893 11.1136 16.7993 10.3763 17.0874 9.21662C17.1338 8.98225 17.1899 8.7381 17.2559 8.48176L17.2583 8.46955C17.2632 8.44758 17.2681 8.4256 17.2754 8.40363C17.6367 7.034 18.1323 5.90607 18.811 5.08332C19.5435 4.19709 20.4761 3.66486 21.6553 3.55988C21.6724 3.55744 21.6895 3.55744 21.709 3.55744H21.7505C21.8188 3.30598 21.9238 3.08137 22.0581 2.88605C22.3267 2.49299 22.7051 2.21223 23.1152 2.06574C23.4351 1.95099 23.7891 2.11945 23.9014 2.43928C24.0161 2.7591 23.8477 3.11066 23.5278 3.22541C23.3521 3.28889 23.1885 3.40851 23.0713 3.57941C22.9688 3.72834 22.9028 3.91633 22.8906 4.13849C22.8906 4.1507 22.8906 4.16291 22.8906 4.17512C22.8906 4.18244 22.8906 4.19221 22.8906 4.19953C22.9028 4.45099 22.9541 4.66096 23.0347 4.81965C23.0957 4.93928 23.1738 5.02228 23.2593 5.05891C23.5718 5.19074 23.7158 5.55207 23.584 5.86457C23.4521 6.17707 23.0908 6.32111 22.7783 6.18928C22.4219 6.03791 22.1362 5.75715 21.9434 5.37629C21.853 5.20051 21.7822 5.00275 21.7358 4.78791H21.7334C20.918 4.86603 20.271 5.24201 19.7559 5.86457C19.1919 6.54572 18.772 7.5174 18.457 8.71857V8.72101C18.4009 8.98469 18.3423 9.23615 18.2837 9.47297C18.0469 10.6619 18.0518 11.6165 18.0542 12.869C18.0566 13.4036 18.0566 12.7933 18.0566 13.4061V15.6107C18.8525 14.8563 19.3726 13.6014 19.8657 12.4149C20.1196 11.8021 20.3687 11.2039 20.6616 10.6571C20.9399 10.1346 21.2231 9.68537 21.5088 9.2923C21.7993 8.89191 22.0996 8.54279 22.4048 8.23273C23.4448 7.18049 24.5044 6.62873 25.5615 6.07941C26.4844 5.59846 27.4072 5.11994 28.2544 4.30695C28.3569 4.2093 28.4448 4.09943 28.5156 3.9798C28.5913 3.85285 28.6548 3.71125 28.7061 3.55256C28.7476 3.42072 28.7695 3.29133 28.7695 3.16682C28.7695 2.84943 28.6279 2.53937 28.3691 2.26349C28.0713 1.94855 27.627 1.68488 27.0581 1.50178C26.5332 1.33332 25.9082 1.23566 25.2075 1.2381V1.24055H17.2705C17.2314 1.24055 16.6675 1.23566 16.1133 1.23322C13.0859 1.21125 10.354 1.19416 7.49512 2.56623C5.47363 3.53547 3.96729 5.01252 2.94189 6.96076C1.89941 8.9383 1.34033 11.4041 1.23047 14.3216H1.23291V24.0042V24.0115C1.31836 25.4837 1.46973 26.7459 1.74561 27.6321C1.95068 28.2962 2.19482 28.7015 2.49268 28.7357C2.8125 28.7088 3.0957 28.5819 3.35205 28.3792C3.6499 28.1424 3.91602 27.7957 4.1626 27.3734C4.39453 26.9681 4.59473 26.5433 4.77539 26.1038ZM16.0132 18.1448C16.0376 18.2449 16.04 18.3499 16.0132 18.45V27.9373C16.0132 27.9446 16.0132 27.9544 16.0132 27.9617C16.0352 28.3914 16.167 28.6404 16.3257 28.7332C16.3623 28.7552 16.4014 28.765 16.4355 28.765C16.4697 28.765 16.5063 28.7528 16.543 28.7283C16.7041 28.6282 16.8286 28.3695 16.8286 27.9373H16.8262V13.4061C16.8262 12.4197 16.8286 13.057 16.8286 12.869C16.8286 12.6981 16.8286 12.5321 16.8286 12.3685C16.8091 12.3831 16.7896 12.3978 16.7676 12.4124C16.4282 12.6517 16.0571 12.7762 15.6323 12.7884C15.6519 12.8323 15.6689 12.8787 15.686 12.9251C15.9912 13.7528 16.0596 14.7879 16.0107 16.1307H16.0132V18.1448ZM14.7827 20.0882H13.9136C13.5498 21.0037 13.5669 21.9486 13.5864 22.9544C13.5913 23.2547 13.5986 23.5599 13.5986 23.6868V25.1541H13.5962C13.5962 25.181 13.5938 25.2078 13.5913 25.2347C13.5547 25.5154 13.5059 25.7767 13.4473 26.0208C13.3838 26.2723 13.3081 26.5091 13.2202 26.7313C13.147 26.9168 13.0615 27.0877 12.9663 27.2464C12.3877 28.223 11.4453 28.7845 10.3979 28.9969C9.39453 29.1995 8.29102 29.0775 7.33154 28.6942C7.08252 28.5941 6.84326 28.4769 6.61865 28.345C6.28662 28.1473 5.96924 27.9031 5.66895 27.6077C5.61768 27.5565 5.56641 27.5028 5.51514 27.449C5.4248 27.6321 5.32715 27.8128 5.22461 27.9886C4.90723 28.5306 4.5459 28.992 4.12109 29.3314C3.66211 29.7 3.13965 29.9222 2.53418 29.9613C2.51465 29.9613 2.49512 29.9637 2.47559 29.9613C1.54785 29.9295 0.944824 29.1995 0.568848 27.991C0.26123 26.9998 0.0927734 25.6448 0.00244141 24.0823C0.00244141 24.0555 0 24.0286 0 24.0018V14.3216H0.00244141V14.2996C0.117188 11.1844 0.720215 8.53547 1.85303 6.38703C3.00293 4.20441 4.69482 2.54914 6.96533 1.45783C10.0806 -0.0363101 12.9443 -0.0167788 16.1157 0.00519386C16.3208 0.00763526 16.5283 0.00763526 17.2681 0.00763526H25.21V0.0100767C26.0449 0.00763526 26.7969 0.124823 27.4365 0.332342C28.208 0.581366 28.8306 0.959784 29.2676 1.42121C29.7412 1.92414 30 2.52228 30 3.16682C30 3.41828 29.9609 3.67463 29.8804 3.92853C29.8022 4.17267 29.6973 4.40461 29.5679 4.61701C29.4385 4.83185 29.2847 5.02473 29.1089 5.19318C28.125 6.13557 27.1289 6.65558 26.1304 7.17316C25.1538 7.68098 24.1772 8.18879 23.2812 9.09699C23.02 9.36066 22.7612 9.6634 22.5049 10.0174C22.2437 10.3787 21.9873 10.7816 21.7456 11.2357C21.4917 11.7093 21.2524 12.2904 21.0034 12.8885C20.3174 14.5413 19.585 16.3089 18.0591 17.1243V27.9373H18.0566C18.0591 28.8529 17.6782 29.4754 17.1851 29.7781C16.9604 29.9149 16.7114 29.9881 16.4551 29.9905C16.2012 29.9954 15.9497 29.932 15.7202 29.8001C15.2271 29.5194 14.8315 28.9212 14.7876 28.013C14.7852 27.9886 14.7827 27.9617 14.7827 27.9349V20.0882ZM6.06689 26.182C6.21582 26.3895 6.37207 26.575 6.53564 26.7337C6.75781 26.9534 6.99463 27.1365 7.24365 27.283C7.41699 27.3856 7.6001 27.4759 7.78809 27.5516C8.53516 27.8519 9.38965 27.9471 10.1562 27.7908C10.8789 27.6444 11.521 27.2684 11.9067 26.6165C11.9727 26.5067 12.0288 26.3919 12.0776 26.2698C12.146 26.1014 12.2021 25.9183 12.251 25.723C12.2974 25.5325 12.3364 25.3348 12.3657 25.1273V23.6868C12.3657 23.3231 12.3633 23.1473 12.3584 22.9739C12.3389 21.9876 12.3218 21.0501 12.6099 20.0882H12.6025V20.0858H12.5977L12.3706 20.0833C10.3369 20.0638 9.20654 20.0516 7.8833 21.9705C7.26562 22.869 6.87012 23.9676 6.47461 25.0687C6.34277 25.4422 6.2085 25.8157 6.06689 26.182Z" fill="#615EFC"/>
</svg>
