<svg width="30" height="26" viewBox="0 0 30 26" fill="none" xmlns="http://www.w3.org/2000/svg">
<path d="M22.4311 19.6412V11.1996C25.1377 8.5891 26.9892 5.15367 27.6235 1.34667L27.7318 0.696428L26.6845 0.522321L26.5768 1.17257C25.9589 4.87659 24.1207 8.21169 21.429 10.6948H21.3695V10.7484C20.1492 11.8637 18.7558 12.8054 17.2223 13.5273L16.4733 13.8797H13.5129C11.689 13.1153 10.0457 12.0304 8.62997 10.7129V10.6948H8.61033C5.88779 8.1533 4.02622 4.73433 3.46091 0.965019L3.31599 0L2.26604 0.157121L2.41096 1.12214C2.99007 4.98434 4.84421 8.50523 7.56834 11.1747V19.6406C7.56834 21.3212 6.43399 22.7979 4.81023 23.2316L0 24.514L0.2739 25.5396L5.08413 24.2571C7.17182 23.6998 8.62997 21.8016 8.62997 19.6412V12.1275C9.9931 13.265 11.5282 14.2109 13.2051 14.901C13.2693 14.9281 13.3383 14.9413 13.4073 14.9413H16.5922C16.6702 14.9413 16.7472 14.9244 16.8183 14.8909L17.674 14.488C19.0132 13.858 20.2505 13.0692 21.3695 12.1519V19.6406C21.3695 21.801 22.8276 23.6992 24.9159 24.2566L29.7261 25.539L30 24.5135L25.1898 23.2311C23.5655 22.7984 22.4311 21.3217 22.4311 19.6412Z" fill="#615EFC"/>
<path d="M17.6824 6.87587C18.2058 6.87587 18.7154 6.66832 19.0907 6.29303L18.3396 5.54246C18.1288 5.75373 17.8268 5.84927 17.5317 5.8015L15.3267 5.43418C15.1096 5.39808 14.8898 5.39808 14.6727 5.43418L12.4682 5.8015C12.1742 5.8498 11.8711 5.75373 11.6598 5.54246L10.9087 6.29303C11.362 6.74582 12.0101 6.95443 12.6429 6.84879L14.8479 6.48147C14.9487 6.46502 15.0517 6.46502 15.1525 6.48147L17.3575 6.84879C17.4658 6.86684 17.5741 6.87587 17.6824 6.87587Z" fill="#615EFC"/>
<path d="M13.7007 7.28563L14.1752 8.23526C14.6917 7.97728 15.308 7.97728 15.8239 8.23526L16.2985 7.28563C15.4853 6.87956 14.5139 6.87956 13.7007 7.28563Z" fill="#615EFC"/>
<path d="M13.4049 23.9658H13.9436C14.3285 23.9658 14.6947 23.8458 15 23.6234C15.3052 23.8458 15.6714 23.9658 16.0563 23.9658H16.595C17.4656 23.9658 18.2098 23.3442 18.3653 22.488L19.1185 18.3455C19.2242 17.7643 19.0384 17.1682 18.6206 16.7504C18.1116 16.2409 17.3493 16.0848 16.68 16.3518L15 17.0243L13.3194 16.3518C12.6495 16.0848 11.8883 16.2409 11.3787 16.7504C10.961 17.1682 10.7747 17.7643 10.8808 18.345L11.6341 22.488C11.7896 23.3442 12.5343 23.9658 13.4049 23.9658ZM12.1298 17.501C12.339 17.2924 12.6511 17.2271 12.9255 17.3375L14.803 18.0886C14.9294 18.1396 15.0711 18.1396 15.1974 18.0886L17.0744 17.3375C17.3483 17.2271 17.6609 17.2919 17.8706 17.501C18.042 17.6725 18.1185 17.9166 18.075 18.155L17.3217 22.298C17.2575 22.6494 16.9523 22.9042 16.595 22.9042H16.0563C15.8588 22.9042 15.6736 22.8272 15.5345 22.6881L15.3752 22.5289C15.2717 22.4254 15.1358 22.3734 15 22.3734C14.8641 22.3734 14.7282 22.4254 14.6247 22.5289L14.4654 22.6881C14.3258 22.8272 14.1406 22.9042 13.9436 22.9042H13.4049C13.0482 22.9042 12.7424 22.6494 12.6787 22.298L11.9255 18.1544C11.882 17.9166 11.9584 17.673 12.1298 17.501Z" fill="#615EFC"/>
<path d="M16.5919 18.6573H15.5303V19.719H16.5919V18.6573Z" fill="#615EFC"/>
<path d="M14.469 18.6573H13.4073V19.719H14.469V18.6573Z" fill="#615EFC"/>
<path d="M16.5919 20.7803H15.5303V21.8419H16.5919V20.7803Z" fill="#615EFC"/>
<path d="M14.469 20.7803H13.4073V21.8419H14.469V20.7803Z" fill="#615EFC"/>
</svg>
