<svg width="30" height="42" viewBox="0 0 30 42" fill="none" xmlns="http://www.w3.org/2000/svg">
<path d="M1.71813 0.00352618C1.80384 0.00281281 1.88956 0.00209944 1.97788 0.00136444C2.26064 -0.000424293 2.5433 0.000758039 2.82607 0.00213472C3.02298 0.00186041 3.2199 0.00146524 3.41681 0.000954459C3.82932 0.000354534 4.2418 0.00122578 4.65432 0.00312862C5.18256 0.00544679 5.71072 0.00411319 6.23896 0.00167426C6.64556 0.000201626 7.05214 0.000672127 7.45874 0.00172629C7.65348 0.00199749 7.84822 0.00166587 8.04296 0.000716854C8.31543 -0.000319536 8.58777 0.00126239 8.86023 0.00352618C8.9404 0.00270211 9.02057 0.00187804 9.10317 0.001029C9.63496 0.00919569 9.90164 0.108915 10.3018 0.463306C10.6327 0.924304 10.7014 1.50601 10.77 2.05609C10.7802 2.13046 10.7903 2.20482 10.8008 2.28143C10.8255 2.46235 10.8491 2.64333 10.8718 2.8245C10.9401 2.76672 10.9401 2.76672 11.0098 2.70778C12.8185 1.21603 15.1352 0.034602 17.5206 0.0288508C17.6413 0.0280378 17.6413 0.0280378 17.7645 0.0272084C17.934 0.0263891 18.1035 0.0260018 18.273 0.0260281C18.5278 0.025674 18.7824 0.0227164 19.0372 0.0196274C20.0271 0.0140213 20.9153 0.0947418 21.8635 0.381885C21.9388 0.404018 22.014 0.42615 22.0915 0.448954C22.2742 0.506175 22.4529 0.568722 22.6319 0.636324C22.6953 0.660117 22.7587 0.683909 22.8241 0.708422C23.9694 1.15543 24.9982 1.787 25.9346 2.58024C25.9759 2.61516 26.0172 2.65009 26.0597 2.68607C28.0539 4.39085 29.5572 6.87784 29.9242 9.50099C29.9003 9.82963 29.8636 9.95821 29.6799 10.2338C29.234 10.3507 29.234 10.3507 29.0285 10.3152C28.6097 10.0024 28.5279 9.67566 28.423 9.19057C27.9686 7.30124 27.1184 5.69956 25.7717 4.29007C25.7075 4.21812 25.7075 4.21812 25.6419 4.14472C24.4176 2.82351 22.7471 2.08847 21.0493 1.60319C20.9947 1.58732 20.9401 1.57144 20.8839 1.55509C18.4468 0.88123 15.79 1.44395 13.5939 2.5831C11.172 3.96905 9.50852 6.18855 8.77009 8.86998C8.09246 11.4978 8.50852 14.165 9.80152 16.5359C10.1143 17.0462 10.4856 17.5124 10.8718 17.9687C10.9278 18.0358 10.9838 18.1029 11.0416 18.172C12.6249 20.0039 14.9693 21.224 17.3854 21.4698C20.459 21.6148 23.1253 20.9359 25.4511 18.844C27.26 17.1725 28.3037 14.9589 28.6268 12.5368C28.7199 12.2094 28.8436 12.0702 29.11 11.8622C29.3967 11.8622 29.5857 11.8871 29.8326 12.0352C30.1088 12.4955 29.9836 13.0233 29.8784 13.516C29.8635 13.5871 29.8486 13.6582 29.8333 13.7314C29.2209 16.5324 27.6589 19.095 25.2832 20.737C25.4171 20.875 25.5526 21.01 25.6903 21.1441C25.7279 21.1823 25.7654 21.2205 25.8042 21.2599C26.3364 21.7624 27.0353 22.0607 27.7102 22.3273C28.3675 22.5888 28.8074 22.801 29.1195 23.4503C29.2025 23.7019 29.2187 23.9123 29.2219 24.177C29.2242 24.2631 29.2265 24.3492 29.2289 24.4378C29.1548 25.0079 28.8658 25.4728 28.56 25.9497C28.0991 26.678 27.8054 27.4261 27.5477 28.243C27.2685 29.1266 26.9615 29.9443 26.5045 30.7517C26.4557 30.8458 26.4069 30.9398 26.3566 31.0367C25.3376 32.9428 23.7171 34.5182 21.7821 35.4741C21.6788 35.5264 21.6788 35.5264 21.5735 35.5797C19.6434 36.5103 17.4599 36.7316 15.3499 36.4512C15.3506 36.5007 15.3513 36.5503 15.3521 36.6013C15.3593 37.1191 15.3642 37.6369 15.3678 38.1547C15.3694 38.3477 15.3716 38.5407 15.3745 38.7337C15.3784 39.0119 15.3803 39.2899 15.3817 39.5681C15.3834 39.6537 15.3851 39.7394 15.3868 39.8277C15.387 40.4379 15.3151 40.8712 14.8836 41.3197C14.331 41.7642 13.712 41.7321 13.038 41.7241C12.9175 41.7242 12.797 41.7245 12.6765 41.7249C12.4254 41.7253 12.1744 41.7239 11.9233 41.7213C11.6018 41.7181 11.2804 41.7188 10.9588 41.7208C10.7106 41.722 10.4625 41.7212 10.2143 41.7197C10.0957 41.7193 9.97714 41.7194 9.85855 41.7201C9.69315 41.7207 9.52774 41.7185 9.36235 41.7161C9.22139 41.7152 9.22139 41.7152 9.07758 41.7143C8.83624 41.6621 8.83624 41.6621 8.6402 41.4736C8.51056 41.255 8.51056 41.255 8.51565 40.9598C8.61561 40.6 8.61561 40.6 8.83624 40.4408C9.06035 40.4083 9.06035 40.4083 9.33484 40.4056C9.48886 40.4032 9.48886 40.4032 9.64599 40.4007C9.75805 40.4001 9.87011 40.3996 9.98217 40.3991C10.0968 40.3978 10.2115 40.3963 10.3261 40.3947C10.6277 40.3908 10.9293 40.3884 11.2309 40.3863C11.5387 40.3838 11.8465 40.3801 12.1543 40.3764C12.7581 40.3692 13.3619 40.3644 13.9657 40.3594C13.9926 38.9622 14.0195 37.565 14.0472 36.1255C13.8322 36.0986 13.6173 36.0718 13.3958 36.0441C13.0106 35.9629 12.6288 35.8683 12.2469 35.7731C12.0669 35.7284 11.8865 35.6851 11.7062 35.6417C11.5912 35.6133 11.4762 35.5848 11.3612 35.5562C11.2575 35.5307 11.1538 35.5052 11.0469 35.4789C10.6869 35.3579 10.6869 35.3579 10.5461 35.1485C10.485 34.5989 10.485 34.5989 10.6682 34.2935C11.0982 34.0355 11.6241 34.1781 12.087 34.2914C12.1546 34.3087 12.2222 34.326 12.2918 34.3438C12.3639 34.3615 12.436 34.3792 12.5103 34.3974C12.7395 34.4537 12.9684 34.5109 13.1973 34.5683C16.2032 35.3213 19.1694 35.4723 21.9307 33.8393C24.0176 32.5393 25.2353 30.5546 26.0974 28.3091C26.1364 28.209 26.1755 28.1089 26.2157 28.0057C26.3973 27.5869 26.3973 27.5869 26.3607 27.1559C26.2176 26.943 26.0364 26.7782 25.8531 26.5993C24.9672 25.6303 24.8337 24.4429 24.8638 23.1919C24.8763 23.0138 24.909 22.8473 24.9438 22.6723C24.9902 22.3589 24.9902 22.3589 24.7867 22.1358C24.7071 22.0739 24.6274 22.0119 24.5453 21.9481C24.4671 21.8841 24.3889 21.8201 24.3084 21.7541C24.0705 21.6059 24.0705 21.6059 23.8233 21.6797C23.7408 21.7179 23.6584 21.7561 23.5734 21.7955C23.4817 21.8322 23.3901 21.869 23.2957 21.9068C23.1976 21.9473 23.0994 21.9878 22.9983 22.0296C22.4383 22.2554 21.8787 22.457 21.2936 22.6097C21.2014 22.6341 21.1093 22.6586 21.0143 22.6838C18.1107 23.3221 15.0183 22.7394 12.4843 21.2338C9.87841 19.5669 8.03414 16.9627 7.32531 13.9491C7.17198 13.2349 7.07756 12.5105 7.04499 11.7808C7.04163 11.7063 7.03827 11.6319 7.03481 11.5553C6.98124 9.10755 7.76547 6.60142 9.25479 4.6536C9.30475 4.58737 9.35471 4.52115 9.40619 4.45291C9.46895 4.38007 9.53171 4.30723 9.59638 4.23219C9.79089 3.84773 9.70281 3.59109 9.59956 3.1858C9.56768 3.05006 9.5361 2.91426 9.50478 2.77838C9.48934 2.71263 9.4739 2.64688 9.458 2.57914C9.40138 2.31344 9.35891 2.04773 9.3186 1.77909C9.30438 1.68485 9.29015 1.5906 9.2755 1.4935C9.26489 1.42222 9.25428 1.35095 9.24334 1.27751C8.24967 1.27186 7.256 1.26751 6.26231 1.26486C5.80093 1.26358 5.33956 1.26185 4.87818 1.25908C4.43314 1.25644 3.98812 1.25497 3.54307 1.25434C3.37306 1.25388 3.20305 1.253 3.03304 1.25169C2.79539 1.24992 2.55778 1.24967 2.32011 1.24978C2.24943 1.2489 2.17874 1.24802 2.10591 1.24712C1.76299 1.24224 1.76299 1.24224 1.44961 1.36197C1.28775 1.61053 1.31213 1.86686 1.31481 2.15387C1.31446 2.21924 1.3141 2.28461 1.31374 2.35196C1.31284 2.57287 1.3137 2.79374 1.31454 3.01465C1.31425 3.17388 1.31387 3.33311 1.31338 3.49233C1.31236 3.93134 1.31287 4.37033 1.31362 4.80934C1.31417 5.28222 1.31332 5.75509 1.31265 6.22797C1.31156 7.15491 1.3118 8.08185 1.31251 9.00879C1.31306 9.76186 1.31313 10.5149 1.31287 11.268C1.31283 11.375 1.31279 11.482 1.31275 11.5922C1.31269 11.7551 1.31264 11.918 1.31258 12.0808C1.31183 14.1173 1.31251 16.1537 1.31382 18.1901C1.31498 20.0005 1.31488 21.8109 1.31371 23.6212C1.3124 25.6539 1.31188 27.6865 1.31264 29.7192C1.31271 29.9358 1.31279 30.1523 1.31287 30.3689C1.3129 30.4755 1.31294 30.582 1.31298 30.6918C1.31319 31.4444 1.31283 32.1969 1.31226 32.9494C1.31158 33.866 1.31176 34.7825 1.31306 35.6991C1.31371 36.1671 1.31395 36.6351 1.31315 37.1031C1.31242 37.531 1.31281 37.9589 1.31412 38.3868C1.31439 38.5421 1.31425 38.6974 1.31366 38.8527C1.31293 39.0629 1.31367 39.2729 1.31481 39.483C1.31424 39.5442 1.31367 39.6054 1.31308 39.6685C1.31647 39.9912 1.31647 39.9912 1.45593 40.2749C1.66141 40.4045 1.83474 40.389 2.07577 40.3881C2.17577 40.3884 2.27577 40.3887 2.37879 40.389C2.43218 40.3886 2.48556 40.3882 2.54057 40.3878C2.70795 40.3867 2.87525 40.3872 3.04263 40.3882C3.51842 40.3907 3.99418 40.3903 4.46997 40.3887C4.76116 40.3878 5.05228 40.3889 5.34347 40.3911C5.45432 40.3916 5.56518 40.3913 5.67604 40.3901C5.83115 40.3886 5.98628 40.3897 6.14139 40.391C6.22961 40.3908 6.31783 40.3906 6.40872 40.3904C6.63789 40.4408 6.63789 40.4408 6.83208 40.629C6.96357 40.8479 6.96357 40.8479 6.95848 41.143C6.85779 41.5055 6.85779 41.5055 6.63789 41.6621C6.40216 41.6937 6.40216 41.6937 6.11096 41.695C6.03128 41.6958 6.03128 41.6958 5.94998 41.6967C5.77429 41.6982 5.59864 41.6979 5.42294 41.6974C5.30052 41.6978 5.17811 41.6982 5.05569 41.6987C4.79888 41.6994 4.54209 41.6992 4.28528 41.6984C3.95719 41.6975 3.62917 41.6991 3.30109 41.7015C3.04809 41.703 2.7951 41.703 2.54208 41.7025C2.4212 41.7025 2.30032 41.703 2.17944 41.704C1.46459 41.7091 0.938847 41.7101 0.389497 41.2063C0.0623951 40.7834 0.0308956 40.4761 0.0318957 39.9572C0.0317042 39.8903 0.0315126 39.8233 0.0313152 39.7544C0.0307695 39.5282 0.0308079 39.302 0.0308413 39.0758C0.0305728 38.9128 0.0302695 38.7498 0.0299342 38.5868C0.0291169 38.1373 0.0288155 37.6877 0.0285997 37.2382C0.0282823 36.754 0.0275024 36.2698 0.0267911 35.7856C0.0252569 34.6709 0.0244281 33.5561 0.0237411 32.4414C0.0233987 31.8907 0.0229735 31.34 0.0225454 30.7893C0.0210888 28.9045 0.0198677 27.0198 0.0192625 25.1351C0.0192238 25.0167 0.0191851 24.8984 0.0191463 24.7801C0.0191271 24.7214 0.0191077 24.6627 0.0190879 24.6022C0.0189901 24.3049 0.0188912 24.0076 0.0187914 23.7102C0.0187719 23.6512 0.0187523 23.5922 0.0187321 23.5314C0.0180893 21.6178 0.0161813 19.7042 0.0135353 17.7906C0.0107436 15.7679 0.00913787 13.7453 0.00886965 11.7227C0.00883566 11.5007 0.00879663 11.2787 0.0087538 11.0567C0.00874377 11.0021 0.0087337 10.9474 0.00872336 10.8911C0.00853337 10.011 0.00725779 9.13087 0.00559133 8.25075C0.00394327 7.36632 0.00352245 6.4819 0.0042699 5.59748C0.00464097 5.1182 0.00447949 4.63895 0.00290515 4.15968C0.00147695 3.72112 0.0015448 3.28259 0.00281539 2.84403C0.00300997 2.68519 0.00265107 2.52634 0.00168948 2.3675C0.000464663 2.15186 0.00124175 1.93632 0.00252218 1.72068C0.00168989 1.65877 0.000857519 1.59685 0 1.53305C0.00721297 0.977884 0.207531 0.643435 0.579304 0.227425C0.921832 -0.0333963 1.3042 -0.000719854 1.71813 0.00352618ZM26.1788 23.1796C26.1411 24.1499 26.1828 24.886 26.7974 25.6633C26.9075 25.7948 26.9075 25.7948 27.0744 25.8665C27.1949 25.6664 27.3154 25.4662 27.4357 25.266C27.47 25.2091 27.5043 25.1523 27.5396 25.0937C27.5724 25.0391 27.6052 24.9845 27.639 24.9283C27.6693 24.878 27.6995 24.8276 27.7307 24.7758C27.9067 24.4754 27.9256 24.2631 27.8886 23.9124C27.5871 23.6909 27.2395 23.5539 26.8963 23.4086C26.8452 23.3864 26.794 23.3642 26.7413 23.3414C26.4697 23.2196 26.4697 23.2196 26.1788 23.1796Z" fill="#615EFC"/>
<path d="M24.4999 3.80917C26.5418 5.41593 27.8137 7.74396 28.132 10.3152C28.3198 13.0062 27.6804 15.5446 25.9337 17.643C25.3272 18.3226 24.6831 18.9643 23.8982 19.4343C23.8123 19.4874 23.7265 19.5405 23.638 19.5952C21.4182 20.9378 18.7378 21.3763 16.2046 20.758C13.8087 20.1128 11.6671 18.6556 10.3824 16.5031C10.3514 16.4517 10.3205 16.4002 10.2886 16.3471C9.38466 14.8138 8.96457 13.2091 8.97277 11.4296C8.97323 11.3252 8.97369 11.2208 8.97417 11.1132C8.98357 10.3805 9.03164 9.71766 9.24248 9.01246C9.25822 8.95668 9.27397 8.90091 9.29019 8.84345C9.95208 6.52427 11.3881 4.48106 13.4763 3.2316C13.5529 3.18519 13.5529 3.18519 13.6311 3.13785C17.0282 1.11593 21.3658 1.44642 24.4999 3.80917ZM12.6621 5.59279C12.6099 5.63918 12.5576 5.68557 12.5038 5.73337C11.2591 6.86223 10.4682 8.7452 10.3009 10.3966C10.1799 13.0171 10.7781 15.1838 12.5518 17.1488C13.9368 18.6291 15.9447 19.6291 17.9888 19.6979C20.5721 19.7434 22.656 18.988 24.5546 17.18C26.1423 15.5475 26.8654 13.4278 26.8591 11.1813C26.8219 8.86362 25.7727 6.82729 24.1218 5.22163C22.3302 3.62888 20.1527 3.04941 17.7968 3.13428C15.8205 3.26029 14.0474 4.22435 12.6621 5.59279Z" fill="#615EFC"/>
<path d="M19.1207 7.10934C19.7481 7.77604 19.9573 8.60967 19.9369 9.50139C19.8944 10.2351 19.5405 10.8523 19.04 11.3757C18.266 12.035 17.4769 12.1786 16.4934 12.125C15.8477 12.0534 15.1994 11.7065 14.78 11.2109C14.2138 10.3937 13.9319 9.59359 14.0981 8.59018C14.2849 7.80907 14.7449 7.13571 15.4263 6.71242C16.658 6.01561 18.0623 6.1439 19.1207 7.10934ZM15.7316 8.13728C15.4472 8.60073 15.2854 9.0083 15.3748 9.55769C15.5175 10.0308 15.7897 10.4352 16.2201 10.6868C16.6797 10.8766 17.1926 10.9155 17.6574 10.7262C18.1146 10.4572 18.4645 10.1041 18.6068 9.58249C18.6738 9.05311 18.596 8.63412 18.2811 8.19834C17.9025 7.8025 17.6015 7.61788 17.0445 7.60296C16.4941 7.60878 16.1254 7.75412 15.7316 8.13728Z" fill="#615EFC"/>
<path d="M20.2606 13.7602C20.8777 14.3774 21.0887 15.0449 21.0904 15.9121C21.0696 16.62 20.7685 17.1902 20.3064 17.7193C19.6966 18.2637 18.9584 18.4482 18.1557 18.4146C17.4494 18.3173 16.8627 18.0354 16.3829 17.5046C15.9403 16.9012 15.7009 16.2332 15.778 15.4853C15.8953 14.7854 16.1841 14.1204 16.734 13.6534C17.935 12.9209 19.1182 12.9027 20.2606 13.7602ZM17.3498 14.9256C17.0834 15.3305 17.0926 15.7007 17.1411 16.1774C17.3191 16.5399 17.5433 16.7627 17.8739 16.9916C18.2795 17.1268 18.6314 17.1218 19.0291 16.9814C19.3453 16.7706 19.5745 16.5216 19.7466 16.1774C19.8087 15.6202 19.7622 15.2423 19.4209 14.7933C19.1003 14.51 18.8071 14.4025 18.3876 14.3728C17.9502 14.4039 17.6418 14.6111 17.3498 14.9256Z" fill="#615EFC"/>
<path d="M23.573 5.5928C24.0107 5.96934 24.2982 6.40206 24.3872 6.97695C24.4151 7.58851 24.2949 8.05378 23.8987 8.52394C23.4655 8.95715 23.0406 9.14846 22.4382 9.20583C21.8888 9.18204 21.3544 9.00297 20.9675 8.60536C20.5295 7.99064 20.3996 7.49115 20.479 6.73269C20.6601 6.12601 20.9915 5.74038 21.5375 5.42996C22.204 5.11119 22.9628 5.19091 23.573 5.5928ZM21.9446 6.73269C21.7551 7.01694 21.7408 7.13101 21.7817 7.46547C21.9497 7.70445 22.0702 7.77848 22.3466 7.87257C22.604 7.89336 22.604 7.89336 22.8249 7.74026C23.0233 7.52491 23.0845 7.43132 23.0845 7.13979C22.9524 6.85593 22.8594 6.74547 22.5959 6.56984C22.288 6.56984 22.1917 6.57615 21.9446 6.73269Z" fill="#615EFC"/>
<path d="M22.3253 9.89467C22.8617 10.1638 23.1413 10.5681 23.3284 11.1293C23.3857 11.7104 23.3601 12.1989 23.0027 12.6763C22.6627 13.0381 22.3199 13.2848 21.8186 13.3579C21.2351 13.3726 20.7936 13.2657 20.3158 12.9206C19.8512 12.4325 19.7974 11.9651 19.8054 11.3164C19.8428 10.8589 19.9725 10.5622 20.3111 10.2515C20.908 9.78544 21.5871 9.6644 22.3253 9.89467ZM21.2115 11.2108C21.0846 11.4646 21.1555 11.6737 21.2115 11.9435C21.5859 12.035 21.5859 12.035 21.9443 11.9435C22.0712 11.6898 22.0003 11.4806 21.9443 11.2108C21.5698 11.1193 21.5698 11.1193 21.2115 11.2108Z" fill="#615EFC"/>
<path d="M14.7801 12.3252C15.1569 12.7012 15.2812 13.0875 15.3042 13.6127C15.2888 14.101 15.1737 14.3934 14.8268 14.7497C14.4135 15.1182 14.0486 15.2403 13.505 15.2258C13.0641 15.167 12.7189 14.9643 12.429 14.6305C12.0798 14.1375 12.0266 13.7661 12.0932 13.1649C12.2339 12.69 12.4912 12.3785 12.9074 12.1064C13.5375 11.8608 14.2333 11.8941 14.7801 12.3252ZM13.6402 13.2463C13.5596 13.3 13.479 13.3538 13.3959 13.4091C13.4228 13.5435 13.4496 13.6778 13.4773 13.8162C13.6314 13.8717 13.6314 13.8717 13.803 13.8977C13.8567 13.8439 13.9105 13.7902 13.9658 13.7348C13.9398 13.5229 13.9398 13.5229 13.8844 13.3277C13.8038 13.3009 13.7232 13.274 13.6402 13.2463Z" fill="#615EFC"/>
<path d="M23.3294 13.8978C23.5279 14.025 23.5279 14.025 23.6551 14.2235C23.7191 14.5262 23.7111 14.7047 23.5441 14.9693C23.2757 15.2972 23.0361 15.5608 22.5966 15.6076C22.145 15.4372 22.145 15.4372 22.0267 15.2005C21.9786 14.9 21.9744 14.7077 22.1482 14.4512C22.53 14.0107 22.7223 13.8454 23.3294 13.8978Z" fill="#615EFC"/>
</svg>
