<svg width="30" height="31" viewBox="0 0 30 31" fill="none" xmlns="http://www.w3.org/2000/svg">
<path d="M17.692 0C17.8784 0.0586217 17.9361 0.167951 18.043 0.32924C18.0952 0.494322 18.1212 0.661167 18.1471 0.832126C18.1553 0.88068 18.1636 0.929234 18.172 0.979259C18.1981 1.13412 18.223 1.28914 18.2477 1.44422C18.501 3.11709 18.501 3.11709 19.5052 4.42361C20.1715 4.85437 20.7989 5.06749 21.5744 5.22421C21.6375 5.23736 21.7006 5.25052 21.7656 5.26408C22.0951 5.33482 22.0951 5.33482 22.4298 5.35947C22.5382 5.23632 22.6358 5.11436 22.7332 4.98293C22.7909 4.90776 22.8486 4.83266 22.9064 4.75765C22.9347 4.72068 22.9631 4.68372 22.9923 4.64564C23.4519 4.04919 23.4519 4.04919 23.7276 3.94106C23.9245 3.95857 24.0287 4.01095 24.1845 4.13116C24.2764 4.31488 24.2622 4.45435 24.243 4.65757C24.1561 4.79956 24.0763 4.91015 23.9689 5.03411C23.926 5.08605 23.926 5.08605 23.8822 5.13904C23.8208 5.21333 23.7589 5.28728 23.6967 5.36092C23.5644 5.51838 23.4353 5.67839 23.306 5.83838C23.21 5.95713 23.1135 6.07555 23.017 6.19388C22.7999 6.4602 22.5852 6.72836 22.3713 6.99721C22.4516 7.18218 22.5384 7.2893 22.693 7.41762C22.891 7.58507 23.0855 7.75555 23.2779 7.92941C23.353 7.99716 23.353 7.99716 23.4296 8.06627C23.4664 8.09952 23.5032 8.13278 23.5411 8.16703C23.7094 8.09064 23.8309 8.00911 23.9619 7.87925C23.9974 7.84433 24.0329 7.80941 24.0695 7.77344C24.1078 7.73521 24.146 7.69699 24.1855 7.65761C24.2467 7.5971 24.2467 7.5971 24.3092 7.53536C24.4441 7.40184 24.5786 7.26788 24.713 7.13385C24.8067 7.04071 24.9003 6.94758 24.994 6.85445C25.1904 6.65907 25.3865 6.46343 25.5824 6.26765C25.8332 6.01717 26.0849 5.76764 26.3369 5.51835C26.5307 5.32625 26.7239 5.1335 26.9169 4.94057C27.0094 4.84831 27.1022 4.75629 27.1951 4.66452C27.3254 4.53588 27.4546 4.40635 27.5837 4.27655C27.6221 4.23904 27.6604 4.20153 27.7 4.16288C28.0027 3.85527 28.1351 3.57881 28.1912 3.14412C28.1746 2.79327 28.0176 2.46175 27.7664 2.21786C27.4757 2.0138 27.1693 1.94737 26.8166 1.96699C26.3201 2.07357 26.0274 2.39201 25.7309 2.78221C25.676 2.85342 25.6211 2.92463 25.5662 2.99584C25.5151 3.06232 25.464 3.1288 25.4129 3.1953C25.1935 3.48047 25.1935 3.48047 25.0619 3.54625C24.8397 3.56682 24.7026 3.57707 24.5099 3.45851C24.3823 3.25434 24.3702 3.07535 24.4185 2.84435C24.5256 2.65748 24.6623 2.50326 24.806 2.34352C24.8421 2.30164 24.8782 2.25976 24.9155 2.2166C24.9873 2.13351 25.0597 2.0509 25.1327 1.96883C25.2321 1.85604 25.3276 1.74074 25.4231 1.62472C25.5535 1.47238 25.6743 1.36765 25.8552 1.27606C25.9003 1.25307 25.9454 1.23007 25.9918 1.20638C26.5609 0.936673 27.1519 0.891465 27.7525 1.08962C28.3423 1.35717 28.7798 1.74164 29.0418 2.34033C29.2395 2.91745 29.2159 3.51182 28.9808 4.07266C28.7345 4.52246 28.3824 4.8697 28.0198 5.22626C27.9613 5.28448 27.9028 5.34274 27.8443 5.40104C27.6918 5.55288 27.5388 5.70418 27.3856 5.85537C27.2289 6.01034 27.0726 6.16582 26.9163 6.32125C26.6106 6.62506 26.3044 6.9283 25.9978 7.23118C26.0758 7.43493 26.1514 7.58124 26.2939 7.74663C27.7653 9.6138 28.5001 12.3936 29.0978 14.6595C29.1131 14.7173 29.1131 14.7173 29.1286 14.7763C29.9606 17.9442 29.9606 17.9442 29.9935 19.2949C29.9967 19.3841 29.9967 19.3841 30.0001 19.475C29.9752 19.6313 29.9752 19.6313 29.8719 19.7387C29.6576 19.8503 29.5135 19.8296 29.2733 19.8067C29.1188 19.6894 29.0731 19.5924 29.0414 19.4039C29.0334 19.3581 29.0253 19.3124 29.017 19.2653C29.009 19.2157 29.001 19.166 28.9927 19.1149C28.9837 19.0629 28.9747 19.011 28.9654 18.9574C28.946 18.8456 28.9269 18.7337 28.908 18.6218C28.8582 18.3271 28.8057 18.0328 28.7533 17.7385C28.7428 17.6798 28.7324 17.6211 28.7216 17.5607C28.2096 14.7052 27.3998 10.3813 25.3544 8.16703C25.2965 8.12843 25.2386 8.08983 25.1789 8.05005C25.1458 8.08341 25.1128 8.11677 25.0787 8.15114C24.9295 8.3016 24.78 8.45183 24.6305 8.60206C24.5785 8.65458 24.5265 8.70709 24.4729 8.7612C24.4231 8.81115 24.3734 8.8611 24.3221 8.91257C24.2761 8.95882 24.2302 9.00507 24.1829 9.05272C23.9962 9.22859 23.8799 9.22784 23.6289 9.22718C23.5716 9.22733 23.5143 9.22748 23.4552 9.22764C23.3072 9.21987 23.3072 9.21987 23.1902 9.16138C23.1757 9.19516 23.1612 9.22894 23.1463 9.26374C23.0732 9.39534 23.0732 9.39534 22.9537 9.48834C22.7851 9.69597 22.8066 9.88469 22.8063 10.1448C22.8034 10.6497 22.717 11.0019 22.3567 11.3804C22.1928 11.5548 22.0337 11.7295 21.8814 11.9141C21.1121 12.7874 20.0197 13.2942 18.8618 13.3727C18.8213 13.3757 18.7807 13.3788 18.7389 13.3819C18.4083 13.3951 18.0874 13.354 17.7615 13.3033C17.7188 13.2974 17.6761 13.2915 17.6322 13.2854C17.3387 13.2353 17.1711 13.1562 16.9901 12.9048C16.9513 12.6904 16.9658 12.5941 17.0785 12.4076C17.1205 12.3594 17.1625 12.3111 17.2058 12.2614C17.2774 12.1785 17.2774 12.1785 17.3504 12.0939C17.5972 11.8195 17.8484 11.5491 18.101 11.2801C18.2677 11.1022 18.4293 10.9206 18.5886 10.7361C18.7073 10.5996 18.8284 10.4654 18.9496 10.3312C19.1058 10.1581 19.2609 9.98439 19.4138 9.80844C19.6275 9.56312 19.847 9.32335 20.0662 9.08301C20.2169 8.91664 20.3649 8.74819 20.5119 8.57853C20.6363 8.4371 20.7636 8.29864 20.8908 8.15972C21.1604 7.86071 21.1604 7.86071 21.377 7.52363C21.3577 7.46573 21.3384 7.40782 21.3185 7.34816C21.2662 7.01863 21.3068 6.80443 21.4939 6.52563C21.5513 6.44799 21.6094 6.37089 21.6694 6.29532C21.6127 6.28183 21.556 6.26833 21.4976 6.25442C20.1331 5.925 18.8768 5.52868 18.0733 4.2815C18.044 4.23188 18.0147 4.18227 17.9845 4.13116C17.9378 4.05312 17.9378 4.05312 17.8901 3.9735C17.4818 3.22982 17.3849 2.37857 17.2387 1.5539C17.2191 1.44431 17.2191 1.44431 17.1992 1.33251C17.0373 0.387145 17.0373 0.387145 17.1948 0.124522C17.37 0.0194421 17.4913 0.00666331 17.692 0ZM21.9539 8.34982C21.9046 8.40531 21.8554 8.4608 21.8047 8.51798C21.7784 8.54742 21.7521 8.57686 21.7251 8.60719C21.5447 8.8098 21.366 9.01402 21.188 9.21873C20.936 9.50632 20.6782 9.78878 20.4219 10.0726C20.2233 10.2928 20.0252 10.5132 19.8306 10.737C19.6662 10.9258 19.4985 11.1113 19.3298 11.2963C18.8267 11.8391 18.8267 11.8391 18.3939 12.4369C19.5646 12.4018 20.4343 12.0394 21.26 11.2086C21.4023 11.0569 21.5392 10.9027 21.6694 10.7406C21.7015 10.7089 21.7335 10.6772 21.7665 10.6444C21.9094 10.3933 21.8704 10.0979 21.8706 9.81495C21.8809 9.36522 22.0247 9.09275 22.3274 8.7556C22.3579 8.72129 22.3884 8.68699 22.4198 8.65164C22.4537 8.61443 22.4537 8.61443 22.4883 8.57647C22.3938 8.45708 22.2961 8.34012 22.1958 8.22552C22.0633 8.21178 22.0633 8.21178 21.9539 8.34982Z" fill="#615EFC"/>
<path d="M23.6587 13.8991C23.7934 14.0083 23.8739 14.0954 23.9512 14.25C23.956 14.3613 23.9604 14.4726 23.9631 14.5839C23.98 15.192 24.1017 15.7225 24.2841 16.2997C24.3117 16.3903 24.3391 16.4809 24.3664 16.5716C24.4377 16.8069 24.5102 17.0417 24.5831 17.2764C24.7003 17.6541 24.8157 18.0322 24.9305 18.4106C24.9705 18.5416 25.0113 18.6724 25.0522 18.8032C25.0769 18.8837 25.1015 18.9642 25.1262 19.0447C25.1478 19.1144 25.1695 19.1841 25.1918 19.2559C25.2409 19.4685 25.2549 19.6478 25.238 19.8652C25.093 20.0656 25.0125 20.1467 24.7664 20.1869C24.5702 20.1535 24.5031 20.1193 24.3606 19.9822C24.2857 19.8039 24.2857 19.8039 24.2226 19.5873C24.2113 19.5491 24.1999 19.5108 24.1882 19.4713C24.1644 19.3906 24.1411 19.3098 24.1181 19.2289C24.0828 19.105 24.0465 18.9815 24.0099 18.858C23.8342 18.2575 23.8342 18.2575 23.8342 18.052C23.7956 18.052 23.757 18.052 23.7172 18.052C23.7203 18.1051 23.7234 18.1583 23.7266 18.213C23.726 18.5373 23.642 18.8458 23.5673 19.1596C23.5517 19.2266 23.5361 19.2935 23.5201 19.3625C23.4132 19.8117 23.2889 20.2534 23.1542 20.695C22.818 21.8029 22.6549 22.9309 22.6498 24.0875C22.6485 24.1517 22.6473 24.2159 22.6461 24.282C22.6405 25.526 22.9224 26.711 23.2347 27.9077C23.3059 28.181 23.3761 28.4546 23.4458 28.7284C23.4704 28.8206 23.4704 28.8206 23.4954 28.9147C23.5853 29.2684 23.6645 29.5848 23.4796 29.922C23.2966 30.0223 23.098 30.0328 22.8983 29.9841C22.7101 29.8241 22.6301 29.7006 22.5708 29.462C22.5562 29.4047 22.5415 29.3474 22.5264 29.2884C22.5116 29.2266 22.4967 29.1648 22.4814 29.101C22.4652 29.0365 22.4491 28.972 22.4325 28.9055C22.3984 28.7684 22.3648 28.6313 22.3315 28.4941C22.2814 28.2878 22.23 28.0819 22.1783 27.876C21.9908 27.1205 21.8291 26.3694 21.7285 25.5973C21.721 25.5416 21.7135 25.4859 21.7058 25.4285C21.4822 23.5241 21.8283 21.66 22.3554 19.8371C22.7432 18.4936 22.9476 17.1418 22.9664 15.7434C22.9672 15.6947 22.968 15.6459 22.9688 15.5957C22.9727 15.3497 22.9751 15.1038 22.9748 14.8578C22.9758 14.7665 22.9769 14.6753 22.9781 14.5841C22.9775 14.542 22.9769 14.5 22.9763 14.4567C22.9806 14.2383 22.9993 14.1498 23.1527 13.9897C23.3424 13.8789 23.4425 13.8623 23.6587 13.8991Z" fill="#615EFC"/>
<path d="M6.69585 13.8991C6.85117 13.9902 6.85117 13.9902 6.9883 14.133C7.01741 14.2904 7.02788 14.412 7.02554 14.5692C7.0261 14.612 7.02666 14.6547 7.02723 14.6988C7.0283 14.7904 7.02875 14.8821 7.02862 14.9737C7.02844 15.2138 7.03322 15.4539 7.0372 15.694C7.03785 15.7415 7.0385 15.7889 7.03918 15.8378C7.04785 16.4234 7.09171 17.0029 7.16378 17.584C7.16968 17.6331 7.17558 17.6822 7.18165 17.7328C7.29191 18.5948 7.52726 19.4196 7.76312 20.2536C8.10546 21.466 8.33881 22.6593 8.35188 23.923C8.35358 23.979 8.35527 24.035 8.35702 24.0927C8.35932 24.3474 8.35738 24.5024 8.2301 24.7275C8.09297 24.8425 8.04157 24.8756 7.86567 24.8698C7.82707 24.8699 7.78846 24.8699 7.74869 24.87C7.56698 24.8186 7.50608 24.7594 7.39774 24.6029C7.36373 24.412 7.36545 24.2225 7.36484 24.029C7.32737 22.5626 7.00448 21.2019 6.60587 19.7976C6.27429 18.6237 6.27429 18.6237 6.28641 18.0519C6.2478 18.0519 6.2092 18.0519 6.16942 18.0519C6.16327 18.0861 6.15712 18.1202 6.15077 18.1553C6.07498 18.5561 5.97188 18.9445 5.85503 19.3351C5.83799 19.3951 5.82095 19.4552 5.8034 19.5171C5.78621 19.5746 5.76902 19.6321 5.7513 19.6913C5.73612 19.743 5.72094 19.7947 5.70529 19.848C5.63112 20.0077 5.55964 20.0687 5.40904 20.1576C5.23722 20.1869 5.23722 20.1869 5.05809 20.1576C4.88993 20.037 4.88993 20.037 4.76563 19.8652C4.74249 19.5676 4.78943 19.3282 4.87746 19.0447C4.89529 18.9864 4.89529 18.9864 4.91348 18.9269C4.93919 18.8431 4.96514 18.7593 4.99133 18.6755C5.033 18.542 5.07385 18.4082 5.11447 18.2743C5.23003 17.8939 5.34678 17.5138 5.46474 17.1341C5.53708 16.9011 5.6082 16.6677 5.67864 16.4341C5.7054 16.3462 5.7326 16.2584 5.76029 16.1708C5.92737 15.6415 6.0257 15.1512 6.03537 14.5942C6.04337 14.1904 6.04337 14.1904 6.16942 14.0161C6.37488 13.8791 6.45397 13.8701 6.69585 13.8991Z" fill="#615EFC"/>
<path d="M12.3109 0C12.5116 0.00666331 12.6329 0.0194421 12.8081 0.124522C13.0022 0.448084 12.8802 0.898695 12.8165 1.25459C12.8039 1.32663 12.8039 1.32663 12.7911 1.40013C12.7732 1.50132 12.7552 1.60248 12.7369 1.70361C12.7097 1.85555 12.6836 2.00766 12.6576 2.15983C12.418 3.52332 11.9194 4.6441 10.7524 5.46677C10.0744 5.90433 9.32874 6.05251 8.54916 6.20759C7.95345 6.3268 7.36557 6.44692 6.79145 6.64878C6.75206 6.66263 6.71267 6.67647 6.67208 6.69074C5.67494 7.0586 4.86345 7.79033 4.26239 8.65233C4.1806 8.75194 4.1806 8.75194 4.01243 8.80678C3.7942 8.81114 3.70784 8.76769 3.53719 8.63496C3.41495 8.4516 3.39761 8.38055 3.43643 8.16772C3.52725 7.91489 3.71428 7.72378 3.88814 7.52363C3.92622 7.47711 3.96429 7.43059 4.00352 7.38266C5.14489 6.03649 6.66571 5.57542 8.33932 5.25267C9.37905 5.05042 10.3956 4.73419 11.0382 3.82956C11.5467 3.02214 11.6621 2.07947 11.8052 1.15277C11.8255 1.02237 11.847 0.892183 11.8685 0.761982C11.8865 0.647683 11.8865 0.647683 11.9049 0.531074C11.9697 0.293438 12.0616 0.078395 12.3109 0Z" fill="#615EFC"/>
<path d="M3.30317 9.45385C3.44575 9.54159 3.44575 9.54159 3.53714 9.68782C3.59967 10.1293 3.42146 10.4833 3.24896 10.8804C2.16644 13.3836 1.4999 16.0393 1.06611 18.727C1.05584 18.7902 1.04557 18.8535 1.03499 18.9187C1.01727 19.0312 1.0005 19.1438 0.984929 19.2566C0.932033 19.6014 0.932033 19.6014 0.796503 19.7512C0.58323 19.8456 0.435926 19.8289 0.203137 19.8068C0.102262 19.7366 0.102262 19.7366 0.0276629 19.6313C-0.059508 19.0927 0.0787623 18.5209 0.173891 17.9899C0.181641 17.9458 0.18939 17.9017 0.197375 17.8563C0.655837 15.2577 1.35414 12.6913 2.3929 10.2618C2.41635 10.2065 2.4398 10.1513 2.46396 10.0944C2.65186 9.66884 2.78442 9.37975 3.30317 9.45385Z" fill="#615EFC"/>
<path d="M7.86463 25.7143C8.03279 25.835 8.03279 25.835 8.15708 26.0068C8.18153 26.3226 8.12702 26.5996 8.05221 26.9034C8.04131 26.9492 8.03041 26.995 8.01918 27.0422C7.98399 27.1895 7.94812 27.3366 7.91215 27.4837C7.88775 27.5846 7.86336 27.6854 7.83899 27.7863C7.79138 27.9829 7.74342 28.1793 7.69515 28.3757C7.6421 28.5916 7.59028 28.8078 7.53881 29.0241C7.51469 29.1224 7.49049 29.2206 7.46615 29.3189C7.45622 29.3612 7.4463 29.4036 7.43607 29.4473C7.37468 29.6865 7.30421 29.8352 7.10424 29.9842C6.94231 30.03 6.79988 30.0216 6.63631 29.9842C6.48642 29.8709 6.48642 29.8709 6.40234 29.6917C6.42743 29.283 6.51681 28.8977 6.61597 28.5013C6.63119 28.4394 6.64641 28.3775 6.66209 28.3138C6.71046 28.1174 6.75929 27.9212 6.80813 27.725C6.84071 27.5928 6.87327 27.4605 6.9058 27.3283C6.93712 27.2014 6.96846 27.0746 6.99982 26.9477C7.01439 26.8888 7.02895 26.8298 7.04396 26.7691C7.08299 26.6123 7.12257 26.4557 7.16273 26.2993C7.17346 26.2573 7.18419 26.2153 7.19525 26.172C7.23877 26.0098 7.26782 25.903 7.38207 25.7765C7.5614 25.6918 7.66833 25.6823 7.86463 25.7143Z" fill="#615EFC"/>
<path d="M15.5274 20.6841C15.6663 20.7682 15.6663 20.7682 15.7614 20.9181C15.7805 21.1146 15.7749 21.3062 15.7614 21.503C15.8009 21.5003 15.8404 21.4976 15.8811 21.4948C16.3037 21.4777 16.3037 21.4777 16.4998 21.5944C16.612 21.7932 16.6123 21.9218 16.5803 22.1464C16.4998 22.289 16.4998 22.289 16.3463 22.3803C16.1497 22.3991 15.9582 22.3939 15.7614 22.3803C15.7644 22.4396 15.7644 22.4396 15.7676 22.5001C15.7691 22.5522 15.7707 22.6044 15.7723 22.6582C15.7754 22.7355 15.7754 22.7355 15.7785 22.8145C15.758 22.9953 15.7126 23.0702 15.5859 23.1992C15.3535 23.2638 15.2297 23.282 15.0083 23.1809C14.884 23.0822 14.884 23.0822 14.8255 22.9653C14.8214 22.8654 14.8206 22.7654 14.8219 22.6655C14.8224 22.6123 14.8229 22.559 14.8235 22.5042C14.8241 22.4633 14.8248 22.4224 14.8255 22.3803C14.786 22.3831 14.7465 22.3858 14.7058 22.3886C14.2832 22.4057 14.2832 22.4057 14.0871 22.289C13.9749 22.0902 13.9746 21.9616 14.0066 21.7369C14.0871 21.5944 14.0871 21.5944 14.2406 21.503C14.4372 21.4842 14.6287 21.4895 14.8255 21.503C14.8228 21.4635 14.8201 21.424 14.8173 21.3833C14.7999 20.9531 14.7999 20.9531 14.9352 20.7682C15.1597 20.6163 15.2619 20.6151 15.5274 20.6841Z" fill="#615EFC"/>
<path d="M18.5437 26.1097C18.6751 26.1091 18.8064 26.1073 18.9377 26.1055C19.0215 26.1051 19.1053 26.1048 19.1891 26.1046C19.3033 26.1037 19.3033 26.1037 19.4199 26.1029C19.6352 26.125 19.7448 26.1688 19.9155 26.2992C20.0059 26.4801 19.9911 26.6264 19.974 26.8256C19.8855 26.9538 19.8855 26.9538 19.74 27.0596C19.5739 27.0836 19.4308 27.0938 19.2648 27.0927C19.196 27.0933 19.196 27.0933 19.1258 27.0938C19.0291 27.0943 18.9323 27.0941 18.8356 27.0933C18.6876 27.0925 18.5399 27.0945 18.392 27.0967C18.2978 27.0968 18.2037 27.0967 18.1096 27.0964C18.0654 27.0972 18.0213 27.0979 17.9759 27.0987C17.7519 27.0948 17.6545 27.0787 17.4895 26.9223C17.3805 26.7326 17.3637 26.6316 17.4003 26.4162C17.7098 26.0346 18.0916 26.1109 18.5437 26.1097Z" fill="#615EFC"/>
<path d="M20.2066 23.4918C20.3232 23.5842 20.3742 23.6515 20.4406 23.7842C20.4571 24.0398 20.459 24.2956 20.4611 24.5517C20.4621 24.6368 20.4636 24.722 20.4659 24.8071C20.4691 24.9302 20.4704 25.0532 20.4712 25.1763C20.4724 25.25 20.4735 25.3237 20.4747 25.3996C20.4314 25.6507 20.3471 25.7357 20.1481 25.8899C19.9209 25.9258 19.8002 25.9341 19.611 25.7982C19.4693 25.6085 19.472 25.4467 19.4757 25.2191C19.4756 25.1771 19.4756 25.1352 19.4755 25.0919C19.4756 25.0034 19.4762 24.9149 19.4775 24.8265C19.4792 24.6913 19.4787 24.5562 19.4779 24.421C19.4783 24.3349 19.4788 24.2487 19.4794 24.1626C19.4792 24.1223 19.479 24.082 19.4789 24.0405C19.4823 23.8635 19.4962 23.741 19.5831 23.5851C19.7807 23.3952 19.9574 23.4295 20.2066 23.4918Z" fill="#615EFC"/>
<path d="M10.6472 17.9607C10.8849 17.9996 10.9399 18.037 11.0822 18.2276C11.1048 18.3816 11.1138 18.5107 11.1113 18.6644C11.1113 18.7064 11.1114 18.7483 11.1115 18.7916C11.1114 18.88 11.1107 18.9685 11.1095 19.057C11.1078 19.1922 11.1083 19.3273 11.1091 19.4625C11.1087 19.5486 11.1082 19.6348 11.1076 19.7209C11.1078 19.7612 11.108 19.8015 11.1081 19.843C11.1047 20.0192 11.0903 20.1429 11.0055 20.2988C10.85 20.4451 10.7054 20.4429 10.4973 20.4502C10.345 20.4049 10.287 20.3692 10.2001 20.237C10.0887 19.9512 10.1223 19.6267 10.1215 19.323C10.1208 19.1969 10.1179 19.0709 10.115 18.9449C10.1144 18.8643 10.114 18.7836 10.1137 18.703C10.1129 18.6301 10.1121 18.5571 10.1113 18.482C10.1686 18.1618 10.3291 18.0109 10.6472 17.9607Z" fill="#615EFC"/>
<path d="M14.4563 16.7904C14.4995 16.7901 14.5428 16.7897 14.5874 16.7893C14.6786 16.7889 14.7698 16.7891 14.8611 16.7898C15.0006 16.7907 15.1398 16.7887 15.2793 16.7864C15.3681 16.7864 15.4569 16.7865 15.5457 16.7868C15.608 16.7856 15.608 16.7856 15.6716 16.7844C15.8889 16.7885 15.9794 16.8088 16.1406 16.9588C16.2616 17.1733 16.2357 17.2919 16.1708 17.5255C16.0785 17.6459 16.0134 17.6919 15.8783 17.7594C15.631 17.7731 15.3835 17.7728 15.1359 17.7735C15.013 17.774 14.8902 17.7758 14.7674 17.7777C14.6889 17.7781 14.6104 17.7784 14.5319 17.7786C14.425 17.7794 14.425 17.7794 14.316 17.7803C14.1071 17.7576 13.9978 17.7097 13.8312 17.5839C13.7407 17.4031 13.7555 17.2567 13.7727 17.0575C13.9569 16.7952 14.1565 16.7883 14.4563 16.7904Z" fill="#615EFC"/>
<path d="M11.4104 16.7964C11.4538 16.7959 11.4971 16.7955 11.5417 16.795C11.6333 16.7944 11.7249 16.7942 11.8165 16.7945C11.9565 16.7945 12.0963 16.7921 12.2363 16.7895C12.3253 16.7892 12.4144 16.789 12.5035 16.789C12.5452 16.7881 12.587 16.7871 12.63 16.7861C12.8489 16.7892 12.938 16.8073 13.0986 16.961C13.2093 17.1508 13.226 17.2509 13.1891 17.4672C13.0799 17.6019 12.9928 17.6823 12.8382 17.7596C12.5898 17.772 12.3412 17.7705 12.0925 17.7705C11.969 17.7706 11.8456 17.7717 11.7221 17.7728C11.6434 17.7729 11.5647 17.773 11.486 17.7731C11.4145 17.7733 11.343 17.7736 11.2692 17.7738C11.0923 17.7603 10.9958 17.7393 10.8495 17.6426C10.7268 17.485 10.7328 17.4032 10.7435 17.2003C10.8373 16.8033 11.0349 16.7965 11.4104 16.7964Z" fill="#615EFC"/>
<path d="M15.4888 26.1097C15.6069 26.1091 15.7249 26.1073 15.843 26.1054C15.9178 26.1051 15.9926 26.1048 16.0697 26.1045C16.1723 26.1037 16.1723 26.1037 16.277 26.1029C16.4822 26.1259 16.5914 26.1762 16.7556 26.2992C16.846 26.48 16.8313 26.6264 16.8141 26.8256C16.7241 26.9538 16.7241 26.9538 16.5801 27.0596C16.4221 27.0836 16.2883 27.0938 16.1305 27.0927C16.0872 27.0931 16.044 27.0934 15.9994 27.0938C15.9081 27.0942 15.8169 27.094 15.7257 27.0933C15.5862 27.0925 15.4469 27.0945 15.3075 27.0967C15.2187 27.0968 15.1299 27.0967 15.0411 27.0964C14.9995 27.0971 14.9579 27.0979 14.9151 27.0987C14.6979 27.0946 14.6073 27.0744 14.4461 26.9243C14.3252 26.7099 14.3511 26.5913 14.4159 26.3577C14.662 26.0221 15.1168 26.1108 15.4888 26.1097Z" fill="#615EFC"/>
<path d="M12.4524 26.1053C12.57 26.1055 12.6875 26.1041 12.8051 26.1026C12.8796 26.1026 12.9542 26.1026 13.0309 26.1025C13.133 26.1023 13.133 26.1023 13.2371 26.102C13.4412 26.126 13.5512 26.177 13.7148 26.2992C13.8052 26.4801 13.7905 26.6265 13.7733 26.8257C13.6825 26.9541 13.6825 26.9541 13.5393 27.0596C13.3853 27.0822 13.2562 27.0912 13.1025 27.0886C13.0395 27.0888 13.0395 27.0888 12.9753 27.0889C12.8868 27.0888 12.7983 27.0881 12.7098 27.0869C12.5746 27.0852 12.4396 27.0857 12.3044 27.0865C12.2182 27.0861 12.1321 27.0856 12.046 27.085C12.0057 27.0852 11.9654 27.0853 11.9239 27.0855C11.6872 27.0809 11.5421 27.0575 11.3751 26.8842C11.3071 26.6754 11.2986 26.5751 11.3861 26.3724C11.66 26.0323 12.0497 26.104 12.4524 26.1053Z" fill="#615EFC"/>
<path d="M17.4865 16.7946C17.5494 16.7945 17.5494 16.7945 17.6136 16.7944C17.7021 16.7945 17.7906 16.7951 17.8791 16.7964C18.0143 16.798 18.1493 16.7976 18.2845 16.7968C18.3707 16.7972 18.4568 16.7977 18.543 16.7983C18.6034 16.798 18.6034 16.798 18.665 16.7978C18.9017 16.8024 19.0468 16.8257 19.2138 16.9991C19.2818 17.2079 19.2903 17.3082 19.2028 17.5109C19.0883 17.653 19.031 17.6952 18.8628 17.7595C18.6209 17.7814 18.3793 17.7788 18.1365 17.778C18.0189 17.7778 17.9014 17.7792 17.7838 17.7806C17.7093 17.7807 17.6348 17.7807 17.558 17.7807C17.4899 17.7809 17.4219 17.7811 17.3518 17.7813C17.1477 17.7573 17.0377 17.7063 16.8741 17.584C16.7837 17.4032 16.7985 17.2568 16.8156 17.0576C16.9986 16.7988 17.1895 16.7898 17.4865 16.7946Z" fill="#615EFC"/>
<path d="M10.4985 20.9982C10.5564 21.0001 10.5564 21.0001 10.6155 21.0021C10.6541 21.002 10.6927 21.0019 10.7325 21.0018C10.9062 21.051 10.9721 21.1271 11.0834 21.2689C11.1067 21.4229 11.1163 21.552 11.1145 21.7058C11.1147 21.7477 11.1149 21.7897 11.1152 21.8329C11.1153 21.9214 11.1149 22.0099 11.1139 22.0984C11.1127 22.2336 11.1139 22.3686 11.1154 22.5039C11.1153 22.59 11.115 22.6761 11.1145 22.7623C11.115 22.8025 11.1154 22.8428 11.1159 22.8843C11.1121 23.0813 11.0961 23.1828 10.9734 23.34C10.8261 23.4506 10.7415 23.4871 10.557 23.4916C10.3531 23.3967 10.2737 23.3299 10.1476 23.1406C10.1235 22.8839 10.1258 22.6265 10.1259 22.3688C10.1256 22.2422 10.1235 22.1157 10.1213 21.9891C10.1209 21.9082 10.1207 21.8273 10.1206 21.7464C10.1201 21.6731 10.1196 21.5998 10.1191 21.5243C10.1548 21.2775 10.2472 21.0772 10.4985 20.9982Z" fill="#615EFC"/>
<path d="M20.2656 20.5086C20.4928 20.7338 20.4649 20.9666 20.4673 21.2707C20.4677 21.3534 20.4676 21.4361 20.4671 21.5189C20.4666 21.645 20.4683 21.7709 20.4702 21.897C20.4703 21.9776 20.4702 22.0582 20.47 22.1388C20.4702 22.2483 20.4702 22.2483 20.4704 22.3599C20.436 22.589 20.3694 22.686 20.2071 22.8483C20.0901 22.8851 20.0901 22.8851 19.9731 22.8812C19.9345 22.8812 19.8959 22.8813 19.8561 22.8814C19.6824 22.8322 19.6165 22.7561 19.5052 22.6143C19.4819 22.4603 19.4723 22.3312 19.4741 22.1775C19.4739 22.1355 19.4736 22.0935 19.4734 22.0503C19.4733 21.9618 19.4737 21.8733 19.4747 21.7848C19.4759 21.6496 19.4747 21.5146 19.4732 21.3794C19.4733 21.2932 19.4736 21.2071 19.4741 21.121C19.4736 21.0807 19.4731 21.0404 19.4727 20.9989C19.4765 20.8034 19.4927 20.7003 19.6131 20.5435C19.859 20.3614 19.9948 20.3902 20.2656 20.5086Z" fill="#615EFC"/>
<path d="M10.4982 24.0398C10.5561 24.0417 10.5561 24.0417 10.6152 24.0437C10.6538 24.0436 10.6924 24.0435 10.7321 24.0435C10.9059 24.0927 10.9718 24.1687 11.0831 24.3105C11.1064 24.4645 11.116 24.5936 11.1142 24.7474C11.1144 24.7894 11.1146 24.8313 11.1148 24.8745C11.115 24.963 11.1146 25.0515 11.1136 25.14C11.1123 25.2752 11.1136 25.4103 11.1151 25.5455C11.1149 25.6316 11.1146 25.7178 11.1142 25.8039C11.1146 25.8442 11.1151 25.8845 11.1156 25.926C11.1117 26.1244 11.0955 26.2249 10.9715 26.383C10.8394 26.482 10.7782 26.5079 10.6152 26.5076C10.5572 26.5095 10.5572 26.5095 10.4982 26.5115C10.3129 26.4532 10.2523 26.3421 10.1472 26.1823C10.1169 25.9872 10.1169 25.9872 10.1161 25.7673C10.1159 25.7282 10.1157 25.6891 10.1155 25.6487C10.1153 25.5663 10.1157 25.484 10.1167 25.4016C10.118 25.276 10.1167 25.1506 10.1152 25.025C10.1154 24.9447 10.1157 24.8643 10.1161 24.784C10.1164 24.7114 10.1167 24.6388 10.1169 24.564C10.155 24.319 10.2484 24.1183 10.4982 24.0398Z" fill="#615EFC"/>
<path d="M19.9731 17.3757C20.0117 17.3744 20.0503 17.3731 20.0901 17.3718C20.2754 17.4301 20.336 17.5412 20.441 17.7011C20.4713 17.8961 20.4713 17.8961 20.4721 18.116C20.4723 18.1551 20.4725 18.1943 20.4728 18.2346C20.4729 18.317 20.4725 18.3994 20.4715 18.4818C20.4703 18.6073 20.4715 18.7327 20.473 18.8583C20.4729 18.9387 20.4726 19.019 20.4721 19.0994C20.4718 19.1719 20.4716 19.2445 20.4713 19.3193C20.4359 19.5473 20.3685 19.6449 20.2071 19.8067C20.0901 19.8435 20.0901 19.8435 19.9731 19.8396C19.9345 19.8397 19.8959 19.8398 19.8561 19.8399C19.6824 19.7907 19.6165 19.7146 19.5052 19.5728C19.4819 19.4188 19.4723 19.2897 19.4741 19.1359C19.4739 19.094 19.4736 19.052 19.4734 19.0088C19.4733 18.9203 19.4737 18.8318 19.4747 18.7433C19.4759 18.6081 19.4747 18.4731 19.4732 18.3378C19.4733 18.2517 19.4736 18.1656 19.4741 18.0794C19.4736 18.0392 19.4731 17.9989 19.4727 17.9574C19.4765 17.759 19.4927 17.6584 19.6168 17.5004C19.7488 17.4014 19.81 17.3754 19.9731 17.3757Z" fill="#615EFC"/>
<path d="M27.2852 2.61033C27.4278 2.70173 27.4278 2.70173 27.5192 2.8443C27.5652 3.0618 27.5558 3.19052 27.4436 3.3842C27.3111 3.55547 27.1981 3.69462 26.9866 3.75936C26.7919 3.76923 26.6598 3.7329 26.4956 3.63027C26.3699 3.42598 26.3678 3.31477 26.4079 3.07826C26.6462 2.71134 26.8376 2.57174 27.2852 2.61033Z" fill="#615EFC"/>
</svg>
