<svg width="30" height="43" viewBox="0 0 30 43" fill="none" xmlns="http://www.w3.org/2000/svg">
<path d="M22.8278 3.4771C22.8278 4.08899 22.8108 4.7014 22.8322 5.31253C22.8571 6.02675 23.0144 6.72254 23.1924 7.41284C23.2214 7.5253 23.2641 7.60788 23.3974 7.63866C24.0563 7.79022 24.6198 8.13325 25.1479 8.5403C27.4408 10.3078 28.9341 12.5972 29.6277 15.4086C29.8674 16.3625 29.9921 17.3416 29.9993 18.325C30.0051 19.2686 29.9957 20.2097 29.8388 21.1446C29.6501 22.2682 29.2994 23.343 28.8819 24.3977C28.6826 24.9008 28.4694 25.3988 28.246 25.8916C27.8422 26.7823 27.3079 27.591 26.7033 28.3595C25.0684 30.438 22.9867 31.9428 20.6323 33.0895C19.2445 33.7654 17.821 34.363 16.3382 34.806C15.5484 35.0387 14.7298 35.1593 13.9064 35.164C12.8978 35.1786 11.9048 34.9143 11.0368 34.4004C10.5599 34.1221 10.1108 33.8016 9.65978 33.4839C9.27718 33.2084 8.87615 32.9595 8.45952 32.7389C8.09259 32.5491 8.00164 32.575 7.7682 32.9212C7.5593 33.2312 7.41398 33.5721 7.29048 33.9228C6.80587 35.2969 6.55927 36.7435 6.5613 38.2005C6.56068 38.9428 6.55041 39.6851 6.54324 40.4274C6.5455 40.5779 6.5632 40.7278 6.59606 40.8746C6.70906 41.4493 6.31073 41.9466 5.72696 41.9502C5.5816 41.9511 5.45567 41.9669 5.33227 42.0536C5.19599 42.141 5.03734 42.1871 4.87544 42.1864C3.93307 42.2239 2.99361 42.2986 2.05553 42.3945C1.45414 42.456 1.05807 42.1418 0.940152 41.547C0.932359 41.5077 0.926427 41.468 0.920759 41.4283C0.75073 40.2368 0.630514 39.0407 0.538902 37.8401C0.465754 36.8811 0.327074 35.9273 0.221514 34.9705C0.186357 34.6517 0.159125 34.3316 0.136897 34.0114C0.119761 33.7645 0.124853 33.7605 0.349433 33.7023C0.795583 33.5868 1.24241 33.474 1.68992 33.3638C1.89874 33.3128 1.91392 33.3228 1.92708 33.5393C1.97888 34.3905 2.06669 35.2381 2.17636 36.0834C2.32102 37.1975 2.40187 38.3174 2.4914 39.4367C2.51452 39.7261 2.56079 40.0138 2.60254 40.3015C2.63265 40.5087 2.63761 40.5123 2.8544 40.4897C3.39345 40.4338 3.93431 40.4096 4.47535 40.3866C4.71547 40.3765 4.71888 40.3754 4.72331 40.1212C4.73774 39.2988 4.74611 38.4762 4.76316 37.6538C4.79632 36.0534 5.13275 34.5125 5.6923 33.0176C5.82424 32.6595 5.99656 32.3177 6.20593 31.9987C6.30305 31.8466 6.41046 31.7013 6.52743 31.5639C7.2037 30.7973 8.02223 30.5995 8.9716 30.9823C9.56086 31.2199 10.0847 31.576 10.6065 31.9327C10.9376 32.1591 11.2697 32.3844 11.5971 32.616C12.4849 33.2441 13.4715 33.4403 14.5401 33.3156C15.1382 33.2494 15.7272 33.1171 16.2961 32.9211C17.7449 32.4134 19.1651 31.8363 20.52 31.1114C22.4259 30.0919 24.1009 28.7896 25.42 27.0573C25.7428 26.6334 26.0555 26.2028 26.2977 25.7284C27.0205 24.3134 27.612 22.8473 27.9611 21.2921C28.0973 20.6644 28.1709 20.0248 28.1808 19.3826C28.2029 18.4085 28.1919 17.4363 28.006 16.475C27.4812 13.7599 26.1425 11.5489 23.9204 9.88632C23.7114 9.73004 23.486 9.59702 23.2481 9.48963C23.0381 9.39461 22.8283 9.29724 22.6432 9.15719C22.5701 9.10454 22.4854 9.07022 22.3962 9.05712C22.0055 8.9845 21.7598 8.74004 21.6098 8.38466C21.449 8.00387 21.365 7.60027 21.2749 7.19999C21.0663 6.27961 20.9687 5.33754 20.9842 4.39393C20.9967 3.66169 21.0087 2.92945 21.0202 2.19724C21.0235 1.96508 21.0202 1.95773 20.7949 1.94821C19.9431 1.91235 19.091 1.88343 18.2392 1.8469C18.1101 1.84137 18.066 1.88383 18.0567 2.01361C17.9298 3.77461 17.8034 5.53583 17.8986 7.30294C17.9365 8.00581 18.0393 8.6989 18.3057 9.35861C18.4012 9.59506 18.5172 9.79161 18.7673 9.91847C19.1151 10.0949 19.2636 10.4994 19.1737 10.8694C19.132 11.0517 19.0342 11.2163 18.894 11.34C18.7538 11.4637 18.5783 11.5403 18.3922 11.5589C18.2715 11.5721 18.145 11.5833 18.034 11.5418C17.81 11.4582 17.5968 11.5082 17.3848 11.5665C16.2759 11.8715 15.361 12.4645 14.6611 13.3873C14.0049 14.2525 13.5098 15.1944 13.2357 16.2483C13.2231 16.297 13.205 16.344 13.1949 16.393C13.1715 16.5059 13.1074 16.5141 13.0199 16.4645C12.5665 16.2071 12.1149 15.9464 11.6592 15.6934C11.5259 15.6194 11.5505 15.5199 11.5858 15.4117C11.7053 15.0289 11.8469 14.6533 12.0097 14.2868C12.386 13.4648 12.87 12.6967 13.4491 12.0026C14.2103 11.0871 15.2054 10.3949 16.3284 9.99963C16.5678 9.91342 16.569 9.9101 16.4886 9.6702C16.2511 8.96174 16.1384 8.22978 16.0869 7.48758C15.9825 5.98211 16.0622 4.47992 16.1689 2.97809C16.2051 2.46791 16.2312 1.95702 16.2642 1.44658C16.2758 1.26664 16.2834 1.0854 16.3116 0.907758C16.3855 0.440798 16.6879 0.142715 17.1555 0.0487566C17.4641 -0.0132332 17.7743 -0.00358069 18.085 0.010367C18.9767 0.0502176 19.8675 0.107426 20.7604 0.123809C21.1016 0.125082 21.4419 0.157899 21.7771 0.221841C22.4131 0.352861 22.7667 0.750747 22.8288 1.40168C22.849 1.62151 22.8532 1.8425 22.8415 2.06294C22.8297 2.30328 22.8317 2.54433 22.83 2.78508C22.8283 3.01577 22.8296 3.24646 22.8296 3.47715L22.8278 3.4771Z" fill="#615EFC"/>
<path d="M0.0283552 31.7942C-0.0159233 31.517 0.00333747 31.2467 0.00940362 30.9787C0.0366792 29.7737 0.253334 28.6035 0.74239 27.499C1.33572 26.1589 2.29169 25.2038 3.72964 24.7756C4.54998 24.5313 5.35466 24.6092 6.16031 24.8282C6.54694 24.9333 6.92375 25.0701 7.31248 25.17C7.80994 25.2979 8.22412 25.2048 8.61218 24.8477C9.33824 24.1914 9.86251 23.342 10.1237 22.3987C10.251 21.9453 10.3447 21.4841 10.4431 21.0261C10.5519 21.0117 10.6222 21.0771 10.6999 21.1181C11.1165 21.338 11.5309 21.5622 11.9479 21.7813C12.0534 21.8367 12.121 21.8869 12.0906 22.0329C11.757 23.6337 11.1051 25.0599 9.85397 26.1628C9.45241 26.5171 9.02853 26.8314 8.49604 26.9663C7.94592 27.1056 7.4032 27.0536 6.85928 26.9277C6.37063 26.8146 5.9057 26.6218 5.41483 26.5153C4.38757 26.2925 3.55956 26.621 2.89893 27.4117C2.38853 28.0227 2.16267 28.7606 1.99959 29.5206C1.88309 30.0498 1.82354 30.59 1.82194 31.132C1.82234 31.3686 1.81752 31.3697 1.58775 31.4275C1.14081 31.54 0.693595 31.6515 0.246117 31.7619C0.178858 31.7784 0.108721 31.7826 0.0283552 31.7942Z" fill="#615EFC"/>
<path d="M25.3017 21.106C25.2859 21.359 25.1982 21.6683 25.1177 21.978C24.8604 22.9688 24.5414 23.9381 24.0893 24.8595C23.7911 25.4624 23.4087 26.0198 22.9536 26.515C22.202 27.3409 21.354 28.0608 20.4958 28.77C20.3872 28.8595 20.2615 28.9258 20.1262 28.9648C19.9478 29.0194 19.7567 29.0173 19.5795 28.9587C19.4023 28.9001 19.2476 28.788 19.1368 28.6379C19.0308 28.4901 18.9728 28.3134 18.9708 28.1316C18.9687 27.9498 19.0226 27.7718 19.1252 27.6217C19.2192 27.4914 19.3313 27.3753 19.4581 27.2766C20.0773 26.7514 20.6947 26.2255 21.2745 25.6546C21.9505 24.9934 22.4701 24.1894 22.7953 23.3014C23.0876 22.5114 23.3509 21.7136 23.5024 20.8823C23.5238 20.7227 23.5799 20.5698 23.667 20.4343C23.7749 20.2756 23.9311 20.1558 24.1124 20.0929C24.2937 20.0299 24.4905 20.027 24.6736 20.0848C25.0825 20.2181 25.315 20.5691 25.3017 21.106Z" fill="#615EFC"/>
<path d="M21.3156 13.2517C21.0424 13.2525 20.8102 13.1385 20.6003 12.9794C20.3878 12.8142 20.164 12.6641 19.9304 12.5303C19.7428 12.43 19.5983 12.2647 19.5239 12.0655C19.4495 11.8662 19.4504 11.6466 19.5264 11.4479C19.6747 11.0416 20.0951 10.7802 20.5343 10.8856C21.2167 11.0494 21.7519 11.4372 22.052 12.0879C22.235 12.4846 22.1046 12.8972 21.7691 13.1217C21.6349 13.2106 21.4766 13.256 21.3156 13.2517Z" fill="#615EFC"/>
<path d="M17.1668 29.9236C17.1647 30.0417 17.1394 30.1582 17.0923 30.2665C17.0452 30.3748 16.9772 30.4727 16.8922 30.5547C16.8072 30.6367 16.7069 30.7011 16.597 30.7444C16.4871 30.7876 16.3698 30.8087 16.2517 30.8066C15.7441 30.7933 15.3117 30.3584 15.3086 29.8576C15.308 29.737 15.3315 29.6175 15.3775 29.506C15.4235 29.3946 15.4913 29.2934 15.5768 29.2084C15.6623 29.1233 15.7639 29.0562 15.8756 29.0108C15.9873 28.9654 16.107 28.9426 16.2276 28.9439C16.7365 28.9487 17.1728 29.4037 17.1668 29.9236Z" fill="#615EFC"/>
<path d="M11.0822 17.5546C11.6251 17.8626 12.1284 18.1489 12.6326 18.4335C12.6687 18.4511 12.6973 18.481 12.7134 18.5178C12.7296 18.5546 12.7321 18.5959 12.7206 18.6343C12.6515 19.0079 12.5848 19.3819 12.5162 19.7556C12.4971 19.8596 12.4412 19.8872 12.3455 19.8357C11.8697 19.5804 11.3935 19.3257 10.917 19.0717C10.8619 19.0422 10.8131 19.0063 10.8265 18.9337C10.9092 18.4842 10.9931 18.035 11.0822 17.5546Z" fill="#615EFC"/>
</svg>
