<svg width="32" height="43" viewBox="0 0 32 43" fill="none" xmlns="http://www.w3.org/2000/svg">
<path d="M19.3818 0.97168C19.5944 0.848722 19.8725 0.884827 20.0439 1.07715H20.0449C20.2161 1.26833 20.223 1.5507 20.0742 1.74902L20.001 1.82812L18.585 3.09082C17.5647 3.99991 16.8786 5.2469 16.6562 6.5957L16.5518 7.23438C16.4525 7.83893 16.3184 8.44261 16.1514 9.03516L15.9736 9.62402L10.9912 25.0967C10.6083 26.2826 10.0978 27.4257 9.47168 28.501L9.19629 28.958C9.19629 28.958 9.19483 28.9601 9.19141 28.9658L9.12305 29.0781C9.0745 29.1581 8.9999 29.2798 8.89453 29.4502L7.84473 31.1191C7.44707 31.7427 6.8571 33.0153 6.16309 34.748L5.85938 35.5176C5.45457 36.5608 4.90889 37.5378 4.23535 38.4277L3.93945 38.8037C3.70936 39.0848 3.43368 39.3102 3.15723 39.5137L2.88184 39.7109C2.7861 39.7781 2.6923 39.8457 2.60059 39.9141H2.59961L2.46484 40.0127H2.46387C2.3059 40.1254 2.17002 40.2259 2.0752 40.3301L1.99414 40.4365C1.95584 40.5007 1.95418 40.5713 1.97949 40.6416C2.0056 40.7139 2.05995 40.7822 2.125 40.8281L2.21582 40.8848C2.43542 41.007 2.70612 41.0585 2.99316 41.0635C3.32027 41.0692 3.65908 41.0145 3.94727 40.9473L4.2041 40.8877L5.08301 40.6768C5.37657 40.5999 5.66293 40.5154 5.91797 40.4199L6.30078 40.2656C7.17011 39.8875 7.87534 39.3861 8.4043 38.7764L9.69629 37.2852L9.87891 37.082C10.8052 36.0783 11.9595 35.2853 13.2324 34.7832L14.4131 34.3164C15.2841 33.8386 15.7308 32.835 15.5039 31.8662V31.8652C15.4348 31.5735 15.2987 31.2971 15.1094 31.0645V31.0654L14.8154 30.7061C14.0554 29.7761 14.0419 28.4674 14.7812 27.5234L14.8291 27.4678L15.0654 27.2295C15.5017 26.7819 16.4895 25.7434 17.5811 24.4346C19.0387 22.6868 20.6725 20.4661 21.4277 18.5273L21.5605 18.1602C22.1932 16.2935 22.3112 13.9755 22.2607 12.0654C22.2072 10.0406 21.9649 8.48739 21.958 8.44434L21.9512 8.33691C21.9608 8.0901 22.144 7.87522 22.3984 7.83496L22.5059 7.82812C22.7526 7.83799 22.9662 8.02188 23.0078 8.27539L23.0684 8.70117C23.0959 8.90955 23.1286 9.18666 23.1631 9.51855C26.0616 7.86049 28.3696 6.14237 30.1875 4.27832L30.2695 4.20898C30.445 4.08865 30.6772 4.08723 30.8555 4.20117L30.9395 4.26758L30.9434 4.27246C31.1232 4.45121 31.1484 4.72759 31.0166 4.93359L30.9502 5.01758C28.9693 7.04873 26.4473 8.90386 23.2637 10.6826C23.4069 12.7904 23.423 15.9069 22.5967 18.4141L22.418 18.9121C21.6335 20.9247 20.0277 23.1478 18.5732 24.9141C17.1326 26.6637 15.8326 27.9734 15.6084 28.2002C15.1914 28.7484 15.2041 29.4991 15.6416 30.0361L15.9355 30.3945L16.041 30.5312C16.2779 30.8571 16.4503 31.2322 16.542 31.626L16.5947 31.8984C16.7962 33.2613 16.1209 34.6203 14.8877 35.2744L14.8857 35.2754C14.8699 35.2833 14.8525 35.2913 14.8379 35.2979L14.834 35.2998L13.626 35.7754C12.5781 36.1879 11.619 36.8245 10.8311 37.6289L10.5039 37.9844L9.21191 39.4756C8.48746 40.3116 7.50443 40.9645 6.2959 41.418H6.29492C6.00449 41.5264 5.68224 41.6214 5.3623 41.7051L4.44434 41.9258L4.18945 41.9844L4.19043 41.9854C3.77631 42.0829 3.39209 42.1308 3.03906 42.1309C2.51458 42.1309 2.0566 42.0223 1.6748 41.8027L1.51562 41.7012C0.913143 41.2807 0.720993 40.5042 1.08203 39.8955L1.16211 39.7725C1.30347 39.5767 1.478 39.4256 1.64648 39.2969L1.84277 39.1514L1.96777 39.0605C2.06467 38.9875 2.16725 38.9159 2.2666 38.8447H2.26758L2.50488 38.6729C2.73843 38.5012 2.95628 38.3258 3.11816 38.1289L3.38867 37.7861C4.00358 36.9747 4.50152 36.0836 4.87012 35.1328L5.35742 33.9082C5.87731 32.6352 6.47284 31.2929 6.94824 30.5479L7.99121 28.8916C8.19893 28.5555 8.2882 28.4046 8.29102 28.4004C9.00266 27.2596 9.56815 26.0417 9.97852 24.7705L14.9619 9.29785L15.1279 8.74707C15.2841 8.19304 15.4099 7.62912 15.5029 7.0625L15.6074 6.42285L15.6631 6.12598C15.9704 4.65165 16.7486 3.30191 17.876 2.29785L19.2949 1.03418L19.3818 0.97168Z" fill="#615EFC" stroke="#6228D7" stroke-width="0.2"/>
<path d="M12.6553 29.0804C12.875 28.9681 13.1531 29.0198 13.3135 29.222H13.3125C13.6356 29.6263 13.9172 30.1534 13.9199 30.766C13.9223 31.305 13.7092 31.8953 13.1465 32.5121L12.8828 32.7787C12.7809 32.8742 12.6499 32.9222 12.5195 32.9222C12.4141 32.9222 12.3068 32.8907 12.2158 32.8275L12.1309 32.7533C11.9316 32.5395 11.9419 32.2037 12.1533 32.0023L12.3359 31.8197C12.7232 31.4038 12.8512 31.0534 12.8516 30.7611C12.8518 30.4246 12.6828 30.1387 12.4814 29.8871V29.8861C12.2993 29.6561 12.3367 29.322 12.5654 29.139L12.6553 29.0804Z" fill="#615EFC" stroke="#6228D7" stroke-width="0.2"/>
<path d="M7.35547 8.53137C7.59072 8.45454 7.85525 8.55108 7.98242 8.77454L9.13574 10.8068L9.76758 9.83899C9.86511 9.68693 10.0281 9.5867 10.2285 9.59778H10.2314C10.4172 9.6046 10.5846 9.70668 10.6758 9.86829L12.2598 12.6613L12.3027 12.7599C12.3782 12.9949 12.2821 13.2587 12.0586 13.3859L12.0576 13.3868C11.9759 13.4318 11.8866 13.4552 11.7969 13.4552C11.6121 13.4552 11.4307 13.3572 11.333 13.1847V13.1837L10.1787 11.1515L9.54785 12.1212C9.4592 12.2568 9.31695 12.3439 9.15625 12.3595L9.08594 12.3615C8.92288 12.356 8.77379 12.2776 8.67773 12.1495L8.63965 12.0919L7.05762 9.29993C6.91246 9.04444 7.00166 8.72062 7.25684 8.57532L7.35547 8.53137Z" fill="#615EFC" stroke="#6228D7" stroke-width="0.2"/>
<path d="M3.40332 12.6328C3.61087 12.4987 3.89116 12.5223 4.07129 12.7061H4.07031L6.45801 15.1348L7.03027 13.3945L7.05566 13.3311C7.12475 13.1879 7.25619 13.0795 7.41504 13.043C7.59423 13.0019 7.78451 13.0555 7.91406 13.1885H7.91504L10.916 16.2422L10.9834 16.3262C11.0983 16.504 11.0969 16.7353 10.9785 16.9111L10.9092 16.9941C10.8051 17.0961 10.6694 17.1455 10.5352 17.1455C10.4318 17.1454 10.3283 17.117 10.2393 17.0576L10.1553 16.9873L7.7666 14.5566L7.19629 16.2988V16.2998C7.14551 16.4521 7.02807 16.5747 6.87793 16.6309L6.81152 16.6504C6.65533 16.6866 6.4898 16.6504 6.36328 16.5518L6.31152 16.5049L3.3125 13.4521C3.10728 13.2427 3.10855 12.9062 3.31836 12.7002L3.40332 12.6328Z" fill="#615EFC" stroke="#6228D7" stroke-width="0.2"/>
<path d="M6.49512 17.984L6.5625 17.9996L9.62793 18.9576L9.72656 18.9996C9.91253 19.1022 10.0195 19.308 9.99805 19.5192L9.97656 19.6246C9.88723 19.905 9.58843 20.0583 9.31055 19.9733H9.30957L7.07715 19.275L7.27734 20.4137L7.28516 20.4821C7.29284 20.6423 7.22685 20.7988 7.10547 20.9059H7.10449C7.00529 20.9927 6.88098 21.0387 6.75391 21.0387C6.72746 21.0387 6.70057 21.0371 6.67383 21.0328L6.5957 21.0143L3.53125 20.0563C3.25042 19.9689 3.09452 19.6693 3.18164 19.3893L3.22461 19.2897C3.34469 19.0733 3.60521 18.9644 3.84863 19.0406L6.08008 19.7379L5.88086 18.6002C5.8476 18.4168 5.91492 18.2303 6.05371 18.108L6.1084 18.0651C6.22221 17.9889 6.36108 17.9611 6.49512 17.984Z" fill="#615EFC" stroke="#6228D7" stroke-width="0.2"/>
</svg>
