<svg width="30" height="34" viewBox="0 0 30 34" fill="none" xmlns="http://www.w3.org/2000/svg">
<path d="M13.2679 31.4483C8.59047 31.4483 2.94141 26.8428 2.94141 21.1218V16.2198C2.94141 15.7002 2.98072 15.1779 3.05655 14.6709C3.42022 12.2515 4.64328 10.0316 6.50099 8.41941C8.37699 6.79058 10.7808 5.89331 13.2676 5.89331C16.0255 5.89331 18.6191 6.96751 20.5692 8.91792C22.1433 10.492 23.1501 12.4817 23.4787 14.6723C23.5559 15.1792 23.5938 15.7002 23.5938 16.2211V21.1232C23.5938 22.2957 23.3565 23.464 22.8889 24.5943C22.8215 24.7558 22.6797 24.8737 22.5084 24.9074C22.3371 24.9411 22.1602 24.8878 22.0366 24.7642L21.3766 24.1043L19.6551 23.8613L21.7248 25.9311C21.9046 26.1108 21.9285 26.3931 21.7838 26.6009C19.7478 29.4991 16.3256 31.448 13.2676 31.448L13.2679 31.4483ZM13.2679 6.93825C8.71269 6.93825 4.76715 10.3293 4.09171 14.8268C4.0229 15.2832 3.9878 15.7522 3.9878 16.2198V21.1218C3.9878 23.4893 5.08167 25.8162 7.06996 27.6725C8.90103 29.3827 11.2179 30.4036 13.2694 30.4036C15.8797 30.4036 18.8034 28.7902 20.6694 26.3524L17.8105 23.4935C17.6518 23.3348 17.6125 23.0919 17.7122 22.8897C17.8119 22.6889 18.031 22.5737 18.2528 22.606L21.6959 23.0919C21.8082 23.1073 21.9121 23.1593 21.9922 23.2393L22.1944 23.4415C22.4303 22.6777 22.5496 21.8997 22.5496 21.1218V16.2198C22.5496 15.7522 22.5145 15.2832 22.4457 14.8268C22.1508 12.8595 21.2465 11.0722 19.8311 9.65656C18.0773 7.90415 15.7464 6.93825 13.2679 6.93825Z" fill="#615EFC"/>
<path d="M3.4641 20.1741H2.97404C1.33396 20.1741 0 18.8401 0 17.2C0 16.4067 0.308917 15.6596 0.870599 15.098C1.43227 14.5349 2.17928 14.226 2.97407 14.226H3.57367C3.86293 14.226 4.09601 14.4604 4.09601 14.7483C4.09601 15.0376 3.86152 15.2706 3.57367 15.2706L2.97407 15.272C2.45874 15.272 1.97572 15.4728 1.6106 15.8365C1.24693 16.2002 1.04613 16.6847 1.04613 17.2C1.04613 18.2629 1.91108 19.1279 2.97407 19.1279H3.46414C3.7534 19.1279 3.98648 19.3624 3.98648 19.6503C3.98648 19.9395 3.75195 20.1741 3.4641 20.1741Z" fill="#615EFC"/>
<path d="M23.5614 20.174H23.0713C22.7821 20.174 22.549 19.9395 22.549 19.6517C22.549 19.3624 22.7835 19.1293 23.0713 19.1293H23.5614C24.0753 19.1293 24.5597 18.9285 24.9249 18.5649C25.2885 18.2012 25.4893 17.7167 25.4893 17.2014C25.4893 16.1384 24.6244 15.2735 23.5614 15.2735H22.9618C22.6725 15.2735 22.4395 15.039 22.4395 14.7511C22.4395 14.4618 22.674 14.2288 22.9618 14.2288L23.5614 14.226C25.2015 14.226 26.5354 15.5599 26.5354 17.2C26.5354 17.9933 26.2265 18.7404 25.6648 19.3021C25.1032 19.8637 24.3562 20.174 23.5614 20.174Z" fill="#615EFC"/>
<path d="M1.77702 15.5824C1.55235 15.5824 1.34454 15.4364 1.27574 15.2089C0.603137 12.9566 -0.193016 8.65574 2.04102 5.15343C3.08714 3.51335 4.73984 2.17094 6.81945 1.2708C8.74178 0.439523 10.9702 0 13.2676 0C15.5634 0 17.7933 0.439523 19.7143 1.2708C21.7939 2.17087 23.4467 3.51328 24.4928 5.15343C26.7268 8.65545 25.9306 12.9564 25.258 15.2089C25.1752 15.4855 24.8845 15.6427 24.6079 15.5599C24.3313 15.4771 24.174 15.1864 24.2569 14.9098C24.8789 12.8288 25.6217 8.86745 23.6123 5.71526C21.7729 2.8353 17.8087 1.04647 13.2679 1.04647C8.72526 1.04647 4.76139 2.83541 2.92342 5.7167C0.912619 8.86767 1.65687 12.8302 2.27889 14.9112C2.36174 15.1878 2.20447 15.4785 1.92785 15.5613C1.8773 15.5754 1.82675 15.5824 1.7776 15.5824L1.77702 15.5824Z" fill="#615EFC"/>
<path d="M5.94755 16.3185C5.7608 16.3185 5.57967 16.2174 5.48556 16.0418C5.34936 15.7877 5.44624 15.4704 5.7004 15.3341C6.31262 15.0083 7.30536 14.6194 8.5607 14.6194C9.25437 14.6194 10.3131 14.743 11.421 15.3341C11.6752 15.4703 11.772 15.7863 11.6358 16.0418C11.4996 16.296 11.1837 16.3929 10.9281 16.2567C10.0112 15.768 9.13358 15.6641 8.55929 15.6641C7.5188 15.6641 6.69734 15.9857 6.19045 16.2567C6.11463 16.2988 6.0304 16.3185 5.94755 16.3185Z" fill="#615EFC"/>
<path d="M5.94755 16.3185C5.7608 16.3185 5.57967 16.2174 5.48556 16.0418C5.34936 15.7877 5.44624 15.4704 5.7004 15.3341C6.31262 15.0083 7.30536 14.6194 8.5607 14.6194C9.25437 14.6194 10.3131 14.743 11.421 15.3341C11.6752 15.4703 11.772 15.7863 11.6358 16.0418C11.4996 16.296 11.1837 16.3929 10.9281 16.2567C10.0112 15.768 9.13358 15.6641 8.55929 15.6641C7.5188 15.6641 6.69734 15.9857 6.19045 16.2567C6.11463 16.2988 6.0304 16.3185 5.94755 16.3185Z" fill="#615EFC"/>
<path d="M8.56141 20.4353C8.27215 20.4353 8.03906 20.2008 8.03906 19.913V18.8668C8.03906 18.5776 8.27356 18.3445 8.56141 18.3445C8.85067 18.3445 9.08375 18.579 9.08375 18.8668V19.913C9.08516 20.2008 8.85066 20.4353 8.56141 20.4353Z" fill="#615EFC"/>
<path d="M10.6538 19.9128C10.4614 19.9128 10.2775 19.8075 10.1862 19.6236L9.73685 18.7235C9.60767 18.4651 9.71298 18.1506 9.97135 18.0214C10.2297 17.8922 10.5443 17.9975 10.6734 18.2559L11.1228 19.156C11.252 19.4143 11.1466 19.7289 10.8883 19.8581C10.8124 19.8946 10.7324 19.9128 10.6538 19.9128Z" fill="#615EFC"/>
<path d="M6.47007 19.9129C6.39143 19.9129 6.31139 19.8946 6.23697 19.8581C5.9786 19.7289 5.8733 19.4144 6.00248 19.156L6.45322 18.2545C6.5824 17.9962 6.89694 17.8923 7.1553 18.0214C7.41366 18.1506 7.51897 18.4652 7.38979 18.7235L6.93905 19.625C6.84638 19.8061 6.66104 19.9129 6.47007 19.9129Z" fill="#615EFC"/>
<path d="M8.56179 19.3894C7.00457 19.3894 5.96264 18.5567 5.58635 18.2001C5.37713 18.0007 5.3687 17.6693 5.5681 17.4615C5.76749 17.2522 6.09749 17.2438 6.3067 17.4432C6.59175 17.7142 7.3809 18.3447 8.56039 18.3447C8.95358 18.3447 9.96035 18.2562 10.8141 17.4432C11.0233 17.2438 11.3547 17.2522 11.5527 17.4615C11.7521 17.6707 11.7437 18.0021 11.5344 18.2001C10.4097 19.2743 9.08133 19.3894 8.56179 19.3894Z" fill="#615EFC"/>
<path d="M15.3597 16.3185C15.1729 16.3185 14.9918 16.2174 14.8977 16.0418C14.7615 15.7877 14.8584 15.4704 15.1125 15.3341C15.7247 15.0083 16.7175 14.6194 17.9728 14.6194C18.6665 14.6194 19.7252 14.743 20.8331 15.3341C21.0873 15.4703 21.1842 15.7863 21.048 16.0418C20.9117 16.296 20.5958 16.3929 20.3402 16.2567C19.4233 15.768 18.5457 15.6641 17.9714 15.6641C16.9309 15.6641 16.1094 15.9857 15.6026 16.2567C15.5267 16.2988 15.4425 16.3185 15.3597 16.3185Z" fill="#615EFC"/>
<path d="M15.3597 16.3185C15.1729 16.3185 14.9918 16.2174 14.8977 16.0418C14.7615 15.7877 14.8584 15.4704 15.1125 15.3341C15.7247 15.0083 16.7175 14.6194 17.9728 14.6194C18.6665 14.6194 19.7252 14.743 20.8331 15.3341C21.0873 15.4703 21.1842 15.7863 21.048 16.0418C20.9117 16.296 20.5958 16.3929 20.3402 16.2567C19.4233 15.768 18.5457 15.6641 17.9714 15.6641C16.9309 15.6641 16.1094 15.9857 15.6026 16.2567C15.5267 16.2988 15.4425 16.3185 15.3597 16.3185Z" fill="#615EFC"/>
<path d="M17.9735 20.4353C17.6843 20.4353 17.4512 20.2008 17.4512 19.913V18.8668C17.4512 18.5776 17.6857 18.3445 17.9735 18.3445C18.2628 18.3445 18.4959 18.579 18.4959 18.8668V19.913C18.4959 20.2008 18.2614 20.4353 17.9735 20.4353Z" fill="#615EFC"/>
<path d="M20.0659 19.9128C19.8735 19.9128 19.6896 19.8075 19.5983 19.6236L19.149 18.7235C19.0198 18.4651 19.1251 18.1506 19.3835 18.0214C19.6418 17.8922 19.9564 17.9975 20.0855 18.2559L20.5349 19.156C20.6641 19.4143 20.5587 19.7289 20.3004 19.8581C20.2232 19.8946 20.1431 19.9128 20.0659 19.9128Z" fill="#615EFC"/>
<path d="M15.8817 19.9129C15.803 19.9129 15.723 19.8946 15.6486 19.8581C15.3902 19.7289 15.2849 19.4144 15.4155 19.156L15.8662 18.2545C15.9954 17.9962 16.31 17.8923 16.5683 18.0214C16.8267 18.1506 16.932 18.4652 16.8014 18.7235L16.3507 19.625C16.258 19.8061 16.0741 19.9129 15.8817 19.9129Z" fill="#615EFC"/>
<path d="M17.9739 19.3894C16.4167 19.3894 15.3748 18.5567 14.9985 18.2001C14.7892 18.0007 14.7808 17.6693 14.9802 17.4615C15.1796 17.2522 15.511 17.2438 15.7188 17.4432C16.0039 17.7142 16.793 18.3447 17.9725 18.3447C18.3657 18.3447 19.3725 18.2562 20.2262 17.4432C20.4354 17.2438 20.7668 17.2522 20.9648 17.4615C21.1642 17.6707 21.1558 18.0021 20.9465 18.2001C19.8204 19.2743 18.492 19.3894 17.9739 19.3894Z" fill="#615EFC"/>
<path d="M13.2685 27.2328C11.6004 27.2328 10.39 26.5125 9.81703 26.0828C9.58535 25.9101 9.53901 25.5815 9.71172 25.3512C9.88443 25.1209 10.213 25.0732 10.4433 25.2459C10.9123 25.5969 11.9023 26.1867 13.2671 26.1867C13.8527 26.1867 14.9985 26.0645 16.0909 25.2459C16.3212 25.0732 16.6498 25.1195 16.8225 25.3512C16.9952 25.5815 16.9489 25.9101 16.7172 26.0828C15.3847 27.0826 13.9833 27.2328 13.2685 27.2328Z" fill="#615EFC"/>
<path d="M27.9086 33.4633C27.3736 33.4633 26.8372 33.2596 26.43 32.8524L22.3636 28.7861C22.16 28.5825 22.16 28.2511 22.3636 28.0461L24.5823 25.8275C24.7859 25.6239 25.1173 25.6239 25.3223 25.8275L29.3886 29.8938C30.2044 30.7096 30.2044 32.0366 29.3886 32.851C28.98 33.2596 28.4436 33.4633 27.9086 33.4633ZM23.4712 28.4154L27.1684 32.1125C27.5756 32.5198 28.2398 32.5198 28.647 32.1125C29.0542 31.7053 29.0542 31.0411 28.647 30.6339L24.9498 26.9368L23.4712 28.4154Z" fill="#615EFC"/>
<path d="M23.1008 28.568C22.9674 28.568 22.8326 28.5175 22.7315 28.415L20.9847 26.6682C20.7811 26.4645 20.7811 26.1332 20.9847 25.9282C21.1883 25.7245 21.5197 25.7245 21.7247 25.9282L23.1022 27.3056L23.8422 26.5656L22.0379 24.7613C21.8343 24.5577 21.8343 24.2263 22.0379 24.0213C22.2415 23.8177 22.5729 23.8163 22.7779 24.0213L24.953 26.1949C25.0513 26.2932 25.106 26.4266 25.106 26.5642C25.106 26.7032 25.0513 26.8352 24.953 26.9335L23.4744 28.4121C23.3676 28.5174 23.2342 28.568 23.1008 28.568Z" fill="#615EFC"/>
</svg>
