<svg width="32" height="34" viewBox="0 0 32 34" fill="none" xmlns="http://www.w3.org/2000/svg">
<path d="M4.26562 0.764648L4.35352 0.774414L4.41602 0.836914C4.60168 1.02258 4.65519 1.27815 4.67285 1.48535C4.69 1.68703 4.67597 1.92419 4.67676 2.06055L4.67773 2.19141V2.19238L4.67969 2.6123V2.75879L4.67285 3.25195C4.61453 5.38743 4.20267 7.53887 3.62402 9.58984L3.3457 10.5283C3.17634 11.078 3.02949 11.6336 2.8877 12.1963V12.1973C2.83996 12.3842 2.78972 12.57 2.74023 12.7549L2.74121 12.7559C2.37388 14.1475 2.13048 15.56 1.97363 16.9922L1.91211 17.6074L1.91113 17.6113C1.90635 17.6556 1.90239 17.7004 1.89746 17.7461C1.85263 18.1861 1.84346 18.6258 1.84082 19.0791V19.0801L1.83984 19.2012C1.83774 19.5037 1.83639 19.8064 1.83594 20.1094V20.2451C1.83403 21.4895 1.87132 22.7102 2.00684 23.9346L2.07129 24.459V24.46L2.1377 25.0117L2.2334 25.7061C2.33755 26.3997 2.46579 27.0909 2.59473 27.7881L2.82031 29.0381C2.89419 29.4549 2.96691 29.8718 3.03809 30.2891L3.10742 30.6914L3.26172 31.6113C3.31106 31.9189 3.35761 32.228 3.39746 32.5381H3.39648L3.41406 32.6592L3.41504 32.6641H3.41406C3.42859 32.7861 3.42975 32.7942 3.43555 32.9756L3.43848 33.084L3.3623 33.1602C3.31798 33.2045 3.24929 33.2794 3.15527 33.3184C3.06663 33.355 2.96601 33.3556 2.89551 33.3584H2.87402C2.8186 33.356 2.76316 33.3531 2.70605 33.3506L2.56836 33.3447L2.5 33.2256C2.36298 32.9876 2.32055 32.7667 2.2832 32.5391L2.24512 32.3105L2.24414 32.3096C2.23078 32.227 2.21745 32.1441 2.2041 32.0615L2.16113 31.8018L2.04688 31.1045L1.92871 30.3809L1.78516 29.5088L1.51074 27.8711C1.37168 27.0602 1.238 26.2473 1.12207 25.4307L1.0127 24.6123C1.007 24.5672 1.00099 24.5221 0.995117 24.4756V24.4746L0.887695 23.5244C0.882321 23.4738 0.87663 23.4232 0.871094 23.3711V23.3701C0.767144 22.3664 0.747309 21.3683 0.75 20.3701L0.750977 19.9971C0.753098 18.8124 0.776029 17.6304 0.947266 16.4385H0.946289C0.956337 16.3642 0.967187 16.2894 0.977539 16.2129L1.08887 15.4609C1.36936 13.7106 1.78986 11.9967 2.28223 10.2979C2.79732 8.51646 3.22651 6.73533 3.46484 4.9043V4.90234L3.48535 4.75684L3.54102 4.25684C3.58359 3.75553 3.59041 3.2507 3.59082 2.7334V2.60254L3.58105 1.96094C3.5725 1.75118 3.556 1.54486 3.52441 1.33887L3.52246 1.32129L3.52148 1.30273C3.52104 1.25465 3.5178 1.17685 3.55371 1.08789C3.58038 1.02193 3.62931 0.95056 3.67969 0.875L3.74512 0.777344L3.8623 0.764648L4.06348 0.75L4.26562 0.764648Z" fill="#615EFC" stroke="#615EFC" stroke-width="0.5"/>
<path d="M28.9326 14.5316L28.9688 14.5336L29.0029 14.5453C29.0362 14.5569 29.0727 14.5693 29.1035 14.5824C29.137 14.5967 29.1779 14.6178 29.2178 14.6517C29.2549 14.6834 29.2838 14.7214 29.3057 14.7572L29.3535 14.849L29.3623 14.8656L29.3682 14.8842C29.4288 15.0725 29.4628 15.2478 29.4893 15.433L29.5186 15.6361V15.6371L29.5479 15.8519L29.5791 16.0736V16.0746L29.6641 16.7318C29.6905 16.9512 29.7151 17.1712 29.7363 17.392L29.749 17.5238V17.5258L29.7979 18.1791C29.8387 18.8325 29.8555 19.4855 29.8545 20.139V20.2885C29.8527 21.0246 29.8316 21.7587 29.7832 22.4935L29.7256 23.2279L29.7139 23.348C29.5733 24.8729 29.3258 26.3867 29.0674 27.889L28.8086 29.3881L28.5195 31.1293L28.4541 31.5287L28.3662 32.0746C28.3404 32.2362 28.3145 32.3979 28.2881 32.559C28.281 32.6047 28.273 32.6495 28.2656 32.6967V32.6996C28.2423 32.8399 28.225 32.9548 28.1885 33.0433C28.1658 33.0982 28.1364 33.1423 28.1055 33.1801L28.0137 33.2777L27.9443 33.347L27.8467 33.351C27.6574 33.3585 27.6504 33.3586 27.4746 33.351L27.3408 33.3451L27.2715 33.2299C27.236 33.171 27.1908 33.0981 27.1621 33.016C27.1302 32.9248 27.1205 32.8316 27.1309 32.725L27.1328 32.7025L27.1387 32.681C27.1502 32.6401 27.162 32.5992 27.1738 32.557C27.2422 32.2868 27.2798 32.0155 27.3164 31.723V31.722L27.3867 31.222C27.4607 30.723 27.5463 30.2269 27.6338 29.7328L27.8076 28.7377L27.8428 28.5375C27.9889 27.6973 28.1243 26.8551 28.2588 26.0111V26.0101L28.3555 25.4252C28.4475 24.8743 28.5202 24.3203 28.584 23.7621L28.6084 23.5443C28.8391 21.4494 28.8342 19.3503 28.6377 17.2543L28.542 16.3558C28.5363 16.3075 28.5303 16.2591 28.5244 16.2094L28.4629 15.8129C28.4384 15.6822 28.4098 15.5519 28.377 15.4213L28.373 15.4056C28.3288 15.1623 28.3639 14.9727 28.4141 14.7719L28.4414 14.6605L28.5449 14.6088C28.5923 14.5851 28.6556 14.5509 28.7295 14.5365C28.7645 14.5297 28.8004 14.5277 28.835 14.5277L28.9326 14.5316Z" fill="#615EFC" stroke="#615EFC" stroke-width="0.5"/>
<path d="M21.1914 5.50854L21.3545 5.53003C21.4035 5.53763 21.4473 5.54598 21.4844 5.55835C21.5379 5.5762 21.5793 5.60141 21.6123 5.62671L21.6895 5.69702L21.752 5.75952L21.7617 5.84741L21.7686 5.95581C21.7711 6.06165 21.7587 6.15891 21.7275 6.25562C21.688 6.37849 21.6218 6.48471 21.5518 6.5896L21.5527 6.59058C21.2433 7.05554 21.2258 7.61195 21.291 8.23022C21.4009 8.6492 21.5858 8.9827 21.9082 9.21753C22.1315 9.32195 22.3612 9.34944 22.6191 9.31714C22.9624 9.17365 23.2011 8.87458 23.376 8.49292C23.5698 7.94614 23.5573 7.34424 23.3398 6.80933H23.3389C23.3082 6.7448 23.2968 6.71829 23.2822 6.69214L23.1982 6.5564L23.1924 6.54858L23.4082 6.42261L23.1924 6.54761C23.137 6.45253 23.0969 6.36108 23.0791 6.25659C23.062 6.15581 23.0685 6.05935 23.0791 5.96362L23.0889 5.87573L23.1514 5.81421L23.2041 5.76343C23.2276 5.74409 23.2579 5.72374 23.2949 5.70679C23.3476 5.68273 23.4155 5.667 23.4814 5.65015L23.5381 5.6355L23.5947 5.64722C23.6741 5.66369 23.7665 5.6808 23.8418 5.72046C23.8857 5.74361 23.9215 5.77319 23.9512 5.80249L24.0234 5.88257L24.0352 5.89722L24.0449 5.91284C24.3454 6.39804 24.5051 6.86209 24.5352 7.41089L24.54 7.65112C24.5396 7.70491 24.5395 7.75879 24.5391 7.81421V7.81812C24.5209 8.57317 24.2905 9.23494 23.7441 9.79565L23.7393 9.80054L23.7334 9.80542C23.5448 9.97786 23.3546 10.1227 23.1357 10.2214C22.914 10.3215 22.6754 10.368 22.3955 10.364V10.365L22.3945 10.364H22.2646C21.9031 10.3529 21.6186 10.2893 21.3047 10.0564V10.0554C21.2489 10.0178 21.1923 9.98086 21.1348 9.94214L21.1211 9.93237L21.1094 9.92163C20.617 9.48574 20.2762 8.79087 20.2178 8.14331L20.2168 8.1355C20.2143 8.08987 20.2116 8.04381 20.209 7.99683L20.1973 7.80933V7.80249C20.171 7.00469 20.3921 6.37215 20.8389 5.7312L20.8516 5.71265L20.9414 5.6228C20.9427 5.62147 20.9405 5.62468 20.9424 5.6228L20.9443 5.62085C20.946 5.61916 20.9457 5.61855 20.9473 5.61694L20.9492 5.61499H20.9502V5.61401H20.9512C20.9574 5.60779 20.9542 5.61005 20.9512 5.61304L20.957 5.60718C20.9577 5.60653 20.9581 5.60711 20.959 5.6062C20.9609 5.60429 20.959 5.60616 20.9609 5.60425V5.60327L21.0703 5.4939L21.1914 5.50854Z" fill="#615EFC" stroke="#615EFC" stroke-width="0.5"/>
<path d="M21.4746 21.4629L21.6299 21.498L21.7861 21.5352L21.8174 21.6924L21.876 21.9854L21.9053 22.1328L21.7891 22.2275L21.6602 22.333L21.3105 22.6201L21.3096 22.6211C21.22 22.6939 21.1258 22.7692 21.0273 22.8408C20.6625 23.1093 20.4027 23.6091 20.2559 24.0918C20.2166 24.4398 20.2221 24.689 20.334 24.9619L20.3896 25.083L20.3975 25.0996L20.4043 25.1172C20.4124 25.1416 20.4205 25.1659 20.4287 25.1904C20.4414 25.1962 20.4508 25.202 20.4609 25.2061L20.5947 25.251L20.6133 25.2568L20.6299 25.2656L20.6318 25.2666C20.6304 25.2659 20.6326 25.2665 20.6328 25.2666L20.6348 25.2686H20.6367L20.6377 25.2695H20.6387L20.6426 25.2715L20.6436 25.2725H20.6445C20.6543 25.2773 20.6416 25.2715 20.6514 25.2764H20.6523L20.6533 25.2773C20.6581 25.2797 20.6505 25.2759 20.6553 25.2783H20.6562L20.6572 25.2793L20.6592 25.2803C20.6685 25.285 20.6781 25.2892 20.6875 25.2939C20.6912 25.2958 20.6958 25.2986 20.7002 25.3008C21.3123 25.3579 21.8202 25.1667 22.3242 24.7734C22.773 24.3846 23.0127 23.9254 23.2588 23.3359L23.2607 23.333L23.3076 23.2256C23.3236 23.1922 23.3408 23.1611 23.3604 23.1318C23.4009 23.071 23.4506 23.0221 23.5029 22.9697L23.5898 22.8838L23.7109 22.8984C23.8043 22.9101 23.8954 22.9273 23.9854 22.9727C24.0738 23.0173 24.1427 23.0802 24.208 23.1455L24.2939 23.2314L24.2793 23.3516C24.1644 24.3361 23.5593 25.1341 22.8408 25.707L22.835 25.7119L22.8291 25.7158C22.0791 26.2431 21.3916 26.4095 20.4941 26.3232L20.4766 26.3213L20.46 26.3174C20.0937 26.23 19.8318 26.0099 19.625 25.7646L19.4355 25.5156L19.4307 25.5088L19.4268 25.502C19.2236 25.1695 19.1856 24.8803 19.1924 24.5322C19.193 24.4887 19.1937 24.4452 19.1943 24.4004V24.3965L19.2031 24.2324C19.271 23.419 19.6659 22.7403 20.2031 22.1631L20.209 22.1572L20.2148 22.1504C20.3995 21.9778 20.5438 21.8435 20.6602 21.7432C20.7749 21.6443 20.8782 21.5652 20.9814 21.5137C21.1622 21.4235 21.3199 21.4321 21.4746 21.4629Z" fill="#615EFC" stroke="#615EFC" stroke-width="0.5"/>
<path d="M9.42871 4.27954L9.51074 4.29126L9.56836 4.34985C9.61417 4.39566 9.67953 4.45723 9.71875 4.53345C9.76039 4.61448 9.76837 4.70274 9.77539 4.75903L9.7793 4.79028L9.77539 4.82153C9.77176 4.85061 9.77025 4.8646 9.7666 4.8938V4.89673H9.76562V4.90356C9.76678 4.89431 9.7635 4.91669 9.76465 4.90747C9.76353 4.91639 9.76575 4.90355 9.76465 4.91235C9.76446 4.91388 9.76295 4.91914 9.7627 4.92114V4.92603L9.76172 4.92798C9.76204 4.9254 9.76196 4.92897 9.76172 4.93091C9.76099 4.93675 9.76146 4.93392 9.76074 4.9397C9.76045 4.94207 9.76006 4.9422 9.75977 4.94458V4.94946C9.75791 4.96428 9.76063 4.94354 9.75879 4.95825L9.75684 4.96802L9.74316 5.0813L9.64746 5.14478C9.56752 5.19807 9.49982 5.24486 9.42188 5.27661C9.34774 5.30674 9.26788 5.32191 9.17188 5.34106L9.08008 5.36743C8.87678 5.43643 8.72773 5.5635 8.59766 5.76489C8.34959 6.2493 8.30555 6.87065 8.46094 7.40356C8.64336 7.78311 8.87373 8.0493 9.22852 8.2063C9.54856 8.24742 9.79835 8.19752 10.0498 8.02271C10.4136 7.66836 10.5139 7.23445 10.5312 6.66724V6.65845L10.5322 6.64966C10.5384 6.58913 10.5445 6.49668 10.585 6.41333C10.6244 6.33223 10.692 6.26921 10.7373 6.22388L10.7979 6.16333L10.8838 6.15259C10.9508 6.14421 11.005 6.13699 11.0605 6.13696L11.2383 6.15259L11.3516 6.16724L11.415 6.26196C11.6484 6.61204 11.6034 6.9456 11.5732 7.24536L11.5713 7.26001L11.5684 7.27466C11.4289 7.89825 11.1394 8.49727 10.6045 8.92212L10.5938 8.93091L10.582 8.93774C10.1692 9.19698 9.69884 9.34875 9.18457 9.28345L9.16992 9.28149L9.15625 9.27856C8.62317 9.14551 8.18181 8.84748 7.85645 8.42407L7.72363 8.23462L7.71777 8.22583L7.71289 8.21606C7.61838 8.03461 7.5367 7.85355 7.46191 7.66431L7.41504 7.54614L7.41113 7.53833L7.4082 7.52954C7.21331 6.91548 7.24686 6.12304 7.52637 5.53247L7.53125 5.52271L7.53613 5.51392C7.71178 5.2123 7.95502 4.87758 8.26367 4.6311C8.53625 4.41349 8.87189 4.25601 9.25879 4.26489L9.42871 4.27954Z" fill="#615EFC" stroke="#615EFC" stroke-width="0.5"/>
<path d="M10.5107 23.2268C10.5676 23.236 10.6583 23.2474 10.7373 23.2913C10.7767 23.3132 10.8109 23.3417 10.8398 23.3704L10.9111 23.4495L10.9297 23.47L10.9424 23.4934C10.97 23.5436 10.997 23.5941 11.0254 23.6458H11.0264L11.1123 23.7981L11.1172 23.8049L11.1211 23.8127C11.4575 24.5132 11.4093 25.2361 11.1699 25.9241L11.166 25.9338L11.1621 25.9426C10.9188 26.4912 10.5411 26.827 10.0537 27.1038L10.0547 27.1047C10.0207 27.1266 9.98621 27.1486 9.95117 27.1711L9.93066 27.1848L9.90625 27.1936C9.45904 27.3667 8.85263 27.317 8.44043 27.2004L8.4209 27.1956L8.40234 27.1868C7.71335 26.8635 7.37827 26.3361 7.1123 25.7034L7.10938 25.6956L7.10742 25.6877C6.90666 25.1096 6.97713 24.3356 7.22363 23.802L7.22852 23.7903L7.23535 23.7795C7.31178 23.65 7.39403 23.5192 7.50781 23.3909L7.57227 23.3176L7.66992 23.3079C7.7562 23.2992 7.81675 23.2932 7.87598 23.2932L8.07324 23.3079L8.16016 23.3176L8.22266 23.3801C8.24269 23.4001 8.29689 23.4495 8.3291 23.5247C8.35454 23.5841 8.3635 23.6548 8.37012 23.6985L8.375 23.7307L8.37109 23.762C8.34337 24.0225 8.2456 24.2013 8.14746 24.3821L8.14844 24.3831C8.0026 24.6635 8.00842 25.0105 8.09863 25.3655C8.25116 25.7673 8.44891 26.0252 8.80859 26.2014C9.08764 26.2886 9.38944 26.2801 9.64746 26.1682C9.9257 26.0021 10.1315 25.7559 10.2334 25.4534C10.3203 24.9818 10.3007 24.5468 10.1035 24.1438L10.0996 24.137C10.0441 24.0143 10.0061 23.8997 9.98242 23.7727L9.96387 23.6409L9.95117 23.5227L10.0352 23.4387C10.082 23.3919 10.1411 23.3294 10.2129 23.2903C10.29 23.2482 10.3739 23.2373 10.4297 23.2278L10.4697 23.2209L10.5107 23.2268Z" fill="#615EFC" stroke="#615EFC" stroke-width="0.5"/>
<path d="M15.8037 26.1265L15.8047 26.3101V26.313C15.8042 26.4128 15.8042 26.413 15.8037 26.5151C15.8038 26.5847 15.8036 26.6544 15.8037 26.7261L15.8027 27.3052C15.8022 27.5061 15.8027 27.7072 15.8027 27.9087L15.8008 28.9233L15.7998 30.0972L15.7988 31.2251V31.7056L15.7979 32.3774V32.5806C15.7976 32.641 15.7971 32.7019 15.7969 32.7642V32.9312L15.7959 32.939C15.7942 32.9663 15.7928 32.996 15.79 33.021C15.7872 33.0466 15.7819 33.0828 15.7676 33.1216C15.7365 33.2053 15.6749 33.2601 15.6572 33.2778L15.5908 33.3442L15.4961 33.3501C15.3137 33.3617 15.3032 33.3617 15.1143 33.3501L15.0195 33.3442L14.9521 33.2778C14.8683 33.194 14.7981 33.1064 14.7666 32.9858C14.7417 32.8902 14.7471 32.778 14.7471 32.7036L14.7461 32.5229V32.521L14.7471 32.3237L14.7461 32.1147V30.9546C14.7459 30.6223 14.7465 30.2897 14.7471 29.9575V28.8062C14.7465 28.4765 14.7458 28.1465 14.7461 27.8169V27.2261L14.7471 26.5679L14.7461 26.3696V26.3677L14.7471 26.188V26.0171L14.749 26.0034L14.7617 25.9067C14.7683 25.8718 14.7781 25.8337 14.7949 25.7944C14.8228 25.7295 14.8692 25.662 14.9209 25.5845L14.9844 25.4897L15.0986 25.4751C15.1657 25.4667 15.2199 25.4595 15.2754 25.4595L15.4531 25.4751L15.5381 25.4858L15.5986 25.5464L15.6758 25.6255C15.702 25.6549 15.7271 25.6879 15.7461 25.7231C15.79 25.8047 15.7963 25.8905 15.8018 25.938L15.8037 25.9526V26.1265Z" fill="#615EFC" stroke="#615EFC" stroke-width="0.5"/>
<path d="M9.70508 18.9163C9.83716 18.9266 9.95501 18.9513 10.0684 19.0051C10.1797 19.0581 10.2713 19.1324 10.3604 19.218H10.3613L10.4795 19.3303L10.4824 19.3333L10.6045 19.4534H10.6055L10.6289 19.4768C10.6323 19.4801 10.6304 19.4774 10.6338 19.4807L10.6406 19.4875V19.4885H10.6416L10.6533 19.5002C10.66 19.5067 10.6515 19.4977 10.6582 19.5042L10.6611 19.5071V19.5081H10.6621L10.666 19.512V19.5129H10.667V19.5139C10.659 19.5062 10.676 19.5217 10.668 19.5139L10.6777 19.5237C10.6853 19.5309 10.6751 19.5204 10.6826 19.5276L10.6904 19.5354V19.5364C10.6849 19.531 10.6884 19.5335 10.6914 19.5364L10.7002 19.5452C10.703 19.5479 10.7003 19.5444 10.7031 19.5471L10.7129 19.5569C10.716 19.5598 10.7108 19.5559 10.7139 19.5588H10.7148V19.5598C10.7197 19.5645 10.7138 19.5589 10.7188 19.5637L10.7217 19.5657L10.7275 19.5715L10.7363 19.5793L11.1475 19.9817H11.1484L11.2852 20.1165L11.6836 20.51L11.8057 20.6311L11.8066 20.6321L12.1465 20.9875C12.2565 21.1069 12.3644 21.2277 12.4707 21.3508L12.666 21.5608L12.875 21.7678L12.876 21.7688L13.2051 22.1047C13.3126 22.219 13.4185 22.3356 13.5215 22.4563H13.5205L13.873 22.8508L13.874 22.8518L14.2861 23.3264C14.419 23.485 14.549 23.6452 14.6777 23.8059L14.791 23.9397L14.7939 23.9436L14.9385 24.1252C14.9797 24.1806 15.0133 24.232 15.0361 24.2825C15.065 24.3461 15.0767 24.4072 15.0811 24.4641L15.0801 24.6213L15.0781 24.6682L15.0596 24.7112C15.0427 24.7498 15.0262 24.7886 15.0088 24.8284L14.9658 24.925L14.8662 24.9622C14.8081 24.9838 14.7554 25.0039 14.6953 25.0159C14.6389 25.0271 14.5779 25.0304 14.5029 25.0354L14.4072 25.0422L14.332 24.9836C14.053 24.765 13.8458 24.4605 13.667 24.2346V24.2356C13.2812 23.7552 12.8723 23.2961 12.4502 22.843L12.0244 22.3918L11.6758 22.0198C11.2429 21.5549 10.8022 21.0987 10.3535 20.6487V20.6477C10.305 20.5989 10.256 20.5505 10.2061 20.5002L9.89746 20.1995L9.58105 19.9192L9.5752 19.9143C9.50216 19.8501 9.42587 19.7856 9.37695 19.7112C9.31955 19.6238 9.30362 19.5305 9.29004 19.4641L9.2793 19.4084L9.29297 19.3538C9.30635 19.3002 9.32216 19.2255 9.36426 19.1555C9.40266 19.0918 9.46031 19.037 9.50879 18.9885L9.58984 18.9075L9.70508 18.9163Z" fill="#615EFC" stroke="#615EFC" stroke-width="0.5"/>
<path d="M20.75 18.9246L20.7891 18.9265L20.8252 18.9402L20.9824 19.0076C21.0112 19.024 21.035 19.0422 21.0547 19.0593L21.1025 19.1052L21.1533 19.156L21.1699 19.2263L21.1885 19.3132C21.1938 19.3439 21.1973 19.3767 21.1973 19.4119C21.1972 19.4745 21.1854 19.5423 21.1729 19.6169L21.1631 19.6755L21.1279 19.7234C20.9978 19.9005 20.8403 20.0452 20.7051 20.1746L20.7061 20.1755L20.583 20.2966C20.452 20.4256 20.3197 20.5533 20.1885 20.6804L19.8018 21.0603C19.721 21.1396 19.6399 21.2188 19.5586 21.2976L19.5576 21.2966C19.3357 21.5129 19.1278 21.7366 18.9268 21.9724L18.9238 21.9753C18.8227 22.0905 18.7175 22.1965 18.6123 22.2996L18.6133 22.3005C18.4423 22.4688 18.2819 22.6459 18.1211 22.8328L18.1201 22.8337C18.001 22.9706 17.8784 23.1031 17.7588 23.2332L17.7598 23.2341C17.6285 23.3795 17.5019 23.5286 17.3779 23.6814L17.0088 24.1492C16.7827 24.44 16.5491 24.7243 16.3174 25.0046L16.2256 25.115L16.084 25.0916L15.7324 25.033L15.5527 25.0027L15.5264 24.823C15.4976 24.628 15.4864 24.4301 15.6211 24.2019L15.6289 24.1882L15.6387 24.1755C15.7341 24.0521 15.8327 23.9345 15.9326 23.8201C16.0024 23.7375 16.0728 23.6555 16.1426 23.573L16.1436 23.571L16.248 23.449L16.6025 23.0134L16.6045 23.0105L16.9775 22.5779C17.1042 22.4371 17.2327 22.2992 17.3613 22.1628L17.8369 21.6384L18.1201 21.321C18.4057 21.0064 18.6985 20.7002 18.9893 20.3972C19.0173 20.3679 19.0453 20.3386 19.0742 20.3083L19.6387 19.7244L19.8252 19.532L20.0938 19.2566C20.1447 19.2042 20.1955 19.1514 20.248 19.0974L20.2637 19.0818L20.2812 19.0691C20.3397 19.0268 20.4146 18.9685 20.501 18.9412C20.5471 18.9266 20.5938 18.9216 20.6367 18.9207L20.75 18.9246Z" fill="#615EFC" stroke="#615EFC" stroke-width="0.5"/>
<path d="M15.7148 9.37109C15.9902 9.37109 16.1858 9.48488 16.3438 9.61328L16.4902 9.74316L16.498 9.75L16.5049 9.75684L16.6074 9.87695C16.7022 9.99822 16.7744 10.1238 16.8262 10.2607C16.8946 10.4418 16.9225 10.6311 16.9307 10.8369L16.9316 10.8477L16.9307 10.8574C16.9131 11.2931 16.8165 11.6642 16.4922 12.0176L16.4854 12.0254L16.4775 12.0322C16.2684 12.2244 16.0643 12.3569 15.832 12.4365C15.602 12.5153 15.3609 12.5369 15.0879 12.5322L15.0732 12.5312L15.0596 12.5293C14.6286 12.4727 14.3052 12.2674 14.0293 11.9707L14.0205 11.9609L14.0127 11.9512C13.6705 11.4976 13.5908 11.0626 13.6514 10.5293L13.6543 10.5059L13.6611 10.4834C13.7733 10.124 13.9749 9.83193 14.2725 9.59961L14.3262 9.55859L14.3926 9.54883C14.4655 9.53888 14.5263 9.53029 14.584 9.53027C14.6147 9.53027 14.644 9.53243 14.6729 9.53613L14.7607 9.5498L14.8398 9.56348L14.8965 9.62012C14.9173 9.64094 14.9695 9.68903 15.002 9.7627C15.0273 9.82034 15.0377 9.89009 15.0459 9.93652L15.0527 9.97363L15.0479 10.0117C15.0347 10.1125 15.0169 10.2012 14.9727 10.2881C14.9339 10.3642 14.8782 10.4278 14.8291 10.4863L14.8301 10.4873C14.7654 10.5715 14.7375 10.6371 14.7236 10.7021C14.7088 10.7717 14.7067 10.8537 14.7139 10.9805C14.7334 11.1072 14.7602 11.1787 14.7939 11.2334C14.8273 11.2874 14.8787 11.3424 14.9775 11.418C15.1393 11.4961 15.2572 11.5076 15.459 11.4854C15.5756 11.4209 15.6597 11.3625 15.7227 11.2959C15.7855 11.2293 15.836 11.1472 15.8779 11.0303C15.8911 10.885 15.889 10.7963 15.8711 10.7227C15.8535 10.6506 15.8161 10.5739 15.7275 10.4619C15.6279 10.3565 15.5188 10.2652 15.3936 10.1758L15.2627 10.082L15.2939 9.92383C15.3099 9.84397 15.3274 9.75759 15.3662 9.6748C15.4079 9.58613 15.4664 9.51607 15.5381 9.44434L15.6113 9.37109H15.7148Z" fill="#615EFC" stroke="#615EFC" stroke-width="0.5"/>
<path d="M26.5 0.752808C26.5696 0.757069 26.6688 0.760106 26.7559 0.797729C26.8467 0.837044 26.9133 0.909206 26.958 0.953979L27.0322 1.0282L27.0312 1.13269C27.0301 1.28507 27.0222 1.42955 27.0088 1.578C26.9293 2.69895 26.9763 3.81487 27.1133 4.9325L27.1777 5.41296V5.41394L27.2051 5.68835C27.2103 5.77807 27.2112 5.86756 27.21 5.95984L27.2109 5.96082C27.2104 6.01136 27.2095 6.06206 27.209 6.11414V6.11609C27.2083 6.15347 27.2077 6.19086 27.207 6.22937L27.2031 6.42175L27.0166 6.46765C26.9281 6.48928 26.8807 6.50038 26.8311 6.50867L26.6299 6.5321L26.5352 6.54187L26.457 6.48523C26.3893 6.43529 26.3238 6.37992 26.2695 6.30554C26.2142 6.22971 26.1818 6.1486 26.1562 6.0614L26.1504 6.04285L26.1484 6.02332C26.1428 5.97931 26.1367 5.93484 26.1309 5.88953L26.1104 5.73621L26.1094 5.7323L26.1104 5.73132C26.104 5.67748 26.0973 5.62367 26.0908 5.56824L26.0693 5.39343H26.0684C26.0463 5.21164 26.0259 5.02955 26.0059 4.84851L25.9873 4.68347V4.6825C25.9084 3.98192 25.8764 3.28669 25.873 2.58582L25.8711 2.3739V2.37097L25.8799 1.58484C25.8862 1.39575 25.8979 1.24287 25.9287 1.12683C25.9628 0.998857 26.0302 0.878019 26.1689 0.811401C26.2731 0.761451 26.3979 0.758291 26.4688 0.753784L26.4844 0.752808H26.5Z" fill="#615EFC" stroke="#615EFC" stroke-width="0.5"/>
<path d="M26.9785 7.15894C27.1355 7.14866 27.2979 7.18859 27.4316 7.21851L27.4307 7.21948C27.5034 7.23549 27.5764 7.25084 27.6514 7.26733H27.6533L27.8896 7.32202L27.8906 7.32104L28.1357 7.37573L28.6494 7.49194L29.3047 7.63843L29.8115 7.75171L30.0527 7.80542L30.3926 7.88257L30.5869 7.92651L30.5957 7.92847L30.8506 8.00659L31.0967 8.10327L31.2451 8.16675L31.248 8.32788C31.2506 8.46754 31.2505 8.60749 31.248 8.74683L31.2461 8.84839L31.1748 8.91968C31.1521 8.94244 31.0973 9.0025 31.0049 9.03296C30.9737 9.04322 30.9386 9.04998 30.9033 9.05444L30.8008 9.06421L30.7881 9.06519H30.7754C30.3959 9.05915 30.0258 8.95715 29.7061 8.88452V8.88354L29.4834 8.83472C29.3273 8.79983 29.1705 8.76465 29.0146 8.72925V8.72827C28.8171 8.68343 28.6191 8.64039 28.4209 8.59644H28.4199L27.8477 8.46753C27.7769 8.45182 27.7057 8.43586 27.6328 8.41968H27.6318C27.3062 8.34527 27.1259 8.30473 26.9922 8.26147C26.8479 8.21478 26.7547 8.16378 26.6064 8.08472L26.5273 8.04272L26.4932 7.95972C26.4662 7.89468 26.4381 7.83071 26.4248 7.7644C26.4108 7.69434 26.4135 7.62679 26.415 7.56519L26.418 7.46558L26.4883 7.39526C26.6382 7.24532 26.798 7.17076 26.9785 7.15894Z" fill="#615EFC" stroke="#615EFC" stroke-width="0.5"/>
<path d="M26.0566 8.65247C26.3453 8.68197 26.5164 8.80456 26.6953 8.91907L27.3037 9.28333C27.5085 9.4015 27.7158 9.51729 27.9248 9.63293H27.9258L28.748 10.0948C28.9095 10.1872 29.0141 10.2503 29.2197 10.3741H29.2207L29.3369 10.4425L29.3428 10.4454L29.4658 10.5245C29.5066 10.5534 29.5467 10.5855 29.584 10.6222C29.6641 10.7011 29.7221 10.7935 29.7686 10.9103L29.7871 10.9562L29.7861 11.006C29.7854 11.0651 29.787 11.1473 29.7539 11.2355C29.7263 11.3089 29.6752 11.3828 29.625 11.4581L29.5625 11.5529L29.4492 11.5675C29.2871 11.5885 29.1447 11.5826 29.0039 11.545C28.8669 11.5085 28.7452 11.4447 28.6221 11.3712V11.3722C28.5368 11.3216 28.5369 11.3211 28.4502 11.2697L28.4473 11.2677C28.3888 11.2319 28.3298 11.1962 28.2695 11.1593V11.1583C28.2109 11.1238 28.1522 11.0895 28.0918 11.0538L28.0898 11.0529C27.767 10.8589 27.7574 10.8531 27.6299 10.7589L27.5283 10.6837V10.6124C27.4354 10.5719 27.3471 10.5284 27.2617 10.4825L26.9873 10.3263C26.9531 10.3061 26.919 10.2856 26.8838 10.2648H26.8828L26.666 10.1359L26.335 9.93958L26.123 9.8136L25.9307 9.69934L25.9238 9.69543C25.8517 9.64973 25.8004 9.61702 25.7539 9.5802C25.7062 9.54244 25.6654 9.50143 25.6104 9.44641L25.5244 9.36047L25.5391 9.23938C25.549 9.15761 25.5576 9.08441 25.5684 9.02649C25.5785 8.97222 25.596 8.89652 25.6406 8.82922C25.6952 8.74712 25.7698 8.70534 25.8389 8.68372C25.8931 8.66673 25.956 8.65903 25.998 8.65344L26.0273 8.64954L26.0566 8.65247Z" fill="#615EFC" stroke="#615EFC" stroke-width="0.5"/>
<path d="M25.2412 10.0789L25.2832 10.0964L25.3779 10.1423C25.5874 10.2581 25.7258 10.4337 25.8359 10.5583H25.8369C25.8679 10.5926 25.8987 10.6275 25.9307 10.6628H25.9316L26.2793 11.0652C26.3919 11.1997 26.5021 11.3355 26.6113 11.4714L26.8135 11.7068C26.8824 11.7845 26.9526 11.8621 27.0244 11.9402L27.3877 12.3513C27.5052 12.4893 27.6201 12.6289 27.7334 12.7703L28.0557 13.1365L28.0635 13.1443L28.0703 13.1531C28.1037 13.1962 28.1334 13.2343 28.1562 13.2664C28.1788 13.2979 28.2039 13.3368 28.2227 13.3816C28.2675 13.4885 28.2524 13.5855 28.2471 13.6335L28.2432 13.6677L28.2305 13.699C28.2109 13.7479 28.1889 13.8065 28.1484 13.864C28.1127 13.9147 28.0639 13.9623 28.0127 14.0134L27.9287 14.0974L27.8105 14.0857C27.5588 14.0601 27.3693 13.9269 27.2266 13.7888C27.0916 13.6582 26.9657 13.4872 26.877 13.3806L26.875 13.3777C26.7865 13.2686 26.6974 13.1599 26.6094 13.0505V13.0496C26.5425 12.9687 26.4741 12.8892 26.4043 12.8103L26.1885 12.572C25.9451 12.3076 25.718 12.035 25.4961 11.7585L25.209 11.4343C25.1822 11.4058 25.1555 11.3768 25.1279 11.3474V11.3464C25.0539 11.2683 24.9782 11.1914 24.9023 11.113L24.8936 11.1033L24.8857 11.0935C24.8199 11.0096 24.7625 10.9264 24.7227 10.8279C24.7024 10.7777 24.6877 10.7273 24.6777 10.6755L24.6592 10.5154L24.6533 10.4343L24.6973 10.366L24.7676 10.2625C24.7971 10.2252 24.8336 10.1875 24.8779 10.157C24.9806 10.0862 25.0922 10.0743 25.1953 10.0779L25.2412 10.0789Z" fill="#615EFC" stroke="#615EFC" stroke-width="0.5"/>
</svg>
