<svg width="38" height="38" viewBox="0 0 38 38" fill="none" xmlns="http://www.w3.org/2000/svg">
<path d="M36.5335 23.0532C36.8357 21.7492 37 20.394 37 18.9999C37 9.07514 28.9248 1 19 1C9.07519 1 1 9.07514 1 18.9999C1 21.5372 1.5301 23.9543 2.48246 26.1455C2.49306 26.172 2.50366 26.1985 2.5178 26.2232C4.07448 29.7624 6.73728 32.7061 10.0678 34.6181C10.0855 34.6323 10.0996 34.65 10.1191 34.6606C10.142 34.6729 10.165 34.6782 10.188 34.6871C12.7942 36.1572 15.7997 37 18.9996 37C22.894 37 26.5003 35.7525 29.4495 33.6428C29.5132 33.6163 29.5732 33.5756 29.6227 33.5209C29.6227 33.5209 29.6245 33.5191 29.6245 33.5173C33.0347 31.0154 35.5316 27.3438 36.5245 23.0977C36.5262 23.0818 36.5333 23.0677 36.5351 23.0518L36.5335 23.0532ZM18.9981 2.00007C28.372 2.00007 35.998 9.62604 35.998 18.9998C35.998 20.1077 35.8884 21.1909 35.6852 22.2387C34.459 21.4771 33.2981 20.401 32.2149 19.3338C30.6512 17.7912 30.031 16.0914 29.4832 14.5915C29.1969 13.807 28.9142 13.0419 28.506 12.4093C28.5908 11.2908 28.3664 10.4374 27.831 9.88084C27.4512 9.48504 26.9369 9.25888 26.2991 9.2041C26.3044 8.34362 25.9104 7.55202 25.2283 7.12615C24.8749 6.90528 24.0197 6.53245 22.8482 7.11378C22.7246 6.19318 22.3623 5.53589 21.7651 5.15425C20.9523 4.63479 19.9292 4.79026 19.2719 4.98286C19.1005 4.02517 18.5811 3.54632 18.134 3.3078C17.1127 2.7636 15.7416 3.09047 14.7344 3.68239C14.1284 3.43325 13.4781 3.45446 12.941 3.76014C12.296 4.1259 11.9126 4.84679 11.8614 5.75147C11.4903 5.7444 11.1316 5.83628 10.8153 6.03418C10.1191 6.46885 9.73574 7.30991 9.73574 8.40013C9.73574 8.44607 9.74281 8.49201 9.75517 8.53619C9.76931 8.58743 9.79228 8.6369 9.80995 8.68815C9.55727 8.71818 9.31165 8.79416 9.08724 8.92315C8.39462 9.31718 7.99882 10.1158 7.99882 11.1142C7.99882 11.1601 8.00589 11.2061 8.01826 11.2502C8.02886 11.2856 8.04476 11.3209 8.05713 11.3563C7.84333 11.3898 7.63483 11.4552 7.44222 11.5648C6.79727 11.9305 6.42798 12.6726 6.42798 13.5985C6.42798 13.6374 6.43505 13.6763 6.44388 13.7134C6.17 14.3901 6.03572 15.0209 6.05338 15.5863C6.24068 21.0867 4.9508 22.8943 3.10611 25.0271C2.39227 23.1523 1.99824 21.1204 1.99824 18.9983C1.99824 9.6245 9.62425 1.99853 18.9981 1.99853L18.9981 2.00007ZM15.602 9.9282C15.4412 10.3417 15.2221 10.5908 14.9306 10.688C14.1319 10.9548 12.8438 10.1526 12.2253 9.76739C11.4161 9.26381 10.8913 8.75493 10.7358 8.3238C10.7499 7.63824 10.9708 7.1152 11.3454 6.88021C11.6087 6.71412 11.9391 6.70882 12.2783 6.84841C12.5911 7.24774 13.0594 7.64353 13.6813 8.0305C14.0648 8.26904 14.616 8.61185 15.2186 8.83978C15.7699 9.46527 15.6444 9.81158 15.6002 9.92819L15.602 9.9282ZM13.4234 12.5132C13.2802 12.8843 13.0841 13.1069 12.8261 13.1935C12.1052 13.4338 10.8807 12.6723 10.3577 12.3471C9.62089 11.8877 9.14204 11.4265 8.99892 11.0396C9.01483 10.4388 9.21979 9.99885 9.58204 9.79214C9.89125 9.61721 10.2923 9.64018 10.6599 9.84691C10.9444 10.1049 11.2907 10.3611 11.6971 10.6155C11.9763 10.7887 12.3403 11.0131 12.7467 11.2163C13.328 11.7287 13.5577 12.1651 13.4234 12.5115L13.4234 12.5132ZM11.3684 14.8562C11.1811 15.3386 10.9337 15.4216 10.8524 15.4481C10.2164 15.6602 9.11373 14.9746 8.64375 14.6813C7.99703 14.2784 7.55885 13.8596 7.42808 13.5222C7.44398 12.9974 7.62245 12.6122 7.9352 12.4337C8.20201 12.2818 8.54835 12.303 8.86992 12.4832C9.13319 12.7218 9.45303 12.9603 9.82938 13.1935C10.0838 13.3508 10.4125 13.554 10.78 13.7395C11.2818 14.1848 11.4815 14.5611 11.3667 14.8544L11.3684 14.8562ZM14.2114 7.18228C13.4746 6.72289 12.9958 6.26168 12.8526 5.87476C12.8685 5.27401 13.0735 4.83402 13.4358 4.6273C13.7538 4.44707 14.169 4.47181 14.5454 4.69798C14.6231 4.74392 14.715 4.79692 14.8193 4.857C15.5844 5.29697 17.6181 6.46493 17.2771 7.34839C17.134 7.71944 16.9379 7.94208 16.6799 8.02866C15.9572 8.26896 14.7344 7.50742 14.2114 7.18228ZM3.53709 26.0552C5.62211 23.6681 7.26537 21.7615 7.05332 15.5523C7.04448 15.3156 7.07452 15.0594 7.1399 14.7855C7.39964 15.0364 7.72301 15.2856 8.11704 15.5311C8.68423 15.8845 9.65428 16.4888 10.5837 16.4888C10.7834 16.4888 10.9795 16.4605 11.1703 16.3969C11.6845 16.2255 12.0662 15.828 12.303 15.2166C12.4284 14.8897 12.4337 14.5593 12.3295 14.2236C12.3913 14.2289 12.4549 14.2377 12.5168 14.2377C12.7306 14.2377 12.9426 14.2077 13.1458 14.1405C13.6971 13.9568 14.1052 13.5292 14.3597 12.8719C14.5063 12.4955 14.501 12.1103 14.3579 11.7216C14.4339 11.7286 14.5081 11.7392 14.5841 11.7392C14.812 11.7392 15.0364 11.7074 15.252 11.635C15.8351 11.4406 16.268 10.9865 16.5402 10.2868C16.6585 9.98113 16.7186 9.56058 16.5331 9.06233C16.6921 9.04996 16.8476 9.02699 16.9995 8.97575C17.5508 8.79198 17.959 8.36437 18.2134 7.70707C18.7842 6.22992 17.0155 4.99128 15.7945 4.26329C16.4977 3.98058 17.2045 3.93994 17.6674 4.18731C18.1092 4.42231 18.3336 4.92412 18.3336 5.67509C18.3336 5.84649 18.4219 6.00551 18.5668 6.09739C18.7117 6.18928 18.8955 6.19987 19.0492 6.12566C19.4291 5.94367 20.5617 5.56553 21.2296 5.99491C21.6925 6.29176 21.9169 6.96319 21.8975 7.98624C21.894 8.17883 22.0018 8.35729 22.1749 8.44387C22.3481 8.53045 22.5548 8.50748 22.7068 8.38733C23.4524 7.79716 24.1787 7.64346 24.6982 7.97033C25.1788 8.27071 25.4032 8.92096 25.2548 9.58708C25.2212 9.7408 25.2601 9.90159 25.3625 10.02C25.465 10.1401 25.617 10.2037 25.7742 10.1949C26.3839 10.156 26.8344 10.2833 27.1118 10.5713C27.3062 10.7727 27.414 11.0501 27.4705 11.3487C26.9422 11.0183 26.269 10.831 25.3696 10.854C24.8802 10.8663 24.4119 10.8752 23.956 10.884C20.4186 10.9476 17.8635 10.9936 17.0859 13.197C16.9852 13.4814 16.9092 14.0486 17.5312 14.6441C18.7009 15.7643 21.8107 16.4252 24.0001 15.6123C24.0902 15.9339 24.1167 16.6972 24.1361 17.275C24.1573 17.9182 24.1856 18.6303 24.2669 19.3565C23.8764 20.0103 23.3269 20.8531 22.4823 21.7914C20.4662 24.0336 19.0244 24.7404 17.63 25.4242C15.5008 26.4685 13.4883 27.4579 10.1664 33.517C7.27743 31.7536 4.95724 29.1509 3.53689 26.0516L3.53709 26.0552ZM11.036 34.0136C13.8243 28.9212 15.5488 27.6243 17.3317 26.6948C18.7452 28.407 19.9998 28.7621 21.4416 29.165C23.1008 29.6314 25.1504 30.211 28.4438 33.1247C25.7404 34.9376 22.491 35.9977 18.9994 35.9977C16.1228 35.9977 13.4139 35.2768 11.0373 34.0117L11.036 34.0136ZM29.2744 32.5312C25.7122 29.3348 23.4966 28.7057 21.7099 28.2039C20.39 27.8329 19.3987 27.5519 18.252 26.2355C19.6178 25.5623 21.171 24.746 23.2259 22.4631C23.7666 21.8624 24.1907 21.3005 24.5352 20.7951C25.0688 22.6062 26.182 23.2689 27.1008 23.8148C27.2404 23.8979 27.3729 23.9756 27.5019 24.0569C27.585 24.1082 27.6769 24.1347 27.767 24.1347C27.9331 24.1347 28.0956 24.0516 28.191 23.9014C28.3377 23.6682 28.267 23.359 28.0338 23.2123C27.8942 23.124 27.7493 23.0392 27.6115 22.9561C26.599 22.3554 25.6413 21.7864 25.3233 19.7403C25.1908 18.8921 25.1607 18.0157 25.1342 17.2436C25.0865 15.8636 25.0582 15.0314 24.5335 14.6904C24.4027 14.6056 24.1271 14.4872 23.7489 14.6391C21.8936 15.3883 19.0771 14.7416 18.2218 13.9235C18.1087 13.8157 17.9832 13.6585 18.0274 13.533C18.5504 12.0541 20.4252 11.9516 23.9734 11.888C24.4293 11.8792 24.9028 11.8721 25.3958 11.858C27.3147 11.805 27.7724 12.821 28.5445 14.936C29.0993 16.4556 29.7902 18.348 31.513 20.0479C32.7234 21.2423 34.0344 22.4439 35.4569 23.2655C34.4868 27.0096 32.2675 30.2537 29.2743 32.533L29.2744 32.5312Z" fill="#615EFC" stroke="#615EFC"/>
</svg>
