<svg width="40" height="37" viewBox="0 0 40 37" fill="none" xmlns="http://www.w3.org/2000/svg">
<path d="M38.1651 20.4539C37.2023 19.4654 35.6658 19.2924 34.5112 20.0415L25.4642 25.9098C24.7225 25.5417 17.223 21.8326 16.2802 21.365C13.3973 19.9384 10.0542 19.8611 7.11106 21.1552L1.36173 23.6789C1.1425 23.7764 1 23.9955 1 24.2366V34.6665C1 34.8911 1.12423 35.0991 1.32154 35.204C1.51885 35.3089 1.76 35.296 1.9445 35.169L4.08199 33.7019C6.64335 31.944 9.8954 31.5795 12.7782 32.7263L20.0476 35.6181C21.8489 36.336 23.9151 36.0286 25.4368 34.8063L37.9036 24.8001C39.2518 23.7177 39.376 21.6948 38.1685 20.454L38.1651 20.4539ZM37.1475 23.8482L24.6807 33.8545C23.4987 34.8024 21.8928 35.0454 20.4879 34.4858L13.2186 31.594C10.0032 30.3147 6.32763 30.6865 3.39895 32.6966L2.20596 33.5157V24.6358L7.59377 22.2704C10.2118 21.1217 13.1841 21.1898 15.7494 22.4581L24.9624 27.0159C25.737 27.3988 26.0257 28.3633 25.5909 29.1144C25.2383 29.7218 24.5277 29.9998 23.8608 29.7881L15.4316 27.1171C15.1156 27.0159 14.774 27.1944 14.6753 27.5147C14.5748 27.835 14.752 28.1774 15.0699 28.2768L23.4991 30.9478C24.7177 31.3343 26.002 30.8189 26.6359 29.7255C27.1529 28.8327 27.1511 27.6472 26.4514 26.7177L35.1715 21.061C35.8474 20.6229 36.7463 20.7241 37.309 21.3021C38.0123 22.0255 37.9484 23.2073 37.1537 23.846L37.1475 23.8482ZM24.5984 21.9799C24.7847 22.0922 25.0222 22.0958 25.214 21.9799C35.898 15.5941 36.4676 9.47373 36.2155 7.13782C35.9196 4.38589 34.1859 2.16062 31.6921 1.32842C29.35 0.547955 26.8543 1.18116 24.9049 3.01822C22.9574 1.18116 20.4619 0.547908 18.1197 1.32658C15.6259 2.15676 13.8922 4.38226 13.5962 7.13409C13.3441 9.47001 13.9141 15.5904 24.5963 21.9761L24.5984 21.9799ZM14.7988 7.26835C15.0436 4.99685 16.4613 3.16346 18.5002 2.48436C19.03 2.30765 19.5708 2.22113 20.1115 2.22113C21.6717 2.22113 23.2209 2.94269 24.4633 4.29565C24.6916 4.54416 25.1209 4.54416 25.3493 4.29565C27.0227 2.47513 29.2516 1.79773 31.3142 2.48432C33.3531 3.16356 34.7726 4.99695 35.0156 7.26831C35.2385 9.34839 34.6904 14.7935 24.9055 20.7466C15.1223 14.7935 14.5742 9.34693 14.7973 7.26689L14.7988 7.26835Z" fill="#615EFC" stroke="#615EFC"/>
</svg>
