<svg xmlns="http://www.w3.org/2000/svg" version="1.1" xmlns:xlink="http://www.w3.org/1999/xlink" width="16" height="16"><svg width="16" height="16" viewBox="0 0 16 16" fill="none" xmlns="http://www.w3.org/2000/svg">
<path d="M7.54519 0H5.38088V5.37813H0V10.6185C0.107883 10.6185 0.215767 10.6136 0.32365 10.6086C7.04395 9.77888 7.79747 3.77183 7.79747 0H7.54519Z" fill="#615EFC"></path>
<path d="M8.45707 15.9983H10.6214V10.6202H16.0006V5.37981C15.8927 5.37981 15.7848 5.38478 15.6769 5.38976C8.95831 6.22113 8.20312 12.2282 8.20312 16H8.45541L8.45707 15.9983Z" fill="#615EFC"></path>
<path d="M10.6213 0H7.79804C7.79804 3.77183 7.04286 9.77888 0.324219 10.6102C5.58892 10.4045 10.6213 5.27027 10.6213 0Z" fill="#D6D2FF"></path>
<path d="M5.37891 15.9983H8.20213C8.20213 12.2265 8.95731 6.21945 15.6759 5.38809C10.4112 5.5922 5.37891 10.7264 5.37891 15.9983Z" fill="#D6D2FF"></path>
</svg><style>@media (prefers-color-scheme: light) { :root { filter: none; } }
@media (prefers-color-scheme: dark) { :root { filter: none; } }
</style></svg>