<svg width="279" height="46" viewBox="0 0 279 46" fill="none" xmlns="http://www.w3.org/2000/svg">
<path d="M68.7481 26.5015H59.8107V1.43219H68.822C71.358 1.43219 73.541 1.93406 75.3712 2.93782C77.2013 3.93341 78.6088 5.36559 79.5937 7.23437C80.5867 9.10314 81.0833 11.3391 81.0833 13.9424C81.0833 16.5538 80.5867 18.7979 79.5937 20.6749C78.6088 22.5518 77.1931 23.9922 75.3466 24.9959C73.5082 25.9997 71.3087 26.5015 68.7481 26.5015ZM65.1412 21.9602H68.5265C70.1023 21.9602 71.4277 21.6827 72.5028 21.1278C73.5862 20.5647 74.3987 19.6956 74.9403 18.5205C75.4902 17.3372 75.7651 15.8112 75.7651 13.9424C75.7651 12.0899 75.4902 10.5761 74.9403 9.40101C74.3987 8.22588 73.5903 7.36086 72.5151 6.80594C71.44 6.25102 70.1146 5.97356 68.5389 5.97356H65.1412V21.9602Z" fill="#615EFC"/>
<path d="M84.9334 26.5015V7.69952H90.0176V10.9801H90.2146C90.5593 9.81312 91.1379 8.93177 91.9504 8.33605C92.7629 7.73217 93.6985 7.43022 94.7572 7.43022C95.0198 7.43022 95.3029 7.44654 95.6066 7.47919C95.9102 7.51183 96.177 7.55671 96.4068 7.61384V12.2409C96.1606 12.1674 95.82 12.1022 95.385 12.045C94.95 11.9879 94.552 11.9594 94.1909 11.9594C93.4194 11.9594 92.73 12.1266 92.1227 12.4612C91.5236 12.7877 91.0476 13.2446 90.6947 13.8322C90.35 14.4198 90.1776 15.0971 90.1776 15.8642V26.5015H84.9334Z" fill="#615EFC"/>
<path d="M100.017 26.8198C99.2043 26.8198 98.5067 26.5342 97.924 25.9629C97.3495 25.3835 97.0623 24.6899 97.0623 23.882C97.0623 23.0822 97.3495 22.3968 97.924 21.8255C98.5067 21.2543 99.2043 20.9687 100.017 20.9687C100.805 20.9687 101.494 21.2543 102.085 21.8255C102.676 22.3968 102.971 23.0822 102.971 23.882C102.971 24.4206 102.832 24.9143 102.553 25.3631C102.282 25.8038 101.925 26.1588 101.482 26.4281C101.039 26.6892 100.55 26.8198 100.017 26.8198Z" fill="#615EFC"/>
<path d="M129.787 1.43219H135.117V17.7126C135.117 19.5405 134.678 21.14 133.8 22.511C132.93 23.882 131.711 24.951 130.144 25.7181C128.576 26.4771 126.75 26.8565 124.666 26.8565C122.573 26.8565 120.743 26.4771 119.175 25.7181C117.608 24.951 116.389 23.882 115.519 22.511C114.649 21.14 114.214 19.5405 114.214 17.7126V1.43219H119.544V17.2597C119.544 18.2145 119.754 19.0632 120.172 19.8058C120.599 20.5484 121.198 21.1319 121.97 21.5562C122.741 21.9806 123.64 22.1927 124.666 22.1927C125.7 22.1927 126.598 21.9806 127.362 21.5562C128.133 21.1319 128.728 20.5484 129.147 19.8058C129.573 19.0632 129.787 18.2145 129.787 17.2597V1.43219Z" fill="#615EFC"/>
<path d="M146.372 26.8076C144.936 26.8076 143.635 26.4403 142.47 25.7059C141.312 24.9633 140.393 23.8738 139.712 22.4376C139.039 20.9931 138.703 19.2223 138.703 17.125C138.703 14.9706 139.051 13.1794 139.749 11.7513C140.447 10.315 141.374 9.24188 142.531 8.5319C143.697 7.81377 144.973 7.45471 146.36 7.45471C147.418 7.45471 148.301 7.63424 149.006 7.9933C149.721 8.34421 150.295 8.78488 150.73 9.31532C151.173 9.8376 151.51 10.3517 151.739 10.8577H151.899V1.43219H157.131V26.5015H151.961V23.4903H151.739C151.493 24.0126 151.144 24.5308 150.693 25.0449C150.25 25.5508 149.671 25.9711 148.957 26.3057C148.251 26.6403 147.39 26.8076 146.372 26.8076ZM148.034 22.6579C148.879 22.6579 149.593 22.4294 150.176 21.9724C150.767 21.5073 151.218 20.8585 151.53 20.0261C151.85 19.1937 152.01 18.2185 152.01 17.1005C152.01 15.9825 151.854 15.0114 151.542 14.1872C151.231 13.363 150.779 12.7264 150.188 12.2776C149.597 11.8288 148.879 11.6044 148.034 11.6044C147.172 11.6044 146.446 11.8369 145.855 12.3021C145.264 12.7673 144.817 13.4119 144.513 14.2362C144.209 15.0604 144.058 16.0152 144.058 17.1005C144.058 18.194 144.209 19.1611 144.513 20.0016C144.825 20.834 145.272 21.4869 145.855 21.9602C146.446 22.4253 147.172 22.6579 148.034 22.6579Z" fill="#615EFC"/>
<path d="M166.835 26.8565C165.629 26.8565 164.554 26.6484 163.61 26.2322C162.666 25.8079 161.919 25.1836 161.369 24.3594C160.828 23.527 160.557 22.4906 160.557 21.2502C160.557 20.2056 160.75 19.3284 161.135 18.6184C161.521 17.9084 162.046 17.3372 162.711 16.9047C163.376 16.4722 164.131 16.1457 164.976 15.9254C165.83 15.7051 166.724 15.55 167.66 15.4602C168.76 15.346 169.646 15.2399 170.319 15.142C170.992 15.0359 171.48 14.8808 171.784 14.6768C172.088 14.4728 172.24 14.1709 172.24 13.771V13.6976C172.24 12.9223 171.993 12.3225 171.501 11.8981C171.017 11.4738 170.327 11.2616 169.433 11.2616C168.489 11.2616 167.738 11.4697 167.18 11.8859C166.622 12.2939 166.252 12.8081 166.072 13.4283L161.222 13.0366C161.468 11.8941 161.952 10.9066 162.674 10.0743C163.396 9.23371 164.328 8.58903 165.469 8.14019C166.618 7.6832 167.947 7.45471 169.457 7.45471C170.508 7.45471 171.513 7.57711 172.473 7.82193C173.442 8.06675 174.299 8.44622 175.046 8.96033C175.801 9.47445 176.396 10.1355 176.831 10.9434C177.266 11.7431 177.484 12.702 177.484 13.82V26.5015H172.51V23.8942H172.363C172.059 24.4818 171.653 25 171.144 25.4488C170.635 25.8895 170.024 26.2363 169.31 26.4893C168.596 26.7341 167.771 26.8565 166.835 26.8565ZM168.337 23.2577C169.109 23.2577 169.79 23.1067 170.381 22.8048C170.972 22.4947 171.435 22.0785 171.772 21.5562C172.108 21.0339 172.276 20.4423 172.276 19.7813V17.786C172.112 17.8921 171.887 17.99 171.599 18.0798C171.32 18.1614 171.004 18.2389 170.651 18.3124C170.299 18.3777 169.946 18.4389 169.593 18.496C169.24 18.545 168.92 18.5898 168.633 18.6306C168.017 18.7204 167.479 18.8632 167.02 19.0591C166.56 19.2549 166.203 19.5201 165.949 19.8547C165.694 20.1812 165.567 20.5892 165.567 21.0788C165.567 21.7888 165.826 22.3315 166.343 22.7069C166.868 23.0741 167.533 23.2577 168.337 23.2577Z" fill="#615EFC"/>
<path d="M184.113 33.5523C183.448 33.5523 182.824 33.4992 182.242 33.3932C181.667 33.2952 181.191 33.1687 180.814 33.0137L181.996 29.1211C182.611 29.3088 183.165 29.4108 183.658 29.4271C184.158 29.4434 184.589 29.3292 184.95 29.0844C185.319 28.8395 185.619 28.4234 185.849 27.8358L186.157 27.0401L179.373 7.69952H184.889L188.803 21.5073H189L192.952 7.69952H198.504L191.155 28.5335C190.802 29.5454 190.322 30.4268 189.714 31.1776C189.115 31.9365 188.356 32.52 187.437 32.928C186.518 33.3442 185.41 33.5523 184.113 33.5523Z" fill="#615EFC"/>
<path d="M209.31 26.5015V1.43219H219.256C221.16 1.43219 222.785 1.77085 224.131 2.44818C225.486 3.11735 226.516 4.06806 227.221 5.30031C227.935 6.5244 228.292 7.96474 228.292 9.62134C228.292 11.2861 227.931 12.7183 227.209 13.9179C226.487 15.1093 225.44 16.0233 224.07 16.6599C222.707 17.2964 221.058 17.6146 219.121 17.6146H212.461V13.3548H218.259C219.277 13.3548 220.122 13.2161 220.795 12.9386C221.468 12.6612 221.969 12.245 222.297 11.6901C222.634 11.1351 222.802 10.4456 222.802 9.62134C222.802 8.78896 222.634 8.08715 222.297 7.51591C221.969 6.94467 221.464 6.51216 220.783 6.21837C220.11 5.91643 219.261 5.76546 218.235 5.76546H214.64V26.5015H209.31ZM222.925 15.093L229.191 26.5015H223.307L217.176 15.093H222.925Z" fill="#615EFC"/>
<path d="M237.353 26.8565C236.146 26.8565 235.071 26.6484 234.128 26.2322C233.184 25.8079 232.437 25.1836 231.887 24.3594C231.345 23.527 231.075 22.4906 231.075 21.2502C231.075 20.2056 231.267 19.3284 231.653 18.6184C232.039 17.9084 232.564 17.3372 233.229 16.9047C233.894 16.4722 234.649 16.1457 235.494 15.9254C236.348 15.7051 237.242 15.55 238.178 15.4602C239.277 15.346 240.164 15.2399 240.837 15.142C241.51 15.0359 241.998 14.8808 242.302 14.6768C242.605 14.4728 242.757 14.1709 242.757 13.771V13.6976C242.757 12.9223 242.511 12.3225 242.019 11.8981C241.534 11.4738 240.845 11.2616 239.95 11.2616C239.007 11.2616 238.256 11.4697 237.698 11.8859C237.139 12.2939 236.77 12.8081 236.59 13.4283L231.739 13.0366C231.985 11.8941 232.47 10.9066 233.192 10.0743C233.914 9.23371 234.846 8.58903 235.986 8.14019C237.135 7.6832 238.465 7.45471 239.975 7.45471C241.026 7.45471 242.031 7.57711 242.991 7.82193C243.96 8.06675 244.817 8.44622 245.564 8.96033C246.319 9.47445 246.914 10.1355 247.349 10.9434C247.784 11.7431 248.001 12.702 248.001 13.82V26.5015H243.028V23.8942H242.88C242.577 24.4818 242.17 25 241.662 25.4488C241.153 25.8895 240.541 26.2363 239.827 26.4893C239.113 26.7341 238.288 26.8565 237.353 26.8565ZM238.855 23.2577C239.626 23.2577 240.307 23.1067 240.898 22.8048C241.489 22.4947 241.953 22.0785 242.289 21.5562C242.626 21.0339 242.794 20.4423 242.794 19.7813V17.786C242.63 17.8921 242.404 17.99 242.117 18.0798C241.838 18.1614 241.522 18.2389 241.169 18.3124C240.816 18.3777 240.463 18.4389 240.11 18.496C239.758 18.545 239.437 18.5898 239.15 18.6306C238.535 18.7204 237.997 18.8632 237.538 19.0591C237.078 19.2549 236.721 19.5201 236.467 19.8547C236.212 20.1812 236.085 20.5892 236.085 21.0788C236.085 21.7888 236.343 22.3315 236.86 22.7069C237.386 23.0741 238.05 23.2577 238.855 23.2577Z" fill="#615EFC"/>
<path d="M269.022 7.69952L262.411 26.5015H256.502L249.891 7.69952H255.431L259.358 21.1523H259.555L263.47 7.69952H269.022Z" fill="#615EFC"/>
<path d="M271.705 26.5015V7.69952H276.95V26.5015H271.705ZM274.34 5.27583C273.56 5.27583 272.891 5.01877 272.333 4.50465C271.783 3.98237 271.508 3.35809 271.508 2.63179C271.508 1.91366 271.783 1.29754 272.333 0.783418C272.891 0.26114 273.56 0 274.34 0C275.119 0 275.784 0.26114 276.334 0.783418C276.892 1.29754 277.171 1.91366 277.171 2.63179C277.171 3.35809 276.892 3.98237 276.334 4.50465C275.784 5.01877 275.119 5.27583 274.34 5.27583Z" fill="#615EFC"/>
<path d="M59.8107 43.603V38.1472H62.0853C62.5818 38.1472 62.9931 38.2244 63.3192 38.3789C63.6453 38.5334 63.8894 38.7448 64.0514 39.013C64.2135 39.2793 64.2945 39.5795 64.2945 39.9134C64.2945 40.249 64.2124 40.551 64.0483 40.8191C63.8863 41.0855 63.6412 41.2969 63.313 41.4532C62.9868 41.6077 62.5766 41.6849 62.0822 41.6849H60.518V40.987H61.9949C62.3086 40.987 62.5631 40.9408 62.7583 40.8484C62.9536 40.7543 63.0969 40.6264 63.1883 40.4648C63.2797 40.3032 63.3254 40.1194 63.3254 39.9134C63.3254 39.7074 63.2797 39.5244 63.1883 39.3646C63.0969 39.2048 62.9526 39.0796 62.7552 38.989C62.56 38.8984 62.3024 38.8531 61.9825 38.8531H60.7735V43.603H59.8107Z" fill="#F3F0FE"/>
<path d="M65.0852 43.603V39.5111H65.9857V40.1611H66.0355C66.1228 39.9409 66.2765 39.7677 66.4967 39.6416C66.719 39.5138 66.9703 39.4498 67.2507 39.4498C67.3089 39.4498 67.3775 39.4516 67.4564 39.4552C67.5374 39.4587 67.6008 39.4632 67.6465 39.4685V40.2304C67.6091 40.2215 67.5426 40.2117 67.447 40.2011C67.3515 40.1887 67.2559 40.1824 67.1604 40.1824C66.9402 40.1824 66.7439 40.2224 66.5715 40.3023C66.4011 40.3805 66.2661 40.4897 66.1664 40.63C66.0667 40.7685 66.0168 40.9266 66.0168 41.1042V43.603H65.0852Z" fill="#F3F0FE"/>
<path d="M70.0808 43.6856C69.6093 43.6856 69.2032 43.5994 68.8625 43.4272C68.5239 43.2531 68.2622 43.0089 68.0773 42.6946C67.8945 42.3784 67.8031 42.0082 67.8031 41.5837C67.8031 41.1646 67.8945 40.7952 68.0773 40.4755C68.2622 40.1558 68.5198 39.9063 68.85 39.7269C69.1824 39.5475 69.5708 39.4578 70.0154 39.4578C70.2854 39.4578 70.5472 39.496 70.8006 39.5724C71.054 39.6488 71.2815 39.7686 71.483 39.932C71.6845 40.0954 71.8434 40.3076 71.9597 40.5687C72.076 40.828 72.1342 41.1432 72.1342 41.5144V41.7968H68.3297V41.2001H71.2212C71.2212 40.9905 71.1714 40.8049 71.0717 40.6433C70.972 40.4799 70.8317 40.3512 70.651 40.257C70.4724 40.1629 70.2626 40.1158 70.0216 40.1158C69.7599 40.1158 69.5314 40.1709 69.3361 40.281C69.1429 40.3893 68.9934 40.5314 68.8874 40.7072C68.7836 40.8813 68.7316 41.0704 68.7316 41.2747V41.7409C68.7316 42.0144 68.7877 42.247 68.8999 42.4388C69.0141 42.6306 69.173 42.7772 69.3766 42.8784C69.5802 42.9778 69.818 43.0276 70.0902 43.0276C70.2667 43.0276 70.4277 43.0063 70.5731 42.9636C70.7185 42.9192 70.8442 42.8535 70.9501 42.7665C71.0561 42.6795 71.1371 42.572 71.1932 42.4442L72.075 42.58C72.0044 42.802 71.8776 42.9965 71.6948 43.1634C71.5141 43.3286 71.2867 43.4574 71.0125 43.5497C70.7403 43.6403 70.4298 43.6856 70.0808 43.6856Z" fill="#F3F0FE"/>
<path d="M74.9206 43.6856C74.4574 43.6856 74.0586 43.5959 73.7241 43.4165C73.3918 43.2354 73.1363 42.9858 72.9576 42.6679C72.779 42.35 72.6897 41.986 72.6897 41.5757C72.6897 41.1601 72.7811 40.7934 72.9639 40.4755C73.1467 40.1558 73.4042 39.9063 73.7366 39.7269C74.069 39.5475 74.4605 39.4578 74.9113 39.4578C75.2748 39.4578 75.5989 39.5156 75.8835 39.631C76.168 39.7447 76.3976 39.9045 76.5721 40.1105C76.7486 40.3165 76.8535 40.5572 76.8868 40.8324H75.98C75.9302 40.6406 75.8159 40.4755 75.6373 40.3369C75.4607 40.1984 75.2239 40.1292 74.9269 40.1292C74.6672 40.1292 74.4398 40.1878 74.2445 40.305C74.0513 40.4204 73.9007 40.5856 73.7927 40.8005C73.6847 41.0136 73.6307 41.2658 73.6307 41.5571C73.6307 41.8554 73.6836 42.1129 73.7896 42.3296C73.8955 42.5463 74.0451 42.7141 74.2383 42.8331C74.4335 42.9521 74.6631 43.0116 74.9269 43.0116C75.1034 43.0116 75.2634 42.9841 75.4067 42.929C75.5521 42.8722 75.6736 42.7914 75.7713 42.6866C75.871 42.5818 75.9406 42.4557 75.98 42.3083H76.8868C76.8535 42.5729 76.7528 42.8091 76.5845 43.0169C76.4163 43.2247 76.1909 43.3881 75.9084 43.5071C75.6279 43.6261 75.2987 43.6856 74.9206 43.6856Z" fill="#F3F0FE"/>
<path d="M77.6198 43.603V39.5111H78.5515V43.603H77.6198ZM78.0903 38.8798C77.9283 38.8798 77.7891 38.8336 77.6728 38.7412C77.5586 38.6471 77.5014 38.5352 77.5014 38.4056C77.5014 38.2741 77.5586 38.1623 77.6728 38.0699C77.7891 37.9758 77.9283 37.9287 78.0903 37.9287C78.2524 37.9287 78.3905 37.9758 78.5048 38.0699C78.6211 38.1623 78.6793 38.2741 78.6793 38.4056C78.6793 38.5352 78.6211 38.6471 78.5048 38.7412C78.3905 38.8336 78.2524 38.8798 78.0903 38.8798Z" fill="#F3F0FE"/>
<path d="M83.128 40.5101L82.2836 40.638C82.2483 40.5456 82.1922 40.4577 82.1154 40.3742C82.0406 40.2908 81.9388 40.2224 81.81 40.1691C81.6812 40.1158 81.5202 40.0892 81.327 40.0892C81.0632 40.0892 80.843 40.1398 80.6665 40.241C80.4899 40.3405 80.4016 40.4693 80.4016 40.6273C80.4016 40.7641 80.4608 40.8742 80.5792 40.9577C80.6976 41.0411 80.8887 41.1095 81.1526 41.1628L81.9128 41.312C82.3532 41.399 82.6814 41.5331 82.8975 41.7142C83.1135 41.8954 83.2215 42.1307 83.2215 42.4202C83.2215 42.6653 83.1384 42.8837 82.9722 43.0755C82.8081 43.2656 82.5786 43.4147 82.2836 43.5231C81.9907 43.6314 81.6511 43.6856 81.2647 43.6856C80.7288 43.6856 80.2915 43.5879 79.9529 43.3925C79.6143 43.1954 79.4066 42.9157 79.3298 42.5534L80.2302 42.4362C80.2863 42.6369 80.4016 42.7887 80.5761 42.8917C80.7506 42.9929 80.9781 43.0436 81.2585 43.0436C81.5639 43.0436 81.8079 42.9894 81.9907 42.881C82.1735 42.7709 82.2649 42.6369 82.2649 42.4788C82.2649 42.3509 82.2088 42.2435 82.0967 42.1564C81.9866 42.0694 81.8173 42.0037 81.5888 41.9593L80.7786 41.8075C80.332 41.7204 80.0018 41.5819 79.7878 41.3919C79.5759 41.2019 79.47 40.9612 79.47 40.6699C79.47 40.4284 79.5489 40.2171 79.7068 40.0359C79.8647 39.8548 80.0828 39.7136 80.3611 39.6123C80.6395 39.5093 80.9583 39.4578 81.3177 39.4578C81.8349 39.4578 82.2421 39.5537 82.5391 39.7455C82.8362 39.9356 83.0325 40.1904 83.128 40.5101Z" fill="#F3F0FE"/>
<path d="M83.9826 43.603V39.5111H84.9143V43.603H83.9826ZM84.4531 38.8798C84.2911 38.8798 84.1519 38.8336 84.0356 38.7412C83.9214 38.6471 83.8642 38.5352 83.8642 38.4056C83.8642 38.2741 83.9214 38.1623 84.0356 38.0699C84.1519 37.9758 84.2911 37.9287 84.4531 37.9287C84.6152 37.9287 84.7533 37.9758 84.8675 38.0699C84.9839 38.1623 85.042 38.2741 85.042 38.4056C85.042 38.5352 84.9839 38.6471 84.8675 38.7412C84.7533 38.8336 84.6152 38.8798 84.4531 38.8798Z" fill="#F3F0FE"/>
<path d="M87.9204 43.6856C87.4717 43.6856 87.0802 43.5977 86.7457 43.4218C86.4113 43.246 86.1516 43 85.9667 42.6839C85.7819 42.3678 85.6894 41.9984 85.6894 41.5757C85.6894 41.1512 85.7819 40.7801 85.9667 40.4622C86.1516 40.1443 86.4113 39.8974 86.7457 39.7216C87.0802 39.5457 87.4717 39.4578 87.9204 39.4578C88.3691 39.4578 88.7607 39.5457 89.0951 39.7216C89.4295 39.8974 89.6892 40.1443 89.8741 40.4622C90.0589 40.7801 90.1514 41.1512 90.1514 41.5757C90.1514 41.9984 90.0589 42.3678 89.8741 42.6839C89.6892 43 89.4295 43.246 89.0951 43.4218C88.7607 43.5977 88.3691 43.6856 87.9204 43.6856ZM87.9235 43.0169C88.2143 43.0169 88.4553 42.9512 88.6464 42.8198C88.8375 42.6884 88.9788 42.5134 89.0702 42.295C89.1636 42.0765 89.2104 41.8359 89.2104 41.573C89.2104 41.312 89.1636 41.0722 89.0702 40.8538C88.9788 40.6335 88.8375 40.4568 88.6464 40.3236C88.4553 40.1904 88.2143 40.1238 87.9235 40.1238C87.6306 40.1238 87.3876 40.1904 87.1944 40.3236C87.0033 40.4568 86.861 40.6335 86.7675 40.8538C86.6761 41.0722 86.6304 41.312 86.6304 41.573C86.6304 41.8359 86.6761 42.0765 86.7675 42.295C86.861 42.5134 87.0033 42.6884 87.1944 42.8198C87.3876 42.9512 87.6306 43.0169 87.9235 43.0169Z" fill="#F3F0FE"/>
<path d="M91.8597 41.1734V43.603H90.9281V39.5111H91.8223V40.1771H91.8815C91.9916 39.9604 92.1641 39.7864 92.3988 39.655C92.6356 39.5235 92.9337 39.4578 93.293 39.4578C93.6192 39.4578 93.9048 39.5164 94.1499 39.6337C94.395 39.7491 94.5851 39.9214 94.7201 40.1505C94.8552 40.3796 94.9227 40.6628 94.9227 41.0003V43.603H93.991V41.0962C93.991 40.7996 93.9006 40.5678 93.7199 40.4009C93.5392 40.2322 93.291 40.1478 92.9752 40.1478C92.7592 40.1478 92.567 40.1878 92.3988 40.2677C92.2326 40.3476 92.1007 40.4648 92.0031 40.6193C91.9075 40.7721 91.8597 40.9568 91.8597 41.1734Z" fill="#F3F0FE"/>
<path d="M96.5227 43.6536C96.3524 43.6536 96.206 43.6021 96.0834 43.4991C95.9608 43.3943 95.8996 43.2682 95.8996 43.1208C95.8996 42.9752 95.9608 42.8509 96.0834 42.7479C96.206 42.6431 96.3524 42.5907 96.5227 42.5907C96.6931 42.5907 96.8395 42.6431 96.9621 42.7479C97.0846 42.8509 97.1459 42.9752 97.1459 43.1208C97.1459 43.2185 97.1168 43.3082 97.0587 43.3899C97.0026 43.4698 96.9278 43.5337 96.8343 43.5817C96.7408 43.6296 96.637 43.6536 96.5227 43.6536Z" fill="#F3F0FE"/>
<path d="M105.462 39.9214H104.489C104.452 39.7438 104.382 39.5875 104.281 39.4525C104.179 39.3175 104.054 39.203 103.907 39.1089C103.759 39.0147 103.594 38.9437 103.411 38.8957C103.231 38.8478 103.038 38.8238 102.835 38.8238C102.467 38.8238 102.138 38.9028 101.847 39.0609C101.558 39.219 101.33 39.4507 101.162 39.7562C100.995 40.0617 100.912 40.4346 100.912 40.8751C100.912 41.3191 100.995 41.6938 101.162 41.9993C101.33 42.3047 101.559 42.5356 101.85 42.6919C102.141 42.8482 102.468 42.9263 102.832 42.9263C103.033 42.9263 103.224 42.9032 103.405 42.8571C103.588 42.8091 103.753 42.739 103.901 42.6466C104.048 42.5543 104.173 42.4415 104.274 42.3083C104.378 42.1733 104.45 42.0188 104.489 41.8448L105.462 41.8474C105.41 42.1156 105.309 42.3625 105.159 42.588C105.012 42.8118 104.822 43.0054 104.589 43.1688C104.359 43.3304 104.095 43.4556 103.798 43.5444C103.501 43.6332 103.177 43.6776 102.826 43.6776C102.273 43.6776 101.781 43.5657 101.349 43.3419C100.917 43.1164 100.576 42.794 100.327 42.3749C100.079 41.9558 99.9558 41.4558 99.9558 40.8751C99.9558 40.2925 100.08 39.7926 100.33 39.3753C100.579 38.9561 100.92 38.6347 101.352 38.4109C101.784 38.1853 102.275 38.0726 102.826 38.0726C103.164 38.0726 103.48 38.1143 103.773 38.1978C104.068 38.2795 104.333 38.4002 104.567 38.5601C104.802 38.7181 104.996 38.9117 105.15 39.1408C105.304 39.3681 105.408 39.6283 105.462 39.9214Z" fill="#F3F0FE"/>
<path d="M108.292 43.6856C107.843 43.6856 107.451 43.5977 107.117 43.4218C106.783 43.246 106.523 43 106.338 42.6839C106.153 42.3678 106.061 41.9984 106.061 41.5757C106.061 41.1512 106.153 40.7801 106.338 40.4622C106.523 40.1443 106.783 39.8974 107.117 39.7216C107.451 39.5457 107.843 39.4578 108.292 39.4578C108.74 39.4578 109.132 39.5457 109.466 39.7216C109.801 39.8974 110.06 40.1443 110.245 40.4622C110.43 40.7801 110.523 41.1512 110.523 41.5757C110.523 41.9984 110.43 42.3678 110.245 42.6839C110.06 43 109.801 43.246 109.466 43.4218C109.132 43.5977 108.74 43.6856 108.292 43.6856ZM108.295 43.0169C108.586 43.0169 108.827 42.9512 109.018 42.8198C109.209 42.6884 109.35 42.5134 109.441 42.295C109.535 42.0765 109.582 41.8359 109.582 41.573C109.582 41.312 109.535 41.0722 109.441 40.8538C109.35 40.6335 109.209 40.4568 109.018 40.3236C108.827 40.1904 108.586 40.1238 108.295 40.1238C108.002 40.1238 107.759 40.1904 107.566 40.3236C107.375 40.4568 107.232 40.6335 107.139 40.8538C107.047 41.0722 107.002 41.312 107.002 41.573C107.002 41.8359 107.047 42.0765 107.139 42.295C107.232 42.5134 107.375 42.6884 107.566 42.8198C107.759 42.9512 108.002 43.0169 108.295 43.0169Z" fill="#F3F0FE"/>
<path d="M111.299 43.603V39.5111H112.194V40.1771H112.253C112.353 39.9516 112.516 39.7757 112.742 39.6496C112.968 39.5218 113.239 39.4578 113.555 39.4578C113.875 39.4578 114.143 39.5218 114.359 39.6496C114.577 39.7775 114.738 39.9533 114.842 40.1771H114.892C115.006 39.9587 115.188 39.7846 115.437 39.655C115.687 39.5235 115.984 39.4578 116.328 39.4578C116.763 39.4578 117.117 39.5742 117.391 39.8068C117.667 40.0395 117.805 40.3902 117.805 40.8591V43.603H116.874V40.9337C116.874 40.6566 116.785 40.4559 116.609 40.3316C116.432 40.2073 116.221 40.1451 115.976 40.1451C115.673 40.1451 115.437 40.2251 115.269 40.3849C115.101 40.543 115.017 40.7463 115.017 40.995V43.603H114.088V40.8831C114.088 40.6611 114.007 40.4826 113.845 40.3476C113.683 40.2126 113.472 40.1451 113.212 40.1451C113.036 40.1451 112.873 40.1851 112.723 40.265C112.576 40.3432 112.456 40.4524 112.365 40.5927C112.276 40.733 112.231 40.8955 112.231 41.0802V43.603H111.299Z" fill="#F3F0FE"/>
<path d="M118.791 45.1374V39.5111H119.701V40.1744H119.779C119.833 40.0892 119.91 39.9906 120.012 39.8787C120.114 39.7669 120.255 39.6692 120.436 39.5857C120.617 39.5005 120.856 39.4578 121.153 39.4578C121.539 39.4578 121.884 39.5413 122.187 39.7082C122.49 39.8752 122.728 40.1158 122.901 40.4302C123.075 40.7445 123.162 41.1228 123.162 41.565C123.162 42.0073 123.076 42.3864 122.904 42.7026C122.731 43.0169 122.495 43.2593 122.193 43.4298C121.892 43.5985 121.548 43.6829 121.162 43.6829C120.871 43.6829 120.633 43.6412 120.448 43.5577C120.266 43.4742 120.122 43.3765 120.018 43.2647C119.915 43.1528 119.835 43.0533 119.779 42.9663H119.722V45.1374H118.791ZM119.704 41.5571C119.704 41.8448 119.753 42.097 119.85 42.3136C119.948 42.5303 120.089 42.6999 120.274 42.8224C120.459 42.9432 120.685 43.0036 120.953 43.0036C121.232 43.0036 121.464 42.9405 121.651 42.8144C121.838 42.6866 121.979 42.5134 122.075 42.295C122.173 42.0765 122.221 41.8306 122.221 41.5571C122.221 41.2871 122.174 41.0447 122.078 40.8298C121.985 40.6149 121.843 40.4453 121.654 40.321C121.467 40.1966 121.234 40.1345 120.953 40.1345C120.683 40.1345 120.455 40.194 120.268 40.313C120.083 40.432 119.943 40.598 119.847 40.8111C119.752 41.0243 119.704 41.2729 119.704 41.5571Z" fill="#F3F0FE"/>
<path d="M125.336 43.6936C125.033 43.6936 124.758 43.6456 124.513 43.5497C124.268 43.452 124.074 43.3108 123.931 43.1261C123.789 42.9414 123.719 42.715 123.719 42.4468C123.719 42.2159 123.771 42.0259 123.874 41.8767C123.978 41.7275 124.119 41.6094 124.295 41.5224C124.472 41.4354 124.669 41.3697 124.887 41.3253C125.105 41.2809 125.327 41.2471 125.554 41.2241C125.841 41.1956 126.073 41.1726 126.252 41.1548C126.431 41.1353 126.56 41.1042 126.641 41.0616C126.722 41.0189 126.763 40.9497 126.763 40.8538V40.8351C126.763 40.6025 126.686 40.4222 126.532 40.2943C126.381 40.1665 126.154 40.1025 125.853 40.1025C125.539 40.1025 125.292 40.162 125.111 40.281C124.933 40.3982 124.809 40.5288 124.741 40.6726L123.865 40.5021C123.969 40.2535 124.121 40.0528 124.32 39.9001C124.521 39.7455 124.753 39.6337 125.015 39.5644C125.277 39.4934 125.552 39.4578 125.841 39.4578C126.032 39.4578 126.234 39.4774 126.448 39.5164C126.664 39.5537 126.866 39.623 127.053 39.7242C127.242 39.8255 127.396 39.9702 127.517 40.1585C127.637 40.3449 127.698 40.5874 127.698 40.8857V43.603H126.788V43.0436H126.75C126.69 43.1466 126.6 43.2478 126.479 43.3472C126.359 43.4467 126.204 43.5293 126.015 43.595C125.826 43.6607 125.6 43.6936 125.336 43.6936ZM125.538 43.0542C125.796 43.0542 126.016 43.0107 126.199 42.9237C126.384 42.8366 126.524 42.723 126.62 42.5827C126.717 42.4406 126.766 42.2888 126.766 42.1271V41.5997C126.733 41.6281 126.668 41.6547 126.573 41.6796C126.479 41.7027 126.372 41.7231 126.252 41.7409C126.131 41.7569 126.014 41.7719 125.9 41.7862C125.786 41.7986 125.69 41.8092 125.613 41.8181C125.432 41.8377 125.267 41.8705 125.118 41.9167C124.97 41.9629 124.852 42.0295 124.762 42.1165C124.675 42.2017 124.632 42.3154 124.632 42.4575C124.632 42.6546 124.717 42.8038 124.887 42.905C125.057 43.0045 125.275 43.0542 125.538 43.0542Z" fill="#F3F0FE"/>
<path d="M132.262 40.5101L131.417 40.638C131.382 40.5456 131.326 40.4577 131.249 40.3742C131.174 40.2908 131.072 40.2224 130.944 40.1691C130.815 40.1158 130.654 40.0892 130.461 40.0892C130.197 40.0892 129.977 40.1398 129.8 40.241C129.624 40.3405 129.535 40.4693 129.535 40.6273C129.535 40.7641 129.594 40.8742 129.713 40.9577C129.831 41.0411 130.022 41.1095 130.286 41.1628L131.047 41.312C131.487 41.399 131.815 41.5331 132.031 41.7142C132.247 41.8954 132.355 42.1307 132.355 42.4202C132.355 42.6653 132.272 42.8837 132.106 43.0755C131.942 43.2656 131.712 43.4147 131.417 43.5231C131.124 43.6314 130.785 43.6856 130.398 43.6856C129.862 43.6856 129.425 43.5879 129.087 43.3925C128.748 43.1954 128.54 42.9157 128.463 42.5534L129.364 42.4362C129.42 42.6369 129.535 42.7887 129.71 42.8917C129.884 42.9929 130.112 43.0436 130.392 43.0436C130.698 43.0436 130.942 42.9894 131.124 42.881C131.307 42.7709 131.399 42.6369 131.399 42.4788C131.399 42.3509 131.343 42.2435 131.23 42.1564C131.12 42.0694 130.951 42.0037 130.722 41.9593L129.912 41.8075C129.466 41.7204 129.135 41.5819 128.921 41.3919C128.71 41.2019 128.604 40.9612 128.604 40.6699C128.604 40.4284 128.683 40.2171 128.84 40.0359C128.998 39.8548 129.216 39.7136 129.495 39.6123C129.773 39.5093 130.092 39.4578 130.451 39.4578C130.969 39.4578 131.376 39.5537 131.673 39.7455C131.97 39.9356 132.166 40.1904 132.262 40.5101Z" fill="#F3F0FE"/>
<path d="M136.703 40.5101L135.858 40.638C135.823 40.5456 135.767 40.4577 135.69 40.3742C135.615 40.2908 135.513 40.2224 135.385 40.1691C135.256 40.1158 135.095 40.0892 134.902 40.0892C134.638 40.0892 134.418 40.1398 134.241 40.241C134.065 40.3405 133.976 40.4693 133.976 40.6273C133.976 40.7641 134.035 40.8742 134.154 40.9577C134.272 41.0411 134.463 41.1095 134.727 41.1628L135.488 41.312C135.928 41.399 136.256 41.5331 136.472 41.7142C136.688 41.8954 136.796 42.1307 136.796 42.4202C136.796 42.6653 136.713 42.8837 136.547 43.0755C136.383 43.2656 136.153 43.4147 135.858 43.5231C135.565 43.6314 135.226 43.6856 134.839 43.6856C134.303 43.6856 133.866 43.5879 133.528 43.3925C133.189 43.1954 132.981 42.9157 132.904 42.5534L133.805 42.4362C133.861 42.6369 133.976 42.7887 134.151 42.8917C134.325 42.9929 134.553 43.0436 134.833 43.0436C135.139 43.0436 135.383 42.9894 135.565 42.881C135.748 42.7709 135.84 42.6369 135.84 42.4788C135.84 42.3509 135.784 42.2435 135.671 42.1564C135.561 42.0694 135.392 42.0037 135.163 41.9593L134.353 41.8075C133.907 41.7204 133.576 41.5819 133.362 41.3919C133.151 41.2019 133.045 40.9612 133.045 40.6699C133.045 40.4284 133.124 40.2171 133.281 40.0359C133.439 39.8548 133.657 39.7136 133.936 39.6123C134.214 39.5093 134.533 39.4578 134.892 39.4578C135.41 39.4578 135.817 39.5537 136.114 39.7455C136.411 39.9356 136.607 40.1904 136.703 40.5101Z" fill="#F3F0FE"/>
<path d="M137.557 43.603V39.5111H138.489V43.603H137.557ZM138.028 38.8798C137.866 38.8798 137.727 38.8336 137.61 38.7412C137.496 38.6471 137.439 38.5352 137.439 38.4056C137.439 38.2741 137.496 38.1623 137.61 38.0699C137.727 37.9758 137.866 37.9287 138.028 37.9287C138.19 37.9287 138.328 37.9758 138.442 38.0699C138.559 38.1623 138.617 38.2741 138.617 38.4056C138.617 38.5352 138.559 38.6471 138.442 38.7412C138.328 38.8336 138.19 38.8798 138.028 38.8798Z" fill="#F3F0FE"/>
<path d="M141.495 43.6856C141.046 43.6856 140.655 43.5977 140.32 43.4218C139.986 43.246 139.726 43 139.541 42.6839C139.357 42.3678 139.264 41.9984 139.264 41.5757C139.264 41.1512 139.357 40.7801 139.541 40.4622C139.726 40.1443 139.986 39.8974 140.32 39.7216C140.655 39.5457 141.046 39.4578 141.495 39.4578C141.944 39.4578 142.335 39.5457 142.67 39.7216C143.004 39.8974 143.264 40.1443 143.449 40.4622C143.634 40.7801 143.726 41.1512 143.726 41.5757C143.726 41.9984 143.634 42.3678 143.449 42.6839C143.264 43 143.004 43.246 142.67 43.4218C142.335 43.5977 141.944 43.6856 141.495 43.6856ZM141.498 43.0169C141.789 43.0169 142.03 42.9512 142.221 42.8198C142.412 42.6884 142.553 42.5134 142.645 42.295C142.738 42.0765 142.785 41.8359 142.785 41.573C142.785 41.312 142.738 41.0722 142.645 40.8538C142.553 40.6335 142.412 40.4568 142.221 40.3236C142.03 40.1904 141.789 40.1238 141.498 40.1238C141.205 40.1238 140.962 40.1904 140.769 40.3236C140.578 40.4568 140.436 40.6335 140.342 40.8538C140.251 41.0722 140.205 41.312 140.205 41.573C140.205 41.8359 140.251 42.0765 140.342 42.295C140.436 42.5134 140.578 42.6884 140.769 42.8198C140.962 42.9512 141.205 43.0169 141.498 43.0169Z" fill="#F3F0FE"/>
<path d="M145.434 41.1734V43.603H144.503V39.5111H145.397V40.1771H145.456C145.566 39.9604 145.739 39.7864 145.973 39.655C146.21 39.5235 146.508 39.4578 146.868 39.4578C147.194 39.4578 147.479 39.5164 147.725 39.6337C147.97 39.7491 148.16 39.9214 148.295 40.1505C148.43 40.3796 148.497 40.6628 148.497 41.0003V43.603H147.566V41.0962C147.566 40.7996 147.475 40.5678 147.295 40.4009C147.114 40.2322 146.866 40.1478 146.55 40.1478C146.334 40.1478 146.142 40.1878 145.973 40.2677C145.807 40.3476 145.675 40.4648 145.578 40.6193C145.482 40.7721 145.434 40.9568 145.434 41.1734Z" fill="#F3F0FE"/>
<path d="M152.935 43.6936C152.632 43.6936 152.358 43.6456 152.113 43.5497C151.868 43.452 151.673 43.3108 151.53 43.1261C151.389 42.9414 151.318 42.715 151.318 42.4468C151.318 42.2159 151.37 42.0259 151.474 41.8767C151.578 41.7275 151.718 41.6094 151.895 41.5224C152.071 41.4354 152.268 41.3697 152.487 41.3253C152.705 41.2809 152.927 41.2471 153.153 41.2241C153.44 41.1956 153.673 41.1726 153.851 41.1548C154.03 41.1353 154.16 41.1042 154.241 41.0616C154.322 41.0189 154.362 40.9497 154.362 40.8538V40.8351C154.362 40.6025 154.285 40.4222 154.132 40.2943C153.98 40.1665 153.754 40.1025 153.453 40.1025C153.139 40.1025 152.892 40.162 152.711 40.281C152.532 40.3982 152.409 40.5288 152.34 40.6726L151.465 40.5021C151.568 40.2535 151.72 40.0528 151.919 39.9001C152.121 39.7455 152.353 39.6337 152.614 39.5644C152.876 39.4934 153.151 39.4578 153.44 39.4578C153.631 39.4578 153.834 39.4774 154.048 39.5164C154.264 39.5537 154.465 39.623 154.652 39.7242C154.841 39.8255 154.996 39.9702 155.116 40.1585C155.237 40.3449 155.297 40.5874 155.297 40.8857V43.603H154.387V43.0436H154.35C154.29 43.1466 154.199 43.2478 154.079 43.3472C153.958 43.4467 153.804 43.5293 153.615 43.595C153.425 43.6607 153.199 43.6936 152.935 43.6936ZM153.138 43.0542C153.395 43.0542 153.616 43.0107 153.798 42.9237C153.983 42.8366 154.123 42.723 154.219 42.5827C154.317 42.4406 154.365 42.2888 154.365 42.1271V41.5997C154.332 41.6281 154.268 41.6547 154.172 41.6796C154.079 41.7027 153.972 41.7231 153.851 41.7409C153.731 41.7569 153.613 41.7719 153.499 41.7862C153.385 41.7986 153.289 41.8092 153.213 41.8181C153.032 41.8377 152.867 41.8705 152.717 41.9167C152.57 41.9629 152.451 42.0295 152.362 42.1165C152.275 42.2017 152.231 42.3154 152.231 42.4575C152.231 42.6546 152.316 42.8038 152.487 42.905C152.657 43.0045 152.874 43.0542 153.138 43.0542Z" fill="#F3F0FE"/>
<path d="M157.206 41.1734V43.603H156.275V39.5111H157.169V40.1771H157.228C157.338 39.9604 157.511 39.7864 157.745 39.655C157.982 39.5235 158.28 39.4578 158.64 39.4578C158.966 39.4578 159.252 39.5164 159.497 39.6337C159.742 39.7491 159.932 39.9214 160.067 40.1505C160.202 40.3796 160.269 40.6628 160.269 41.0003V43.603H159.338V41.0962C159.338 40.7996 159.247 40.5678 159.067 40.4009C158.886 40.2322 158.638 40.1478 158.322 40.1478C158.106 40.1478 157.914 40.1878 157.745 40.2677C157.579 40.3476 157.447 40.4648 157.35 40.6193C157.254 40.7721 157.206 40.9568 157.206 41.1734Z" fill="#F3F0FE"/>
<path d="M163.047 43.6829C162.661 43.6829 162.316 43.5985 162.013 43.4298C161.712 43.2593 161.475 43.0169 161.302 42.7026C161.132 42.3864 161.047 42.0073 161.047 41.565C161.047 41.1228 161.133 40.7445 161.305 40.4302C161.48 40.1158 161.719 39.8752 162.022 39.7082C162.325 39.5413 162.669 39.4578 163.053 39.4578C163.351 39.4578 163.589 39.5005 163.77 39.5857C163.953 39.6692 164.094 39.7669 164.194 39.8787C164.296 39.9906 164.375 40.0892 164.431 40.1744H164.487V38.1472H165.418V43.603H164.509V42.9663H164.431C164.375 43.0533 164.294 43.1528 164.188 43.2647C164.084 43.3765 163.94 43.4742 163.758 43.5577C163.575 43.6412 163.338 43.6829 163.047 43.6829ZM163.253 43.0036C163.521 43.0036 163.747 42.9432 163.932 42.8224C164.119 42.6999 164.26 42.5303 164.356 42.3136C164.454 42.097 164.502 41.8448 164.502 41.5571C164.502 41.2729 164.455 41.0243 164.359 40.8111C164.263 40.598 164.123 40.432 163.938 40.313C163.754 40.194 163.525 40.1345 163.253 40.1345C162.972 40.1345 162.739 40.1966 162.552 40.321C162.365 40.4453 162.224 40.6149 162.128 40.8298C162.035 41.0447 161.988 41.2871 161.988 41.5571C161.988 41.8306 162.036 42.0765 162.131 42.295C162.227 42.5134 162.368 42.6866 162.555 42.8144C162.744 42.9405 162.977 43.0036 163.253 43.0036Z" fill="#F3F0FE"/>
<path d="M173.919 39.9214H172.947C172.909 39.7438 172.84 39.5875 172.738 39.4525C172.636 39.3175 172.511 39.203 172.364 39.1089C172.216 39.0147 172.051 38.9437 171.868 38.8957C171.688 38.8478 171.496 38.8238 171.292 38.8238C170.924 38.8238 170.595 38.9028 170.304 39.0609C170.016 39.219 169.787 39.4507 169.619 39.7562C169.453 40.0617 169.37 40.4346 169.37 40.8751C169.37 41.3191 169.453 41.6938 169.619 41.9993C169.787 42.3047 170.017 42.5356 170.307 42.6919C170.598 42.8482 170.925 42.9263 171.289 42.9263C171.49 42.9263 171.682 42.9032 171.862 42.8571C172.045 42.8091 172.21 42.739 172.358 42.6466C172.505 42.5543 172.63 42.4415 172.732 42.3083C172.835 42.1733 172.907 42.0188 172.947 41.8448L173.919 41.8474C173.867 42.1156 173.766 42.3625 173.616 42.588C173.469 42.8118 173.279 43.0054 173.046 43.1688C172.816 43.3304 172.552 43.4556 172.255 43.5444C171.958 43.6332 171.634 43.6776 171.283 43.6776C170.73 43.6776 170.238 43.5657 169.806 43.3419C169.374 43.1164 169.033 42.794 168.784 42.3749C168.537 41.9558 168.413 41.4558 168.413 40.8751C168.413 40.2925 168.538 39.7926 168.787 39.3753C169.036 38.9561 169.377 38.6347 169.809 38.4109C170.241 38.1853 170.732 38.0726 171.283 38.0726C171.621 38.0726 171.937 38.1143 172.23 38.1978C172.525 38.2795 172.79 38.4002 173.024 38.5601C173.259 38.7181 173.453 38.9117 173.607 39.1408C173.761 39.3681 173.865 39.6283 173.919 39.9214Z" fill="#F3F0FE"/>
<path d="M176.126 43.6936C175.822 43.6936 175.548 43.6456 175.303 43.5497C175.058 43.452 174.864 43.3108 174.72 43.1261C174.579 42.9414 174.508 42.715 174.508 42.4468C174.508 42.2159 174.56 42.0259 174.664 41.8767C174.768 41.7275 174.908 41.6094 175.085 41.5224C175.261 41.4354 175.459 41.3697 175.677 41.3253C175.895 41.2809 176.117 41.2471 176.344 41.2241C176.63 41.1956 176.863 41.1726 177.042 41.1548C177.22 41.1353 177.35 41.1042 177.431 41.0616C177.512 41.0189 177.553 40.9497 177.553 40.8538V40.8351C177.553 40.6025 177.476 40.4222 177.322 40.2943C177.17 40.1665 176.944 40.1025 176.643 40.1025C176.329 40.1025 176.082 40.162 175.901 40.281C175.723 40.3982 175.599 40.5288 175.53 40.6726L174.655 40.5021C174.759 40.2535 174.91 40.0528 175.11 39.9001C175.311 39.7455 175.543 39.6337 175.805 39.5644C176.066 39.4934 176.342 39.4578 176.63 39.4578C176.822 39.4578 177.024 39.4774 177.238 39.5164C177.454 39.5537 177.656 39.623 177.842 39.7242C178.032 39.8255 178.186 39.9702 178.307 40.1585C178.427 40.3449 178.487 40.5874 178.487 40.8857V43.603H177.578V43.0436H177.54C177.48 43.1466 177.39 43.2478 177.269 43.3472C177.149 43.4467 176.994 43.5293 176.805 43.595C176.616 43.6607 176.389 43.6936 176.126 43.6936ZM176.328 43.0542C176.586 43.0542 176.806 43.0107 176.989 42.9237C177.174 42.8366 177.314 42.723 177.409 42.5827C177.507 42.4406 177.556 42.2888 177.556 42.1271V41.5997C177.523 41.6281 177.458 41.6547 177.363 41.6796C177.269 41.7027 177.162 41.7231 177.042 41.7409C176.921 41.7569 176.804 41.7719 176.69 41.7862C176.575 41.7986 176.48 41.8092 176.403 41.8181C176.222 41.8377 176.057 41.8705 175.908 41.9167C175.76 41.9629 175.642 42.0295 175.552 42.1165C175.465 42.2017 175.421 42.3154 175.421 42.4575C175.421 42.6546 175.507 42.8038 175.677 42.905C175.847 43.0045 176.064 43.0542 176.328 43.0542Z" fill="#F3F0FE"/>
<path d="M179.465 43.603V39.5111H180.366V40.1611H180.415C180.503 39.9409 180.656 39.7677 180.877 39.6416C181.099 39.5138 181.35 39.4498 181.631 39.4498C181.689 39.4498 181.757 39.4516 181.836 39.4552C181.917 39.4587 181.981 39.4632 182.026 39.4685V40.2304C181.989 40.2215 181.923 40.2117 181.827 40.2011C181.731 40.1887 181.636 40.1824 181.54 40.1824C181.32 40.1824 181.124 40.2224 180.951 40.3023C180.781 40.3805 180.646 40.4897 180.546 40.63C180.447 40.7685 180.397 40.9266 180.397 41.1042V43.603H179.465Z" fill="#F3F0FE"/>
<path d="M184.461 43.6856C183.989 43.6856 183.583 43.5994 183.242 43.4272C182.904 43.2531 182.642 43.0089 182.457 42.6946C182.274 42.3784 182.183 42.0082 182.183 41.5837C182.183 41.1646 182.274 40.7952 182.457 40.4755C182.642 40.1558 182.9 39.9063 183.23 39.7269C183.562 39.5475 183.951 39.4578 184.395 39.4578C184.665 39.4578 184.927 39.496 185.181 39.5724C185.434 39.6488 185.661 39.7686 185.863 39.932C186.064 40.0954 186.223 40.3076 186.34 40.5687C186.456 40.828 186.514 41.1432 186.514 41.5144V41.7968H182.71V41.2001H185.601C185.601 40.9905 185.551 40.8049 185.452 40.6433C185.352 40.4799 185.212 40.3512 185.031 40.257C184.852 40.1629 184.643 40.1158 184.402 40.1158C184.14 40.1158 183.911 40.1709 183.716 40.281C183.523 40.3893 183.373 40.5314 183.267 40.7072C183.164 40.8813 183.112 41.0704 183.112 41.2747V41.7409C183.112 42.0144 183.168 42.247 183.28 42.4388C183.394 42.6306 183.553 42.7772 183.757 42.8784C183.96 42.9778 184.198 43.0276 184.47 43.0276C184.647 43.0276 184.808 43.0063 184.953 42.9636C185.098 42.9192 185.224 42.8535 185.33 42.7665C185.436 42.6795 185.517 42.572 185.573 42.4442L186.455 42.58C186.384 42.802 186.258 42.9965 186.075 43.1634C185.894 43.3286 185.667 43.4574 185.392 43.5497C185.12 43.6403 184.81 43.6856 184.461 43.6856Z" fill="#F3F0FE"/>
<path d="M189.957 42.9263C189.787 42.9263 189.641 42.8748 189.518 42.7718C189.395 42.667 189.334 42.5409 189.334 42.3935C189.334 42.2479 189.395 42.1236 189.518 42.0206C189.641 41.9158 189.787 41.8634 189.957 41.8634C190.128 41.8634 190.274 41.9158 190.397 42.0206C190.519 42.1236 190.581 42.2479 190.581 42.3935C190.581 42.4912 190.551 42.5809 190.493 42.6626C190.437 42.7425 190.362 42.8065 190.269 42.8544C190.175 42.9024 190.072 42.9263 189.957 42.9263ZM189.957 40.1931C189.787 40.1931 189.641 40.1416 189.518 40.0386C189.395 39.9338 189.334 39.8077 189.334 39.6603C189.334 39.5147 189.395 39.3903 189.518 39.2873C189.641 39.1826 189.787 39.1302 189.957 39.1302C190.128 39.1302 190.274 39.1826 190.397 39.2873C190.519 39.3903 190.581 39.5147 190.581 39.6603C190.581 39.758 190.551 39.8477 190.493 39.9294C190.437 40.0093 190.362 40.0732 190.269 40.1212C190.175 40.1691 190.072 40.1931 189.957 40.1931Z" fill="#F3F0FE"/>
<path d="M193.207 38.1472H194.3L195.967 40.6273H196.036L197.703 38.1472H198.796L196.481 41.4611V43.603H195.522V41.4611L193.207 38.1472Z" fill="#F3F0FE"/>
<path d="M200.595 43.6856C200.146 43.6856 199.755 43.5977 199.421 43.4218C199.086 43.246 198.826 43 198.642 42.6839C198.457 42.3678 198.364 41.9984 198.364 41.5757C198.364 41.1512 198.457 40.7801 198.642 40.4622C198.826 40.1443 199.086 39.8974 199.421 39.7216C199.755 39.5457 200.146 39.4578 200.595 39.4578C201.044 39.4578 201.435 39.5457 201.77 39.7216C202.104 39.8974 202.364 40.1443 202.549 40.4622C202.734 40.7801 202.826 41.1512 202.826 41.5757C202.826 41.9984 202.734 42.3678 202.549 42.6839C202.364 43 202.104 43.246 201.77 43.4218C201.435 43.5977 201.044 43.6856 200.595 43.6856ZM200.598 43.0169C200.889 43.0169 201.13 42.9512 201.321 42.8198C201.512 42.6884 201.654 42.5134 201.745 42.295C201.838 42.0765 201.885 41.8359 201.885 41.573C201.885 41.312 201.838 41.0722 201.745 40.8538C201.654 40.6335 201.512 40.4568 201.321 40.3236C201.13 40.1904 200.889 40.1238 200.598 40.1238C200.305 40.1238 200.062 40.1904 199.869 40.3236C199.678 40.4568 199.536 40.6335 199.442 40.8538C199.351 41.0722 199.305 41.312 199.305 41.573C199.305 41.8359 199.351 42.0765 199.442 42.295C199.536 42.5134 199.678 42.6884 199.869 42.8198C200.062 42.9512 200.305 43.0169 200.598 43.0169Z" fill="#F3F0FE"/>
<path d="M206.635 41.906V39.5111H207.569V43.603H206.653V42.8944H206.603C206.493 43.1128 206.317 43.2949 206.074 43.4405C205.833 43.5843 205.533 43.6563 205.173 43.6563C204.866 43.6563 204.594 43.5985 204.357 43.4831C204.122 43.3659 203.937 43.1927 203.802 42.9636C203.669 42.7345 203.603 42.4513 203.603 42.1138V39.5111H204.535V42.0179C204.535 42.2967 204.625 42.5187 204.806 42.6839C204.986 42.8491 205.221 42.9317 205.51 42.9317C205.684 42.9317 205.858 42.8944 206.03 42.8198C206.205 42.7452 206.349 42.6324 206.463 42.4815C206.58 42.3305 206.637 42.1387 206.635 41.906Z" fill="#F3F0FE"/>
<path d="M208.558 43.603V39.5111H209.458V40.1611H209.508C209.596 39.9409 209.749 39.7677 209.969 39.6416C210.192 39.5138 210.443 39.4498 210.724 39.4498C210.782 39.4498 210.85 39.4516 210.929 39.4552C211.01 39.4587 211.074 39.4632 211.119 39.4685V40.2304C211.082 40.2215 211.015 40.2117 210.92 40.2011C210.824 40.1887 210.729 40.1824 210.633 40.1824C210.413 40.1824 210.217 40.2224 210.044 40.3023C209.874 40.3805 209.739 40.4897 209.639 40.63C209.539 40.7685 209.49 40.9266 209.49 41.1042V43.603H208.558Z" fill="#F3F0FE"/>
<path d="M213.481 38.8558V38.1472H218.42V38.8558H216.429V43.603H215.469V38.8558H213.481Z" fill="#F3F0FE"/>
<path d="M218.676 43.603V39.5111H219.577V40.1611H219.627C219.714 39.9409 219.868 39.7677 220.088 39.6416C220.31 39.5138 220.561 39.4498 220.842 39.4498C220.9 39.4498 220.969 39.4516 221.047 39.4552C221.128 39.4587 221.192 39.4632 221.238 39.4685V40.2304C221.2 40.2215 221.134 40.2117 221.038 40.2011C220.943 40.1887 220.847 40.1824 220.751 40.1824C220.531 40.1824 220.335 40.2224 220.163 40.3023C219.992 40.3805 219.857 40.4897 219.757 40.63C219.658 40.7685 219.608 40.9266 219.608 41.1042V43.603H218.676Z" fill="#F3F0FE"/>
<path d="M224.812 41.906V39.5111H225.747V43.603H224.831V42.8944H224.781C224.671 43.1128 224.494 43.2949 224.251 43.4405C224.01 43.5843 223.71 43.6563 223.351 43.6563C223.044 43.6563 222.771 43.5985 222.535 43.4831C222.3 43.3659 222.115 43.1927 221.98 42.9636C221.847 42.7345 221.781 42.4513 221.781 42.1138V39.5111H222.712V42.0179C222.712 42.2967 222.803 42.5187 222.983 42.6839C223.164 42.8491 223.399 42.9317 223.687 42.9317C223.862 42.9317 224.035 42.8944 224.208 42.8198C224.382 42.7452 224.527 42.6324 224.641 42.4815C224.757 42.3305 224.814 42.1387 224.812 41.906Z" fill="#F3F0FE"/>
<path d="M230.322 40.5101L229.478 40.638C229.442 40.5456 229.386 40.4577 229.309 40.3742C229.235 40.2908 229.133 40.2224 229.004 40.1691C228.875 40.1158 228.714 40.0892 228.521 40.0892C228.257 40.0892 228.037 40.1398 227.86 40.241C227.684 40.3405 227.596 40.4693 227.596 40.6273C227.596 40.7641 227.655 40.8742 227.773 40.9577C227.892 41.0411 228.083 41.1095 228.347 41.1628L229.107 41.312C229.547 41.399 229.875 41.5331 230.091 41.7142C230.307 41.8954 230.416 42.1307 230.416 42.4202C230.416 42.6653 230.332 42.8837 230.166 43.0755C230.002 43.2656 229.773 43.4147 229.478 43.5231C229.185 43.6314 228.845 43.6856 228.459 43.6856C227.923 43.6856 227.486 43.5879 227.147 43.3925C226.808 43.1954 226.601 42.9157 226.524 42.5534L227.424 42.4362C227.48 42.6369 227.596 42.7887 227.77 42.8917C227.945 42.9929 228.172 43.0436 228.452 43.0436C228.758 43.0436 229.002 42.9894 229.185 42.881C229.368 42.7709 229.459 42.6369 229.459 42.4788C229.459 42.3509 229.403 42.2435 229.291 42.1564C229.181 42.0694 229.011 42.0037 228.783 41.9593L227.973 41.8075C227.526 41.7204 227.196 41.5819 226.982 41.3919C226.77 41.2019 226.664 40.9612 226.664 40.6699C226.664 40.4284 226.743 40.2171 226.901 40.0359C227.059 39.8548 227.277 39.7136 227.555 39.6123C227.833 39.5093 228.152 39.4578 228.512 39.4578C229.029 39.4578 229.436 39.5537 229.733 39.7455C230.03 39.9356 230.226 40.1904 230.322 40.5101Z" fill="#F3F0FE"/>
<path d="M233.411 39.5111V40.1505H230.796V39.5111H233.411ZM231.498 38.5308H232.429V42.4015C232.429 42.556 232.456 42.6724 232.51 42.7505C232.564 42.8269 232.634 42.8793 232.719 42.9077C232.806 42.9343 232.901 42.9476 233.003 42.9476C233.077 42.9476 233.143 42.9432 233.199 42.9343C233.255 42.9254 233.299 42.9183 233.33 42.913L233.498 43.571C233.444 43.5888 233.367 43.6065 233.267 43.6243C233.168 43.6438 233.043 43.6545 232.893 43.6563C232.648 43.6598 232.42 43.6225 232.208 43.5444C231.996 43.4662 231.825 43.3455 231.694 43.1821C231.563 43.0187 231.498 42.8136 231.498 42.5667V38.5308Z" fill="#F3F0FE"/>
<path d="M236.189 43.6856C235.718 43.6856 235.312 43.5994 234.971 43.4272C234.632 43.2531 234.371 43.0089 234.186 42.6946C234.003 42.3784 233.912 42.0082 233.912 41.5837C233.912 41.1646 234.003 40.7952 234.186 40.4755C234.371 40.1558 234.628 39.9063 234.959 39.7269C235.291 39.5475 235.679 39.4578 236.124 39.4578C236.394 39.4578 236.656 39.496 236.909 39.5724C237.163 39.6488 237.39 39.7686 237.592 39.932C237.793 40.0954 237.952 40.3076 238.068 40.5687C238.185 40.828 238.243 41.1432 238.243 41.5144V41.7968H234.438V41.2001H237.33C237.33 40.9905 237.28 40.8049 237.18 40.6433C237.081 40.4799 236.94 40.3512 236.76 40.257C236.581 40.1629 236.371 40.1158 236.13 40.1158C235.868 40.1158 235.64 40.1709 235.445 40.281C235.252 40.3893 235.102 40.5314 234.996 40.7072C234.892 40.8813 234.84 41.0704 234.84 41.2747V41.7409C234.84 42.0144 234.896 42.247 235.008 42.4388C235.123 42.6306 235.282 42.7772 235.485 42.8784C235.689 42.9778 235.927 43.0276 236.199 43.0276C236.375 43.0276 236.536 43.0063 236.682 42.9636C236.827 42.9192 236.953 42.8535 237.059 42.7665C237.165 42.6795 237.246 42.572 237.302 42.4442L238.184 42.58C238.113 42.802 237.986 42.9965 237.803 43.1634C237.623 43.3286 237.395 43.4574 237.121 43.5497C236.849 43.6403 236.538 43.6856 236.189 43.6856Z" fill="#F3F0FE"/>
<path d="M240.805 43.6829C240.419 43.6829 240.074 43.5985 239.77 43.4298C239.469 43.2593 239.232 43.0169 239.06 42.7026C238.89 42.3864 238.804 42.0073 238.804 41.565C238.804 41.1228 238.891 40.7445 239.063 40.4302C239.238 40.1158 239.476 39.8752 239.78 39.7082C240.083 39.5413 240.427 39.4578 240.811 39.4578C241.108 39.4578 241.347 39.5005 241.528 39.5857C241.711 39.6692 241.852 39.7669 241.952 39.8787C242.053 39.9906 242.132 40.0892 242.188 40.1744H242.244V38.1472H243.176V43.603H242.266V42.9663H242.188C242.132 43.0533 242.051 43.1528 241.945 43.2647C241.841 43.3765 241.698 43.4742 241.515 43.5577C241.333 43.6412 241.096 43.6829 240.805 43.6829ZM241.011 43.0036C241.279 43.0036 241.505 42.9432 241.69 42.8224C241.877 42.6999 242.018 42.5303 242.114 42.3136C242.211 42.097 242.26 41.8448 242.26 41.5571C242.26 41.2729 242.212 41.0243 242.117 40.8111C242.021 40.598 241.881 40.432 241.696 40.313C241.511 40.194 241.283 40.1345 241.011 40.1345C240.73 40.1345 240.496 40.1966 240.309 40.321C240.122 40.4453 239.981 40.6149 239.886 40.8298C239.792 41.0447 239.745 41.2871 239.745 41.5571C239.745 41.8306 239.793 42.0765 239.889 42.295C239.984 42.5134 240.126 42.6866 240.313 42.8144C240.502 42.9405 240.734 43.0036 241.011 43.0036Z" fill="#F3F0FE"/>
<path d="M249.857 39.5804C249.823 39.3282 249.686 39.1328 249.445 38.9943C249.204 38.854 248.901 38.7838 248.536 38.7838C248.274 38.7838 248.047 38.8194 247.856 38.8904C247.665 38.9597 247.517 39.0556 247.411 39.1781C247.307 39.2989 247.255 39.4365 247.255 39.591C247.255 39.7207 247.29 39.8326 247.361 39.9267C247.434 40.0208 247.528 40.0999 247.644 40.1638C247.763 40.2259 247.89 40.2783 248.025 40.321C248.16 40.3618 248.289 40.3956 248.414 40.4222L249.037 40.5607C249.241 40.6033 249.45 40.6611 249.663 40.7339C249.877 40.8067 250.076 40.9026 250.259 41.0216C250.441 41.1406 250.589 41.288 250.701 41.4638C250.815 41.6396 250.872 41.8501 250.872 42.0952C250.872 42.4042 250.779 42.6786 250.592 42.9183C250.407 43.1581 250.138 43.3472 249.785 43.4858C249.434 43.6243 249.009 43.6936 248.511 43.6936C248.033 43.6936 247.619 43.6287 247.27 43.4991C246.922 43.3694 246.648 43.1856 246.451 42.9476C246.254 42.7079 246.145 42.4237 246.124 42.0952H247.09C247.108 42.2923 247.183 42.4566 247.314 42.588C247.447 42.7177 247.616 42.8144 247.822 42.8784C248.03 42.9405 248.257 42.9716 248.504 42.9716C248.777 42.9716 249.018 42.9352 249.23 42.8624C249.444 42.7878 249.613 42.6848 249.735 42.5534C249.858 42.4202 249.919 42.2648 249.919 42.0872C249.919 41.9256 249.865 41.7933 249.757 41.6903C249.651 41.5872 249.507 41.502 249.324 41.4345C249.143 41.367 248.939 41.3075 248.71 41.256L247.956 41.0802C247.445 40.9612 247.04 40.7863 246.741 40.5554C246.444 40.3245 246.295 40.019 246.295 39.639C246.295 39.3246 246.395 39.0502 246.594 38.8158C246.794 38.5814 247.064 38.3993 247.404 38.2697C247.745 38.1383 248.129 38.0726 248.557 38.0726C248.989 38.0726 249.371 38.1374 249.701 38.267C250.033 38.3967 250.295 38.5752 250.486 38.8025C250.677 39.028 250.777 39.2873 250.785 39.5804H249.857Z" fill="#F3F0FE"/>
<path d="M254.717 41.906V39.5111H255.652V43.603H254.735V42.8944H254.686C254.576 43.1128 254.399 43.2949 254.156 43.4405C253.915 43.5843 253.615 43.6563 253.255 43.6563C252.948 43.6563 252.676 43.5985 252.439 43.4831C252.204 43.3659 252.019 43.1927 251.884 42.9636C251.751 42.7345 251.685 42.4513 251.685 42.1138V39.5111H252.617V42.0179C252.617 42.2967 252.707 42.5187 252.888 42.6839C253.068 42.8491 253.303 42.9317 253.592 42.9317C253.766 42.9317 253.94 42.8944 254.112 42.8198C254.287 42.7452 254.431 42.6324 254.545 42.4815C254.662 42.3305 254.719 42.1387 254.717 41.906Z" fill="#F3F0FE"/>
<path d="M256.64 43.603V39.5111H257.541V40.1611H257.59C257.678 39.9409 257.831 39.7677 258.052 39.6416C258.274 39.5138 258.525 39.4498 258.806 39.4498C258.864 39.4498 258.932 39.4516 259.011 39.4552C259.092 39.4587 259.156 39.4632 259.201 39.4685V40.2304C259.164 40.2215 259.098 40.2117 259.002 40.2011C258.906 40.1887 258.811 40.1824 258.715 40.1824C258.495 40.1824 258.299 40.2224 258.126 40.3023C257.956 40.3805 257.821 40.4897 257.721 40.63C257.622 40.7685 257.572 40.9266 257.572 41.1042V43.603H256.64Z" fill="#F3F0FE"/>
<path d="M261.58 45.2227C261.2 45.2227 260.872 45.1801 260.598 45.0948C260.326 45.0096 260.104 44.8968 259.931 44.7565C259.759 44.6162 259.63 44.4626 259.545 44.2956L260.346 44.0132C260.402 44.0914 260.477 44.174 260.57 44.261C260.666 44.3498 260.794 44.4253 260.956 44.4874C261.121 44.5496 261.331 44.5807 261.589 44.5807C261.942 44.5807 262.234 44.507 262.465 44.3596C262.695 44.2139 262.81 43.9813 262.81 43.6616V42.8571H262.751C262.695 42.9441 262.614 43.0409 262.508 43.1474C262.404 43.254 262.261 43.3464 262.078 43.4245C261.895 43.5026 261.658 43.5417 261.365 43.5417C260.987 43.5417 260.646 43.4662 260.343 43.3153C260.041 43.1625 259.803 42.9379 259.626 42.6413C259.451 42.3429 259.364 41.9762 259.364 41.5411C259.364 41.106 259.45 40.733 259.623 40.4222C259.797 40.1114 260.036 39.8734 260.34 39.7082C260.643 39.5413 260.987 39.4578 261.371 39.4578C261.668 39.4578 261.908 39.5005 262.091 39.5857C262.273 39.6692 262.416 39.7669 262.518 39.8787C262.621 39.9906 262.701 40.0892 262.757 40.1744H262.826V39.5111H263.739V43.6936C263.739 44.0452 263.643 44.3338 263.452 44.5594C263.261 44.7849 263.003 44.9518 262.676 45.0602C262.352 45.1685 261.987 45.2227 261.58 45.2227ZM261.57 42.881C261.838 42.881 262.065 42.8278 262.25 42.7212C262.437 42.6129 262.578 42.4584 262.673 42.2577C262.771 42.0552 262.82 41.8128 262.82 41.5304C262.82 41.2551 262.772 41.0127 262.676 40.8031C262.581 40.5936 262.441 40.4302 262.256 40.313C262.071 40.194 261.842 40.1345 261.57 40.1345C261.29 40.1345 261.056 40.1966 260.869 40.321C260.682 40.4435 260.541 40.6105 260.445 40.8218C260.352 41.0331 260.305 41.2693 260.305 41.5304C260.305 41.7986 260.353 42.0339 260.449 42.2364C260.544 42.4388 260.685 42.5969 260.872 42.7106C261.061 42.8242 261.294 42.881 261.57 42.881Z" fill="#F3F0FE"/>
<path d="M266.788 43.6856C266.316 43.6856 265.91 43.5994 265.57 43.4272C265.231 43.2531 264.969 43.0089 264.784 42.6946C264.602 42.3784 264.51 42.0082 264.51 41.5837C264.51 41.1646 264.602 40.7952 264.784 40.4755C264.969 40.1558 265.227 39.9063 265.557 39.7269C265.89 39.5475 266.278 39.4578 266.722 39.4578C266.993 39.4578 267.254 39.496 267.508 39.5724C267.761 39.6488 267.989 39.7686 268.19 39.932C268.392 40.0954 268.55 40.3076 268.667 40.5687C268.783 40.828 268.841 41.1432 268.841 41.5144V41.7968H265.037V41.2001H267.928C267.928 40.9905 267.878 40.8049 267.779 40.6433C267.679 40.4799 267.539 40.3512 267.358 40.257C267.179 40.1629 266.97 40.1158 266.729 40.1158C266.467 40.1158 266.238 40.1709 266.043 40.281C265.85 40.3893 265.7 40.5314 265.595 40.7072C265.491 40.8813 265.439 41.0704 265.439 41.2747V41.7409C265.439 42.0144 265.495 42.247 265.607 42.4388C265.721 42.6306 265.88 42.7772 266.084 42.8784C266.287 42.9778 266.525 43.0276 266.797 43.0276C266.974 43.0276 267.135 43.0063 267.28 42.9636C267.426 42.9192 267.551 42.8535 267.657 42.7665C267.763 42.6795 267.844 42.572 267.9 42.4442L268.782 42.58C268.711 42.802 268.585 42.9965 268.402 43.1634C268.221 43.3286 267.994 43.4574 267.72 43.5497C267.447 43.6403 267.137 43.6856 266.788 43.6856Z" fill="#F3F0FE"/>
<path d="M271.628 43.6856C271.179 43.6856 270.787 43.5977 270.453 43.4218C270.119 43.246 269.859 43 269.674 42.6839C269.489 42.3678 269.397 41.9984 269.397 41.5757C269.397 41.1512 269.489 40.7801 269.674 40.4622C269.859 40.1443 270.119 39.8974 270.453 39.7216C270.787 39.5457 271.179 39.4578 271.628 39.4578C272.076 39.4578 272.468 39.5457 272.802 39.7216C273.137 39.8974 273.397 40.1443 273.581 40.4622C273.766 40.7801 273.859 41.1512 273.859 41.5757C273.859 41.9984 273.766 42.3678 273.581 42.6839C273.397 43 273.137 43.246 272.802 43.4218C272.468 43.5977 272.076 43.6856 271.628 43.6856ZM271.631 43.0169C271.922 43.0169 272.163 42.9512 272.354 42.8198C272.545 42.6884 272.686 42.5134 272.778 42.295C272.871 42.0765 272.918 41.8359 272.918 41.573C272.918 41.312 272.871 41.0722 272.778 40.8538C272.686 40.6335 272.545 40.4568 272.354 40.3236C272.163 40.1904 271.922 40.1238 271.631 40.1238C271.338 40.1238 271.095 40.1904 270.902 40.3236C270.711 40.4568 270.568 40.6335 270.475 40.8538C270.383 41.0722 270.338 41.312 270.338 41.573C270.338 41.8359 270.383 42.0765 270.475 42.295C270.568 42.5134 270.711 42.6884 270.902 42.8198C271.095 42.9512 271.338 43.0169 271.631 43.0169Z" fill="#F3F0FE"/>
<path d="M275.567 41.1734V43.603H274.635V39.5111H275.53V40.1771H275.589C275.699 39.9604 275.871 39.7864 276.106 39.655C276.343 39.5235 276.641 39.4578 277 39.4578C277.327 39.4578 277.612 39.5164 277.857 39.6337C278.102 39.7491 278.292 39.9214 278.427 40.1505C278.562 40.3796 278.63 40.6628 278.63 41.0003V43.603H277.698V41.0962C277.698 40.7996 277.608 40.5678 277.427 40.4009C277.247 40.2322 276.998 40.1478 276.683 40.1478C276.467 40.1478 276.274 40.1878 276.106 40.2677C275.94 40.3476 275.808 40.4648 275.71 40.6193C275.615 40.7721 275.567 40.9568 275.567 41.1734Z" fill="#F3F0FE"/>
<path d="M20.6458 0.0615234H14.7236V14.7806H1.52588e-05V29.1227C0.295214 29.1227 0.590413 29.1091 0.885612 29.0955C19.2742 26.8247 21.3361 10.3844 21.3361 0.0615234H20.6458Z" fill="#615EFC"/>
<path d="M23.139 43.8464H29.0612V29.1273H43.7803V14.7852C43.4851 14.7852 43.1899 14.7988 42.8947 14.8124C24.5106 17.0877 22.4442 33.528 22.4442 43.8509H23.1345L23.139 43.8464Z" fill="#615EFC"/>
<path d="M29.0609 0.0615234H21.3358C21.3358 10.3844 19.2694 26.8247 0.88533 29.1C15.291 28.5369 29.0609 14.4854 29.0609 0.0615234Z" fill="#D6D2FF"/>
<path d="M14.7191 43.8471H22.4443C22.4443 33.5242 24.5107 17.0839 42.8947 14.8086C28.489 15.3672 14.7191 29.4187 14.7191 43.8471Z" fill="#D6D2FF"/>
</svg>
