<svg width="205" height="34" viewBox="0 0 205 34" fill="none" xmlns="http://www.w3.org/2000/svg">
<path d="M50.5053 19.4693H43.9395V1.05215H50.5596C52.4226 1.05215 54.0264 1.42085 55.3709 2.15826C56.7154 2.88966 57.7494 3.94181 58.473 5.3147C59.2025 6.68759 59.5673 8.33026 59.5673 10.2427C59.5673 12.1612 59.2025 13.8098 58.473 15.1887C57.7494 16.5676 56.7094 17.6257 55.3528 18.3631C54.0023 19.1006 52.3864 19.4693 50.5053 19.4693ZM47.8554 16.133H50.3425C51.5001 16.133 52.4739 15.9291 53.2637 15.5214C54.0595 15.1078 54.6564 14.4693 55.0544 13.606C55.4583 12.7367 55.6603 11.6156 55.6603 10.2427C55.6603 8.88182 55.4583 7.76972 55.0544 6.90642C54.6564 6.04311 54.0626 5.40763 53.2727 4.99996C52.4829 4.59229 51.5092 4.38845 50.3516 4.38845H47.8554V16.133Z" fill="#615EFC"/>
<path d="M62.3957 19.4693V5.65643H66.1308V8.06648H66.2755C66.5288 7.20917 66.9538 6.56169 67.5507 6.12405C68.1476 5.68041 68.835 5.45859 69.6127 5.45859C69.8057 5.45859 70.0137 5.47058 70.2368 5.49456C70.4598 5.51854 70.6558 5.55151 70.8246 5.59348V8.99273C70.6437 8.93877 70.3935 8.89081 70.074 8.84884C69.7544 8.80688 69.462 8.7859 69.1967 8.7859C68.63 8.7859 68.1235 8.9088 67.6773 9.1546C67.2372 9.3944 66.8875 9.73013 66.6283 10.1618C66.375 10.5934 66.2484 11.091 66.2484 11.6546V19.4693H62.3957Z" fill="#615EFC"/>
<path d="M73.4767 19.7031C72.8798 19.7031 72.3673 19.4932 71.9393 19.0736C71.5172 18.6479 71.3062 18.1383 71.3062 17.5448C71.3062 16.9573 71.5172 16.4537 71.9393 16.034C72.3673 15.6144 72.8798 15.4045 73.4767 15.4045C74.0555 15.4045 74.562 15.6144 74.9961 16.034C75.4302 16.4537 75.6473 16.9573 75.6473 17.5448C75.6473 17.9405 75.5448 18.3032 75.3398 18.6329C75.1408 18.9567 74.8785 19.2175 74.5529 19.4153C74.2274 19.6071 73.8686 19.7031 73.4767 19.7031Z" fill="#615EFC"/>
<path d="M95.3471 1.05215H99.2631V13.0125C99.2631 14.3554 98.9405 15.5304 98.2954 16.5376C97.6563 17.5448 96.7609 18.3302 95.6093 18.8937C94.4578 19.4513 93.1162 19.73 91.5848 19.73C90.0474 19.73 88.7028 19.4513 87.5513 18.8937C86.3997 18.3302 85.5043 17.5448 84.8652 16.5376C84.2261 15.5304 83.9066 14.3554 83.9066 13.0125V1.05215H87.8226V12.6797C87.8226 13.3812 87.9763 14.0047 88.2838 14.5502C88.5973 15.0958 89.0375 15.5244 89.6042 15.8362C90.171 16.1479 90.8312 16.3038 91.5848 16.3038C92.3445 16.3038 93.0047 16.1479 93.5654 15.8362C94.1322 15.5244 94.5693 15.0958 94.8768 14.5502C95.1903 14.0047 95.3471 13.3812 95.3471 12.6797V1.05215Z" fill="#615EFC"/>
<path d="M107.531 19.6941C106.476 19.6941 105.521 19.4243 104.665 18.8847C103.814 18.3392 103.139 17.5388 102.639 16.4837C102.144 15.4225 101.897 14.1216 101.897 12.5808C101.897 10.9981 102.153 9.68217 102.666 8.63302C103.178 7.57787 103.86 6.78951 104.71 6.26793C105.566 5.74036 106.503 5.47657 107.522 5.47657C108.3 5.47657 108.948 5.60847 109.467 5.87225C109.991 6.13004 110.413 6.45378 110.733 6.84347C111.059 7.22716 111.306 7.60485 111.475 7.97655H111.592V1.05215H115.436V19.4693H111.637V17.257H111.475C111.294 17.6407 111.037 18.0214 110.706 18.3991C110.38 18.7708 109.955 19.0796 109.431 19.3254C108.912 19.5712 108.279 19.6941 107.531 19.6941ZM108.752 16.6455C109.373 16.6455 109.898 16.4777 110.326 16.1419C110.76 15.8002 111.092 15.3236 111.321 14.7121C111.556 14.1006 111.674 13.3842 111.674 12.5628C111.674 11.7415 111.559 11.0281 111.33 10.4226C111.101 9.81706 110.769 9.34944 110.335 9.01971C109.901 8.68997 109.373 8.52511 108.752 8.52511C108.119 8.52511 107.586 8.69597 107.152 9.03769C106.717 9.37942 106.389 9.85303 106.166 10.4585C105.943 11.0641 105.831 11.7655 105.831 12.5628C105.831 13.3662 105.943 14.0766 106.166 14.6941C106.395 15.3056 106.724 15.7852 107.152 16.133C107.586 16.4747 108.119 16.6455 108.752 16.6455Z" fill="#615EFC"/>
<path d="M122.565 19.73C121.678 19.73 120.888 19.5772 120.195 19.2714C119.502 18.9597 118.953 18.501 118.549 17.8955C118.151 17.284 117.952 16.5226 117.952 15.6114C117.952 14.844 118.094 14.1995 118.377 13.6779C118.661 13.1564 119.047 12.7367 119.535 12.419C120.023 12.1012 120.578 11.8614 121.199 11.6995C121.826 11.5377 122.483 11.4238 123.171 11.3578C123.978 11.2739 124.63 11.1959 125.124 11.124C125.618 11.0461 125.977 10.9322 126.2 10.7823C126.423 10.6324 126.535 10.4106 126.535 10.1168V10.0629C126.535 9.49332 126.354 9.05268 125.992 8.74093C125.636 8.42918 125.13 8.27331 124.473 8.27331C123.779 8.27331 123.228 8.42619 122.818 8.73194C122.408 9.0317 122.137 9.40939 122.004 9.86502L118.441 9.57726C118.621 8.73793 118.977 8.01252 119.508 7.40102C120.038 6.78351 120.723 6.3099 121.561 5.98016C122.405 5.64444 123.382 5.47657 124.491 5.47657C125.263 5.47657 126.001 5.5665 126.707 5.74635C127.418 5.92621 128.048 6.20498 128.597 6.58268C129.152 6.96037 129.589 7.44598 129.908 8.0395C130.228 8.62702 130.388 9.33145 130.388 10.1528V19.4693H126.734V17.5538H126.625C126.402 17.9855 126.104 18.3661 125.73 18.6959C125.356 19.0196 124.907 19.2744 124.382 19.4603C123.858 19.6401 123.252 19.73 122.565 19.73ZM123.668 17.0862C124.235 17.0862 124.735 16.9753 125.169 16.7535C125.603 16.5256 125.944 16.2199 126.191 15.8362C126.438 15.4525 126.562 15.0179 126.562 14.5322V13.0664C126.441 13.1444 126.276 13.2163 126.065 13.2823C125.86 13.3422 125.627 13.3992 125.368 13.4531C125.109 13.5011 124.85 13.546 124.59 13.588C124.331 13.624 124.096 13.657 123.885 13.6869C123.433 13.7529 123.038 13.8578 122.7 14.0017C122.363 14.1456 122.1 14.3404 121.913 14.5862C121.727 14.826 121.633 15.1258 121.633 15.4855C121.633 16.0071 121.823 16.4057 122.203 16.6815C122.589 16.9513 123.077 17.0862 123.668 17.0862Z" fill="#615EFC"/>
<path d="M135.258 24.6491C134.769 24.6491 134.311 24.6101 133.883 24.5322C133.461 24.4602 133.111 24.3673 132.834 24.2534L133.702 21.3937C134.154 21.5316 134.561 21.6065 134.923 21.6185C135.291 21.6305 135.607 21.5466 135.873 21.3667C136.144 21.1869 136.364 20.8811 136.533 20.4495L136.759 19.8649L131.776 5.65643H135.827L138.703 15.8002H138.848L141.751 5.65643H145.83L140.431 20.962C140.171 21.7054 139.819 22.3529 139.373 22.9045C138.932 23.462 138.375 23.8907 137.7 24.1904C137.024 24.4962 136.21 24.6491 135.258 24.6491Z" fill="#615EFC"/>
<path d="M153.768 19.4693V1.05215H161.076C162.474 1.05215 163.668 1.30095 164.657 1.79855C165.652 2.29015 166.409 2.98858 166.927 3.89385C167.452 4.79312 167.714 5.85127 167.714 7.06828C167.714 8.2913 167.449 9.34344 166.918 10.2247C166.387 11.1 165.619 11.7715 164.612 12.2391C163.611 12.7067 162.399 12.9405 160.976 12.9405H156.083V9.81107H160.343C161.091 9.81107 161.712 9.70915 162.206 9.50531C162.701 9.30148 163.068 8.99573 163.309 8.58806C163.557 8.18038 163.68 7.67379 163.68 7.06828C163.68 6.45678 163.557 5.9412 163.309 5.52154C163.068 5.10187 162.698 4.78413 162.197 4.56831C161.703 4.34649 161.079 4.23558 160.325 4.23558H157.684V19.4693H153.768ZM163.771 11.088L168.374 19.4693H164.051L159.547 11.088H163.771Z" fill="#615EFC"/>
<path d="M174.37 19.73C173.484 19.73 172.694 19.5772 172.001 19.2714C171.307 18.9597 170.759 18.501 170.355 17.8955C169.957 17.284 169.758 16.5226 169.758 15.6114C169.758 14.844 169.899 14.1995 170.183 13.6779C170.466 13.1564 170.852 12.7367 171.34 12.419C171.829 12.1012 172.383 11.8614 173.005 11.6995C173.632 11.5377 174.289 11.4238 174.976 11.3578C175.784 11.2739 176.435 11.1959 176.93 11.124C177.424 11.0461 177.783 10.9322 178.006 10.7823C178.229 10.6324 178.34 10.4106 178.34 10.1168V10.0629C178.34 9.49332 178.16 9.05268 177.798 8.74093C177.442 8.42918 176.936 8.27331 176.278 8.27331C175.585 8.27331 175.033 8.42619 174.623 8.73194C174.213 9.0317 173.942 9.40939 173.809 9.86502L170.246 9.57726C170.427 8.73793 170.783 8.01252 171.313 7.40102C171.844 6.78351 172.528 6.3099 173.366 5.98016C174.21 5.64444 175.187 5.47657 176.296 5.47657C177.068 5.47657 177.807 5.5665 178.512 5.74635C179.224 5.92621 179.854 6.20498 180.402 6.58268C180.957 6.96037 181.394 7.44598 181.714 8.0395C182.033 8.62702 182.193 9.33145 182.193 10.1528V19.4693H178.539V17.5538H178.431C178.208 17.9855 177.909 18.3661 177.535 18.6959C177.162 19.0196 176.713 19.2744 176.188 19.4603C175.663 19.6401 175.057 19.73 174.37 19.73ZM175.473 17.0862C176.04 17.0862 176.541 16.9753 176.975 16.7535C177.409 16.5256 177.75 16.2199 177.997 15.8362C178.244 15.4525 178.368 15.0179 178.368 14.5322V13.0664C178.247 13.1444 178.081 13.2163 177.87 13.2823C177.665 13.3422 177.433 13.3992 177.174 13.4531C176.914 13.5011 176.655 13.546 176.396 13.588C176.137 13.624 175.902 13.657 175.691 13.6869C175.238 13.7529 174.843 13.8578 174.506 14.0017C174.168 14.1456 173.906 14.3404 173.719 14.5862C173.532 14.826 173.439 15.1258 173.439 15.4855C173.439 16.0071 173.629 16.4057 174.008 16.6815C174.394 16.9513 174.883 17.0862 175.473 17.0862Z" fill="#615EFC"/>
<path d="M197.635 5.65643L192.779 19.4693H188.438L183.581 5.65643H187.651L190.536 15.5394H190.681L193.557 5.65643H197.635Z" fill="#615EFC"/>
<path d="M199.607 19.4693V5.65643H203.46V19.4693H199.607ZM201.542 3.87587C200.97 3.87587 200.478 3.68702 200.068 3.30932C199.664 2.92563 199.462 2.46701 199.462 1.93344C199.462 1.40586 199.664 0.953229 200.068 0.575536C200.478 0.191845 200.97 0 201.542 0C202.115 0 202.604 0.191845 203.008 0.575536C203.418 0.953229 203.623 1.40586 203.623 1.93344C203.623 2.46701 203.418 2.92563 203.008 3.30932C202.604 3.68702 202.115 3.87587 201.542 3.87587Z" fill="#615EFC"/>
<path d="M43.9395 32.0328V28.0246H45.6105C45.9752 28.0246 46.2774 28.0814 46.517 28.1949C46.7565 28.3084 46.9359 28.4637 47.0549 28.6607C47.1739 28.8564 47.2334 29.0769 47.2334 29.3222C47.2334 29.5688 47.1732 29.7906 47.0526 29.9876C46.9336 30.1833 46.7535 30.3386 46.5124 30.4534C46.2728 30.5669 45.9714 30.6237 45.6082 30.6237H44.4591V30.1109H45.5441C45.7745 30.1109 45.9615 30.077 46.1049 30.0091C46.2484 29.94 46.3537 29.846 46.4208 29.7273C46.488 29.6086 46.5215 29.4735 46.5215 29.3222C46.5215 29.1708 46.488 29.0365 46.4208 28.919C46.3537 28.8016 46.2476 28.7096 46.1026 28.6431C45.9592 28.5765 45.77 28.5433 45.5349 28.5433H44.6468V32.0328H43.9395Z" fill="black"/>
<path d="M47.8143 32.0328V29.0267H48.4759V29.5042H48.5125C48.5766 29.3424 48.6895 29.2152 48.8513 29.1226C49.0146 29.0286 49.1992 28.9817 49.4053 28.9817C49.448 28.9817 49.4983 28.983 49.5563 28.9856C49.6158 28.9882 49.6624 28.9914 49.696 28.9954V29.5551C49.6685 29.5486 49.6197 29.5414 49.5495 29.5336C49.4793 29.5244 49.4091 29.5199 49.3389 29.5199C49.1771 29.5199 49.0329 29.5492 48.9062 29.6079C48.7811 29.6653 48.6819 29.7456 48.6087 29.8486C48.5354 29.9504 48.4988 30.0665 48.4988 30.197V32.0328H47.8143Z" fill="black"/>
<path d="M51.4844 32.0934C51.1379 32.0934 50.8396 32.0301 50.5893 31.9036C50.3406 31.7757 50.1483 31.5963 50.0125 31.3654C49.8782 31.1331 49.811 30.8611 49.811 30.5493C49.811 30.2414 49.8782 29.97 50.0125 29.7351C50.1483 29.5003 50.3375 29.317 50.5802 29.1852C50.8243 29.0534 51.1097 28.9875 51.4363 28.9875C51.6347 28.9875 51.827 29.0156 52.0131 29.0717C52.1993 29.1278 52.3664 29.2159 52.5144 29.3359C52.6625 29.4559 52.7792 29.6118 52.8647 29.8036C52.9501 29.9941 52.9929 30.2257 52.9929 30.4984V30.7059H50.1979V30.2675H52.3222C52.3222 30.1135 52.2855 29.9772 52.2123 29.8584C52.139 29.7384 52.036 29.6438 51.9033 29.5747C51.772 29.5055 51.6179 29.4709 51.4409 29.4709C51.2486 29.4709 51.0807 29.5114 50.9373 29.5923C50.7953 29.6719 50.6855 29.7762 50.6076 29.9054C50.5313 30.0333 50.4932 30.1722 50.4932 30.3223V30.6648C50.4932 30.8657 50.5344 31.0366 50.6168 31.1775C50.7007 31.3184 50.8175 31.4261 50.967 31.5004C51.1166 31.5735 51.2913 31.61 51.4912 31.61C51.6209 31.61 51.7392 31.5944 51.846 31.5631C51.9529 31.5304 52.0452 31.4822 52.123 31.4182C52.2008 31.3543 52.2604 31.2754 52.3016 31.1814L52.9494 31.2812C52.8975 31.4443 52.8044 31.5872 52.6701 31.7098C52.5373 31.8312 52.3702 31.9258 52.1688 31.9936C51.9689 32.0602 51.7407 32.0934 51.4844 32.0934Z" fill="black"/>
<path d="M55.0399 32.0934C54.6996 32.0934 54.4066 32.0275 54.1609 31.8958C53.9167 31.7627 53.729 31.5794 53.5978 31.3458C53.4666 31.1123 53.4009 30.8448 53.4009 30.5434C53.4009 30.2381 53.4681 29.9687 53.6024 29.7351C53.7367 29.5003 53.9259 29.317 54.1701 29.1852C54.4142 29.0534 54.7019 28.9875 55.033 28.9875C55.3001 28.9875 55.5382 29.0299 55.7472 29.1147C55.9563 29.1982 56.1249 29.3157 56.2531 29.467C56.3828 29.6184 56.4599 29.7952 56.4843 29.9974H55.8182C55.7816 29.8565 55.6976 29.7351 55.5664 29.6334C55.4367 29.5316 55.2627 29.4807 55.0445 29.4807C54.8537 29.4807 54.6866 29.5238 54.5432 29.6099C54.4013 29.6947 54.2906 29.816 54.2113 29.9739C54.1319 30.1305 54.0922 30.3157 54.0922 30.5297C54.0922 30.7489 54.1312 30.9381 54.209 31.0973C54.2868 31.2564 54.3967 31.3797 54.5386 31.4672C54.6821 31.5546 54.8507 31.5983 55.0445 31.5983C55.1742 31.5983 55.2917 31.5781 55.397 31.5376C55.5038 31.4959 55.5931 31.4365 55.6648 31.3595C55.7381 31.2825 55.7892 31.1899 55.8182 31.0816H56.4843C56.4599 31.276 56.3859 31.4495 56.2623 31.6022C56.1387 31.7548 55.9731 31.8749 55.7656 31.9623C55.5595 32.0497 55.3177 32.0934 55.0399 32.0934Z" fill="black"/>
<path d="M57.0229 32.0328V29.0267H57.7073V32.0328H57.0229ZM57.3685 28.5628C57.2495 28.5628 57.1473 28.5289 57.0618 28.4611C56.9779 28.3919 56.9359 28.3097 56.9359 28.2145C56.9359 28.1179 56.9779 28.0357 57.0618 27.9679C57.1473 27.8987 57.2495 27.8642 57.3685 27.8642C57.4876 27.8642 57.589 27.8987 57.673 27.9679C57.7584 28.0357 57.8012 28.1179 57.8012 28.2145C57.8012 28.3097 57.7584 28.3919 57.673 28.4611C57.589 28.5289 57.4876 28.5628 57.3685 28.5628Z" fill="black"/>
<path d="M61.0694 29.7606L60.4491 29.8545C60.4232 29.7867 60.382 29.7221 60.3255 29.6608C60.2706 29.5994 60.1958 29.5492 60.1012 29.5101C60.0065 29.4709 59.8883 29.4514 59.7464 29.4514C59.5525 29.4514 59.3908 29.4885 59.2611 29.5629C59.1314 29.636 59.0665 29.7306 59.0665 29.8467C59.0665 29.9472 59.11 30.028 59.197 30.0894C59.284 30.1507 59.4244 30.2009 59.6182 30.2401L60.1767 30.3497C60.5002 30.4136 60.7413 30.5121 60.9001 30.6452C61.0588 30.7783 61.1381 30.9511 61.1381 31.1638C61.1381 31.3439 61.0771 31.5043 60.955 31.6453C60.8344 31.7849 60.6658 31.8945 60.4491 31.974C60.2339 32.0536 59.9844 32.0934 59.7006 32.0934C59.3069 32.0934 58.9856 32.0217 58.7369 31.8781C58.4881 31.7333 58.3355 31.5278 58.2791 31.2617L58.9406 31.1756C58.9818 31.323 59.0665 31.4345 59.1947 31.5102C59.3229 31.5846 59.49 31.6218 59.696 31.6218C59.9203 31.6218 60.0996 31.582 60.2339 31.5024C60.3682 31.4215 60.4354 31.323 60.4354 31.2069C60.4354 31.1129 60.3942 31.034 60.3118 30.9701C60.2309 30.9061 60.1065 30.8579 59.9386 30.8252L59.3435 30.7137C59.0154 30.6497 58.7727 30.548 58.6156 30.4084C58.4599 30.2688 58.3821 30.092 58.3821 29.878C58.3821 29.7006 58.4401 29.5453 58.556 29.4122C58.672 29.2791 58.8323 29.1754 59.0367 29.101C59.2412 29.0254 59.4755 28.9875 59.7395 28.9875C60.1195 28.9875 60.4186 29.058 60.6368 29.1989C60.855 29.3385 60.9992 29.5257 61.0694 29.7606Z" fill="black"/>
<path d="M61.6973 32.0328V29.0267H62.3817V32.0328H61.6973ZM62.0429 28.5628C61.9239 28.5628 61.8216 28.5289 61.7362 28.4611C61.6523 28.3919 61.6103 28.3097 61.6103 28.2145C61.6103 28.1179 61.6523 28.0357 61.7362 27.9679C61.8216 27.8987 61.9239 27.8642 62.0429 27.8642C62.162 27.8642 62.2634 27.8987 62.3474 27.9679C62.4328 28.0357 62.4756 28.1179 62.4756 28.2145C62.4756 28.3097 62.4328 28.3919 62.3474 28.4611C62.2634 28.5289 62.162 28.5628 62.0429 28.5628Z" fill="black"/>
<path d="M64.5901 32.0934C64.2605 32.0934 63.9729 32.0288 63.7272 31.8997C63.4815 31.7705 63.2907 31.5898 63.1549 31.3576C63.0191 31.1253 62.9512 30.8539 62.9512 30.5434C62.9512 30.2316 63.0191 29.9589 63.1549 29.7254C63.2907 29.4918 63.4815 29.3105 63.7272 29.1813C63.9729 29.0521 64.2605 28.9875 64.5901 28.9875C64.9198 28.9875 65.2074 29.0521 65.4531 29.1813C65.6988 29.3105 65.8896 29.4918 66.0254 29.7254C66.1612 29.9589 66.2291 30.2316 66.2291 30.5434C66.2291 30.8539 66.1612 31.1253 66.0254 31.3576C65.8896 31.5898 65.6988 31.7705 65.4531 31.8997C65.2074 32.0288 64.9198 32.0934 64.5901 32.0934ZM64.5924 31.6022C64.8061 31.6022 64.9831 31.5539 65.1235 31.4574C65.2639 31.3608 65.3677 31.2323 65.4348 31.0718C65.5035 30.9113 65.5378 30.7346 65.5378 30.5415C65.5378 30.3497 65.5035 30.1735 65.4348 30.013C65.3677 29.8513 65.2639 29.7214 65.1235 29.6236C64.9831 29.5257 64.8061 29.4768 64.5924 29.4768C64.3773 29.4768 64.1987 29.5257 64.0568 29.6236C63.9164 29.7214 63.8119 29.8513 63.7432 30.013C63.676 30.1735 63.6425 30.3497 63.6425 30.5415C63.6425 30.7346 63.676 30.9113 63.7432 31.0718C63.8119 31.2323 63.9164 31.3608 64.0568 31.4574C64.1987 31.5539 64.3773 31.6022 64.5924 31.6022Z" fill="black"/>
<path d="M67.4842 30.2479V32.0328H66.7997V29.0267H67.4567V29.5159H67.5002C67.5811 29.3568 67.7077 29.2289 67.8802 29.1324C68.0541 29.0358 68.2731 28.9875 68.5371 28.9875C68.7767 28.9875 68.9866 29.0306 69.1666 29.1167C69.3467 29.2015 69.4863 29.3281 69.5855 29.4964C69.6847 29.6647 69.7343 29.8728 69.7343 30.1207V32.0328H69.0499V30.1911C69.0499 29.9732 68.9835 29.803 68.8507 29.6803C68.718 29.5564 68.5356 29.4944 68.3036 29.4944C68.1449 29.4944 68.0038 29.5238 67.8802 29.5825C67.7581 29.6412 67.6612 29.7273 67.5895 29.8408C67.5193 29.953 67.4842 30.0887 67.4842 30.2479Z" fill="black"/>
<path d="M70.9098 32.0699C70.7847 32.0699 70.6771 32.0321 70.5871 31.9564C70.497 31.8794 70.452 31.7868 70.452 31.6785C70.452 31.5715 70.497 31.4802 70.5871 31.4045C70.6771 31.3276 70.7847 31.2891 70.9098 31.2891C71.035 31.2891 71.1425 31.3276 71.2326 31.4045C71.3226 31.4802 71.3676 31.5715 71.3676 31.6785C71.3676 31.7503 71.3463 31.8162 71.3035 31.8762C71.2623 31.9349 71.2074 31.9819 71.1387 32.0171C71.07 32.0523 70.9937 32.0699 70.9098 32.0699Z" fill="black"/>
<path d="M77.4767 29.3281H76.7625C76.735 29.1976 76.6839 29.0828 76.6091 28.9836C76.5344 28.8845 76.4428 28.8003 76.3345 28.7312C76.2261 28.662 76.1048 28.6098 75.9705 28.5746C75.8377 28.5394 75.6966 28.5217 75.547 28.5217C75.2769 28.5217 75.035 28.5798 74.8214 28.6959C74.6093 28.812 74.4414 28.9823 74.3178 29.2067C74.1957 29.4311 74.1346 29.7051 74.1346 30.0287C74.1346 30.3549 74.1957 30.6302 74.3178 30.8546C74.4414 31.079 74.61 31.2486 74.8237 31.3634C75.0373 31.4782 75.2777 31.5357 75.5447 31.5357C75.6928 31.5357 75.8331 31.5187 75.9659 31.4848C76.1002 31.4495 76.2215 31.398 76.3299 31.3302C76.4382 31.2623 76.5298 31.1795 76.6046 31.0816C76.6809 30.9825 76.7335 30.8689 76.7625 30.7411L77.4767 30.743C77.4386 30.94 77.3645 31.1214 77.2547 31.2871C77.1463 31.4515 77.0067 31.5937 76.8358 31.7137C76.6664 31.8325 76.4726 31.9245 76.2543 31.9897C76.0361 32.0549 75.798 32.0876 75.5401 32.0876C75.1342 32.0876 74.7725 32.0054 74.4551 31.841C74.1377 31.6753 73.8874 31.4385 73.7043 31.1305C73.5227 30.8226 73.4319 30.4553 73.4319 30.0287C73.4319 29.6008 73.5235 29.2335 73.7066 28.9269C73.8897 28.6189 74.14 28.3828 74.4574 28.2184C74.7748 28.0527 75.1357 27.9698 75.5401 27.9698C75.7889 27.9698 76.0209 28.0005 76.236 28.0618C76.4527 28.1218 76.6473 28.2106 76.8197 28.328C76.9922 28.4441 77.1349 28.5863 77.2478 28.7546C77.3607 28.9216 77.437 29.1128 77.4767 29.3281Z" fill="black"/>
<path d="M79.5558 32.0934C79.2262 32.0934 78.9385 32.0288 78.6928 31.8997C78.4471 31.7705 78.2564 31.5898 78.1206 31.3576C77.9847 31.1253 77.9168 30.8539 77.9168 30.5434C77.9168 30.2316 77.9847 29.9589 78.1206 29.7254C78.2564 29.4918 78.4471 29.3105 78.6928 29.1813C78.9385 29.0521 79.2262 28.9875 79.5558 28.9875C79.8854 28.9875 80.1731 29.0521 80.4188 29.1813C80.6645 29.3105 80.8552 29.4918 80.9911 29.7254C81.1269 29.9589 81.1948 30.2316 81.1948 30.5434C81.1948 30.8539 81.1269 31.1253 80.9911 31.3576C80.8552 31.5898 80.6645 31.7705 80.4188 31.8997C80.1731 32.0288 79.8854 32.0934 79.5558 32.0934ZM79.5581 31.6022C79.7717 31.6022 79.9488 31.5539 80.0892 31.4574C80.2296 31.3608 80.3333 31.2323 80.4005 31.0718C80.4692 30.9113 80.5035 30.7346 80.5035 30.5415C80.5035 30.3497 80.4692 30.1735 80.4005 30.013C80.3333 29.8513 80.2296 29.7214 80.0892 29.6236C79.9488 29.5257 79.7717 29.4768 79.5581 29.4768C79.3429 29.4768 79.1644 29.5257 79.0225 29.6236C78.8821 29.7214 78.7775 29.8513 78.7089 30.013C78.6417 30.1735 78.6081 30.3497 78.6081 30.5415C78.6081 30.7346 78.6417 30.9113 78.7089 31.0718C78.7775 31.2323 78.8821 31.3608 79.0225 31.4574C79.1644 31.5539 79.3429 31.6022 79.5581 31.6022Z" fill="black"/>
<path d="M81.7654 32.0328V29.0267H82.4224V29.5159H82.4659C82.5391 29.3502 82.6589 29.2211 82.8252 29.1284C82.9916 29.0345 83.1907 28.9875 83.4227 28.9875C83.6577 28.9875 83.8546 29.0345 84.0133 29.1284C84.1735 29.2224 84.2918 29.3515 84.3681 29.5159H84.4047C84.4886 29.3555 84.6222 29.2276 84.8053 29.1324C84.9884 29.0358 85.2066 28.9875 85.46 28.9875C85.7789 28.9875 86.0391 29.073 86.2405 29.2439C86.4435 29.4148 86.545 29.6725 86.545 30.017V32.0328H85.8606V30.0718C85.8606 29.8682 85.7957 29.7208 85.666 29.6295C85.5363 29.5381 85.3814 29.4925 85.2013 29.4925C84.9785 29.4925 84.8053 29.5512 84.6817 29.6686C84.5581 29.7847 84.4963 29.9341 84.4963 30.1168V32.0328H83.8141V30.0346C83.8141 29.8715 83.7546 29.7404 83.6356 29.6412C83.5165 29.542 83.3616 29.4925 83.1709 29.4925C83.0412 29.4925 82.9214 29.5218 82.8115 29.5805C82.7032 29.6379 82.6154 29.7182 82.5483 29.8212C82.4826 29.9243 82.4498 30.0437 82.4498 30.1794V32.0328H81.7654Z" fill="black"/>
<path d="M87.269 33.16V29.0267H87.9374V29.514H87.9946C88.0343 29.4514 88.0915 29.3789 88.1663 29.2968C88.2411 29.2146 88.3448 29.1428 88.4776 29.0815C88.6104 29.0188 88.7859 28.9875 89.0041 28.9875C89.2879 28.9875 89.5413 29.0489 89.7641 29.1715C89.9869 29.2941 90.1616 29.4709 90.2883 29.7019C90.4165 29.9328 90.4805 30.2107 90.4805 30.5356C90.4805 30.8605 90.4172 31.139 90.2906 31.3713C90.1639 31.6022 89.9899 31.7803 89.7686 31.9055C89.5474 32.0295 89.2948 32.0915 89.011 32.0915C88.7973 32.0915 88.6226 32.0608 88.4868 31.9995C88.3525 31.9382 88.2472 31.8664 88.1709 31.7842C88.0946 31.702 88.0358 31.6289 87.9946 31.565H87.9534V33.16H87.269ZM87.9397 30.5297C87.9397 30.7411 87.9755 30.9263 88.0473 31.0855C88.119 31.2447 88.2227 31.3693 88.3586 31.4593C88.4944 31.548 88.6607 31.5924 88.8576 31.5924C89.0621 31.5924 89.233 31.5461 89.3703 31.4535C89.5077 31.3595 89.6115 31.2323 89.6817 31.0718C89.7534 30.9113 89.7892 30.7306 89.7892 30.5297C89.7892 30.3314 89.7541 30.1533 89.6839 29.9954C89.6153 29.8376 89.5115 29.713 89.3726 29.6216C89.2353 29.5303 89.0636 29.4846 88.8576 29.4846C88.6592 29.4846 88.4913 29.5283 88.354 29.6158C88.2182 29.7032 88.1152 29.8252 88.045 29.9817C87.9748 30.1383 87.9397 30.321 87.9397 30.5297Z" fill="black"/>
<path d="M92.0772 32.0993C91.8544 32.0993 91.653 32.0641 91.4729 31.9936C91.2928 31.9219 91.1501 31.8181 91.0448 31.6824C90.9411 31.5467 90.8892 31.3804 90.8892 31.1834C90.8892 31.0138 90.9273 30.8742 91.0036 30.7646C91.0799 30.655 91.1829 30.5682 91.3127 30.5043C91.4424 30.4403 91.5874 30.3921 91.7476 30.3594C91.9078 30.3268 92.0711 30.302 92.2375 30.2851C92.4481 30.2642 92.619 30.2472 92.7502 30.2342C92.8815 30.2198 92.9768 30.197 93.0363 30.1657C93.0959 30.1344 93.1256 30.0835 93.1256 30.013V29.9993C93.1256 29.8284 93.0692 29.696 92.9562 29.6021C92.8448 29.5081 92.6785 29.4611 92.4572 29.4611C92.2268 29.4611 92.0452 29.5049 91.9124 29.5923C91.7812 29.6784 91.6904 29.7743 91.64 29.88L90.9968 29.7547C91.0731 29.572 91.1845 29.4246 91.331 29.3124C91.479 29.1989 91.6492 29.1167 91.8414 29.0658C92.0337 29.0136 92.2359 28.9875 92.4481 28.9875C92.5884 28.9875 92.7372 29.0019 92.8944 29.0306C93.0531 29.058 93.2012 29.1089 93.3385 29.1832C93.4774 29.2576 93.5911 29.3639 93.6796 29.5022C93.7681 29.6392 93.8123 29.8173 93.8123 30.0365V32.0328H93.1439V31.6218H93.1165C93.0722 31.6974 93.0058 31.7718 92.9173 31.8449C92.8288 31.9179 92.7151 31.9786 92.5762 32.0269C92.4374 32.0752 92.271 32.0993 92.0772 32.0993ZM92.226 31.6296C92.4152 31.6296 92.577 31.5976 92.7113 31.5337C92.8471 31.4698 92.9501 31.3863 93.0203 31.2832C93.092 31.1788 93.1279 31.0673 93.1279 30.9485V30.561C93.1035 30.5819 93.0562 30.6015 92.986 30.6197C92.9173 30.6367 92.8387 30.6517 92.7502 30.6648C92.6617 30.6765 92.5755 30.6876 92.4915 30.698C92.4076 30.7072 92.3374 30.715 92.2809 30.7215C92.1482 30.7359 92.0269 30.76 91.917 30.7939C91.8086 30.8278 91.7217 30.8768 91.656 30.9407C91.5919 31.0033 91.5599 31.0868 91.5599 31.1912C91.5599 31.336 91.6225 31.4456 91.7476 31.52C91.8727 31.5931 92.0322 31.6296 92.226 31.6296Z" fill="black"/>
<path d="M97.1653 29.7606L96.545 29.8545C96.519 29.7867 96.4778 29.7221 96.4214 29.6608C96.3664 29.5994 96.2917 29.5492 96.197 29.5101C96.1024 29.4709 95.9842 29.4514 95.8422 29.4514C95.6484 29.4514 95.4867 29.4885 95.3569 29.5629C95.2272 29.636 95.1624 29.7306 95.1624 29.8467C95.1624 29.9472 95.2059 30.028 95.2928 30.0894C95.3798 30.1507 95.5202 30.2009 95.714 30.2401L96.2726 30.3497C96.5961 30.4136 96.8372 30.5121 96.9959 30.6452C97.1546 30.7783 97.234 30.9511 97.234 31.1638C97.234 31.3439 97.173 31.5043 97.0509 31.6453C96.9303 31.7849 96.7617 31.8945 96.545 31.974C96.3298 32.0536 96.0803 32.0934 95.7964 32.0934C95.4027 32.0934 95.0815 32.0217 94.8327 31.8781C94.584 31.7333 94.4314 31.5278 94.3749 31.2617L95.0365 31.1756C95.0777 31.323 95.1624 31.4345 95.2906 31.5102C95.4188 31.5846 95.5859 31.6218 95.7919 31.6218C96.0162 31.6218 96.1955 31.582 96.3298 31.5024C96.4641 31.4215 96.5312 31.323 96.5312 31.2069C96.5312 31.1129 96.49 31.034 96.4076 30.9701C96.3268 30.9061 96.2024 30.8579 96.0345 30.8252L95.4394 30.7137C95.1113 30.6497 94.8686 30.548 94.7114 30.4084C94.5558 30.2688 94.4779 30.092 94.4779 29.878C94.4779 29.7006 94.5359 29.5453 94.6519 29.4122C94.7679 29.2791 94.9281 29.1754 95.1326 29.101C95.3371 29.0254 95.5714 28.9875 95.8354 28.9875C96.2154 28.9875 96.5145 29.058 96.7327 29.1989C96.9509 29.3385 97.0951 29.5257 97.1653 29.7606Z" fill="black"/>
<path d="M100.428 29.7606L99.8075 29.8545C99.7816 29.7867 99.7404 29.7221 99.6839 29.6608C99.629 29.5994 99.5542 29.5492 99.4596 29.5101C99.365 29.4709 99.2467 29.4514 99.1048 29.4514C98.911 29.4514 98.7492 29.4885 98.6195 29.5629C98.4898 29.636 98.4249 29.7306 98.4249 29.8467C98.4249 29.9472 98.4684 30.028 98.5554 30.0894C98.6424 30.1507 98.7828 30.2009 98.9766 30.2401L99.5351 30.3497C99.8587 30.4136 100.1 30.5121 100.258 30.6452C100.417 30.7783 100.497 30.9511 100.497 31.1638C100.497 31.3439 100.436 31.5043 100.313 31.6453C100.193 31.7849 100.024 31.8945 99.8075 31.974C99.5924 32.0536 99.3429 32.0934 99.059 32.0934C98.6653 32.0934 98.3441 32.0217 98.0953 31.8781C97.8466 31.7333 97.694 31.5278 97.6375 31.2617L98.299 31.1756C98.3402 31.323 98.4249 31.4345 98.5531 31.5102C98.6813 31.5846 98.8484 31.6218 99.0544 31.6218C99.2788 31.6218 99.4581 31.582 99.5924 31.5024C99.7267 31.4215 99.7938 31.323 99.7938 31.2069C99.7938 31.1129 99.7526 31.034 99.6702 30.9701C99.5893 30.9061 99.4649 30.8579 99.2971 30.8252L98.7019 30.7137C98.3738 30.6497 98.1312 30.548 97.974 30.4084C97.8183 30.2688 97.7405 30.092 97.7405 29.878C97.7405 29.7006 97.7985 29.5453 97.9145 29.4122C98.0304 29.2791 98.1907 29.1754 98.3952 29.101C98.5997 29.0254 98.8339 28.9875 99.0979 28.9875C99.4779 28.9875 99.777 29.058 99.9952 29.1989C100.213 29.3385 100.358 29.5257 100.428 29.7606Z" fill="black"/>
<path d="M101.056 32.0328V29.0267H101.74V32.0328H101.056ZM101.401 28.5628C101.282 28.5628 101.18 28.5289 101.095 28.4611C101.011 28.3919 100.969 28.3097 100.969 28.2145C100.969 28.1179 101.011 28.0357 101.095 27.9679C101.18 27.8987 101.282 27.8642 101.401 27.8642C101.52 27.8642 101.622 27.8987 101.706 27.9679C101.791 28.0357 101.834 28.1179 101.834 28.2145C101.834 28.3097 101.791 28.3919 101.706 28.4611C101.622 28.5289 101.52 28.5628 101.401 28.5628Z" fill="black"/>
<path d="M103.949 32.0934C103.619 32.0934 103.331 32.0288 103.086 31.8997C102.84 31.7705 102.649 31.5898 102.513 31.3576C102.378 31.1253 102.31 30.8539 102.31 30.5434C102.31 30.2316 102.378 29.9589 102.513 29.7254C102.649 29.4918 102.84 29.3105 103.086 29.1813C103.331 29.0521 103.619 28.9875 103.949 28.9875C104.278 28.9875 104.566 29.0521 104.812 29.1813C105.057 29.3105 105.248 29.4918 105.384 29.7254C105.52 29.9589 105.588 30.2316 105.588 30.5434C105.588 30.8539 105.52 31.1253 105.384 31.3576C105.248 31.5898 105.057 31.7705 104.812 31.8997C104.566 32.0288 104.278 32.0934 103.949 32.0934ZM103.951 31.6022C104.165 31.6022 104.342 31.5539 104.482 31.4574C104.622 31.3608 104.726 31.2323 104.793 31.0718C104.862 30.9113 104.896 30.7346 104.896 30.5415C104.896 30.3497 104.862 30.1735 104.793 30.013C104.726 29.8513 104.622 29.7214 104.482 29.6236C104.342 29.5257 104.165 29.4768 103.951 29.4768C103.736 29.4768 103.557 29.5257 103.415 29.6236C103.275 29.7214 103.17 29.8513 103.102 30.013C103.034 30.1735 103.001 30.3497 103.001 30.5415C103.001 30.7346 103.034 30.9113 103.102 31.0718C103.17 31.2323 103.275 31.3608 103.415 31.4574C103.557 31.5539 103.736 31.6022 103.951 31.6022Z" fill="black"/>
<path d="M106.843 30.2479V32.0328H106.158V29.0267H106.815V29.5159H106.859C106.939 29.3568 107.066 29.2289 107.239 29.1324C107.413 29.0358 107.632 28.9875 107.896 28.9875C108.135 28.9875 108.345 29.0306 108.525 29.1167C108.705 29.2015 108.845 29.3281 108.944 29.4964C109.043 29.6647 109.093 29.8728 109.093 30.1207V32.0328H108.408V30.1911C108.408 29.9732 108.342 29.803 108.209 29.6803C108.076 29.5564 107.894 29.4944 107.662 29.4944C107.503 29.4944 107.362 29.5238 107.239 29.5825C107.117 29.6412 107.02 29.7273 106.948 29.8408C106.878 29.953 106.843 30.0887 106.843 30.2479Z" fill="black"/>
<path d="M112.353 32.0993C112.13 32.0993 111.929 32.0641 111.749 31.9936C111.569 31.9219 111.426 31.8181 111.321 31.6824C111.217 31.5467 111.165 31.3804 111.165 31.1834C111.165 31.0138 111.203 30.8742 111.279 30.7646C111.356 30.655 111.459 30.5682 111.589 30.5043C111.718 30.4403 111.863 30.3921 112.023 30.3594C112.184 30.3268 112.347 30.302 112.513 30.2851C112.724 30.2642 112.895 30.2472 113.026 30.2342C113.157 30.2198 113.253 30.197 113.312 30.1657C113.372 30.1344 113.401 30.0835 113.401 30.013V29.9993C113.401 29.8284 113.345 29.696 113.232 29.6021C113.121 29.5081 112.954 29.4611 112.733 29.4611C112.503 29.4611 112.321 29.5049 112.188 29.5923C112.057 29.6784 111.966 29.7743 111.916 29.88L111.273 29.7547C111.349 29.572 111.46 29.4246 111.607 29.3124C111.755 29.1989 111.925 29.1167 112.117 29.0658C112.31 29.0136 112.512 28.9875 112.724 28.9875C112.864 28.9875 113.013 29.0019 113.17 29.0306C113.329 29.058 113.477 29.1089 113.614 29.1832C113.753 29.2576 113.867 29.3639 113.955 29.5022C114.044 29.6392 114.088 29.8173 114.088 30.0365V32.0328H113.42V31.6218H113.392C113.348 31.6974 113.282 31.7718 113.193 31.8449C113.105 31.9179 112.991 31.9786 112.852 32.0269C112.713 32.0752 112.547 32.0993 112.353 32.0993ZM112.502 31.6296C112.691 31.6296 112.853 31.5976 112.987 31.5337C113.123 31.4698 113.226 31.3863 113.296 31.2832C113.368 31.1788 113.404 31.0673 113.404 30.9485V30.561C113.379 30.5819 113.332 30.6015 113.262 30.6197C113.193 30.6367 113.115 30.6517 113.026 30.6648C112.938 30.6765 112.851 30.6876 112.767 30.698C112.683 30.7072 112.613 30.715 112.557 30.7215C112.424 30.7359 112.303 30.76 112.193 30.7939C112.084 30.8278 111.998 30.8768 111.932 30.9407C111.868 31.0033 111.836 31.0868 111.836 31.1912C111.836 31.336 111.898 31.4456 112.023 31.52C112.149 31.5931 112.308 31.6296 112.502 31.6296Z" fill="black"/>
<path d="M115.491 30.2479V32.0328H114.806V29.0267H115.463V29.5159H115.507C115.588 29.3568 115.714 29.2289 115.887 29.1324C116.061 29.0358 116.28 28.9875 116.544 28.9875C116.783 28.9875 116.993 29.0306 117.173 29.1167C117.353 29.2015 117.493 29.3281 117.592 29.4964C117.691 29.6647 117.741 29.8728 117.741 30.1207V32.0328H117.057V30.1911C117.057 29.9732 116.99 29.803 116.857 29.6803C116.725 29.5564 116.542 29.4944 116.31 29.4944C116.152 29.4944 116.01 29.5238 115.887 29.5825C115.765 29.6412 115.668 29.7273 115.596 29.8408C115.526 29.953 115.491 30.0887 115.491 30.2479Z" fill="black"/>
<path d="M119.782 32.0915C119.498 32.0915 119.245 32.0295 119.022 31.9055C118.801 31.7803 118.627 31.6022 118.5 31.3713C118.375 31.139 118.312 30.8605 118.312 30.5356C118.312 30.2107 118.376 29.9328 118.502 29.7019C118.63 29.4709 118.806 29.2941 119.029 29.1715C119.252 29.0489 119.504 28.9875 119.786 28.9875C120.005 28.9875 120.18 29.0188 120.313 29.0815C120.447 29.1428 120.551 29.2146 120.624 29.2968C120.699 29.3789 120.757 29.4514 120.798 29.514H120.839V28.0246H121.524V32.0328H120.855V31.565H120.798C120.757 31.6289 120.697 31.702 120.62 31.7842C120.543 31.8664 120.438 31.9382 120.304 31.9995C120.169 32.0608 119.995 32.0915 119.782 32.0915ZM119.933 31.5924C120.13 31.5924 120.296 31.548 120.432 31.4593C120.569 31.3693 120.673 31.2447 120.743 31.0855C120.815 30.9263 120.851 30.7411 120.851 30.5297C120.851 30.321 120.816 30.1383 120.746 29.9817C120.675 29.8252 120.572 29.7032 120.436 29.6158C120.301 29.5283 120.133 29.4846 119.933 29.4846C119.727 29.4846 119.555 29.5303 119.418 29.6216C119.28 29.713 119.177 29.8376 119.107 29.9954C119.038 30.1533 119.004 30.3314 119.004 30.5297C119.004 30.7306 119.039 30.9113 119.109 31.0718C119.179 31.2323 119.283 31.3595 119.42 31.4535C119.559 31.5461 119.73 31.5924 119.933 31.5924Z" fill="black"/>
<path d="M127.768 29.3281H127.054C127.027 29.1976 126.976 29.0828 126.901 28.9836C126.826 28.8845 126.735 28.8003 126.626 28.7312C126.518 28.662 126.397 28.6098 126.262 28.5746C126.13 28.5394 125.988 28.5217 125.839 28.5217C125.569 28.5217 125.327 28.5798 125.113 28.6959C124.901 28.812 124.733 28.9823 124.61 29.2067C124.487 29.4311 124.426 29.7051 124.426 30.0287C124.426 30.3549 124.487 30.6302 124.61 30.8546C124.733 31.079 124.902 31.2486 125.115 31.3634C125.329 31.4782 125.569 31.5357 125.837 31.5357C125.985 31.5357 126.125 31.5187 126.258 31.4848C126.392 31.4495 126.513 31.398 126.622 31.3302C126.73 31.2623 126.822 31.1795 126.896 31.0816C126.973 30.9825 127.025 30.8689 127.054 30.7411L127.768 30.743C127.73 30.94 127.656 31.1214 127.546 31.2871C127.438 31.4515 127.298 31.5937 127.128 31.7137C126.958 31.8325 126.764 31.9245 126.546 31.9897C126.328 32.0549 126.09 32.0876 125.832 32.0876C125.426 32.0876 125.064 32.0054 124.747 31.841C124.429 31.6753 124.179 31.4385 123.996 31.1305C123.814 30.8226 123.724 30.4553 123.724 30.0287C123.724 29.6008 123.815 29.2335 123.998 28.9269C124.182 28.6189 124.432 28.3828 124.749 28.2184C125.067 28.0527 125.428 27.9698 125.832 27.9698C126.081 27.9698 126.313 28.0005 126.528 28.0618C126.745 28.1218 126.939 28.2106 127.112 28.328C127.284 28.4441 127.427 28.5863 127.54 28.7546C127.653 28.9216 127.729 29.1128 127.768 29.3281Z" fill="black"/>
<path d="M129.39 32.0993C129.167 32.0993 128.966 32.0641 128.785 31.9936C128.605 31.9219 128.463 31.8181 128.357 31.6824C128.254 31.5467 128.202 31.3804 128.202 31.1834C128.202 31.0138 128.24 30.8742 128.316 30.7646C128.393 30.655 128.496 30.5682 128.625 30.5043C128.755 30.4403 128.9 30.3921 129.06 30.3594C129.22 30.3268 129.384 30.302 129.55 30.2851C129.761 30.2642 129.932 30.2472 130.063 30.2342C130.194 30.2198 130.289 30.197 130.349 30.1657C130.408 30.1344 130.438 30.0835 130.438 30.013V29.9993C130.438 29.8284 130.382 29.696 130.269 29.6021C130.157 29.5081 129.991 29.4611 129.77 29.4611C129.539 29.4611 129.358 29.5049 129.225 29.5923C129.094 29.6784 129.003 29.7743 128.953 29.88L128.309 29.7547C128.386 29.572 128.497 29.4246 128.644 29.3124C128.792 29.1989 128.962 29.1167 129.154 29.0658C129.346 29.0136 129.548 28.9875 129.761 28.9875C129.901 28.9875 130.05 29.0019 130.207 29.0306C130.366 29.058 130.514 29.1089 130.651 29.1832C130.79 29.2576 130.904 29.3639 130.992 29.5022C131.081 29.6392 131.125 29.8173 131.125 30.0365V32.0328H130.456V31.6218H130.429C130.385 31.6974 130.318 31.7718 130.23 31.8449C130.141 31.9179 130.028 31.9786 129.889 32.0269C129.75 32.0752 129.584 32.0993 129.39 32.0993ZM129.539 31.6296C129.728 31.6296 129.89 31.5976 130.024 31.5337C130.16 31.4698 130.263 31.3863 130.333 31.2832C130.405 31.1788 130.44 31.0673 130.44 30.9485V30.561C130.416 30.5819 130.369 30.6015 130.299 30.6197C130.23 30.6367 130.151 30.6517 130.063 30.6648C129.974 30.6765 129.888 30.6876 129.804 30.698C129.72 30.7072 129.65 30.715 129.594 30.7215C129.461 30.7359 129.339 30.76 129.23 30.7939C129.121 30.8278 129.034 30.8768 128.969 30.9407C128.905 31.0033 128.872 31.0868 128.872 31.1912C128.872 31.336 128.935 31.4456 129.06 31.52C129.185 31.5931 129.345 31.6296 129.539 31.6296Z" fill="black"/>
<path d="M131.843 32.0328V29.0267H132.505V29.5042H132.541C132.605 29.3424 132.718 29.2152 132.88 29.1226C133.043 29.0286 133.228 28.9817 133.434 28.9817C133.477 28.9817 133.527 28.983 133.585 28.9856C133.645 28.9882 133.691 28.9914 133.725 28.9954V29.5551C133.697 29.5486 133.648 29.5414 133.578 29.5336C133.508 29.5244 133.438 29.5199 133.368 29.5199C133.206 29.5199 133.062 29.5492 132.935 29.6079C132.81 29.6653 132.711 29.7456 132.637 29.8486C132.564 29.9504 132.528 30.0665 132.528 30.197V32.0328H131.843Z" fill="black"/>
<path d="M135.513 32.0934C135.167 32.0934 134.868 32.0301 134.618 31.9036C134.369 31.7757 134.177 31.5963 134.041 31.3654C133.907 31.1331 133.84 30.8611 133.84 30.5493C133.84 30.2414 133.907 29.97 134.041 29.7351C134.177 29.5003 134.366 29.317 134.609 29.1852C134.853 29.0534 135.139 28.9875 135.465 28.9875C135.663 28.9875 135.856 29.0156 136.042 29.0717C136.228 29.1278 136.395 29.2159 136.543 29.3359C136.691 29.4559 136.808 29.6118 136.893 29.8036C136.979 29.9941 137.022 30.2257 137.022 30.4984V30.7059H134.227V30.2675H136.351C136.351 30.1135 136.314 29.9772 136.241 29.8584C136.168 29.7384 136.065 29.6438 135.932 29.5747C135.801 29.5055 135.647 29.4709 135.47 29.4709C135.277 29.4709 135.11 29.5114 134.966 29.5923C134.824 29.6719 134.714 29.7762 134.636 29.9054C134.56 30.0333 134.522 30.1722 134.522 30.3223V30.6648C134.522 30.8657 134.563 31.0366 134.646 31.1775C134.73 31.3184 134.846 31.4261 134.996 31.5004C135.145 31.5735 135.32 31.61 135.52 31.61C135.65 31.61 135.768 31.5944 135.875 31.5631C135.982 31.5304 136.074 31.4822 136.152 31.4182C136.23 31.3543 136.289 31.2754 136.33 31.1814L136.978 31.2812C136.926 31.4443 136.833 31.5872 136.699 31.7098C136.566 31.8312 136.399 31.9258 136.198 31.9936C135.998 32.0602 135.77 32.0934 135.513 32.0934Z" fill="black"/>
<path d="M139.551 31.5357C139.426 31.5357 139.318 31.4978 139.228 31.4221C139.138 31.3452 139.093 31.2525 139.093 31.1442C139.093 31.0372 139.138 30.9459 139.228 30.8702C139.318 30.7933 139.426 30.7548 139.551 30.7548C139.676 30.7548 139.784 30.7933 139.874 30.8702C139.964 30.9459 140.009 31.0372 140.009 31.1442C140.009 31.216 139.988 31.2819 139.945 31.3419C139.904 31.4006 139.849 31.4476 139.78 31.4828C139.711 31.518 139.635 31.5357 139.551 31.5357ZM139.551 29.5277C139.426 29.5277 139.318 29.4898 139.228 29.4142C139.138 29.3372 139.093 29.2446 139.093 29.1363C139.093 29.0293 139.138 28.938 139.228 28.8623C139.318 28.7853 139.426 28.7468 139.551 28.7468C139.676 28.7468 139.784 28.7853 139.874 28.8623C139.964 28.938 140.009 29.0293 140.009 29.1363C140.009 29.208 139.988 29.2739 139.945 29.3339C139.904 29.3926 139.849 29.4396 139.78 29.4748C139.711 29.5101 139.635 29.5277 139.551 29.5277Z" fill="black"/>
<path d="M141.938 28.0246H142.742L143.966 29.8467H144.017L145.241 28.0246H146.045L144.344 30.4593V32.0328H143.639V30.4593L141.938 28.0246Z" fill="black"/>
<path d="M147.366 32.0934C147.037 32.0934 146.749 32.0288 146.503 31.8997C146.258 31.7705 146.067 31.5898 145.931 31.3576C145.795 31.1253 145.727 30.8539 145.727 30.5434C145.727 30.2316 145.795 29.9589 145.931 29.7254C146.067 29.4918 146.258 29.3105 146.503 29.1813C146.749 29.0521 147.037 28.9875 147.366 28.9875C147.696 28.9875 147.984 29.0521 148.229 29.1813C148.475 29.3105 148.666 29.4918 148.802 29.7254C148.937 29.9589 149.005 30.2316 149.005 30.5434C149.005 30.8539 148.937 31.1253 148.802 31.3576C148.666 31.5898 148.475 31.7705 148.229 31.8997C147.984 32.0288 147.696 32.0934 147.366 32.0934ZM147.369 31.6022C147.582 31.6022 147.759 31.5539 147.9 31.4574C148.04 31.3608 148.144 31.2323 148.211 31.0718C148.28 30.9113 148.314 30.7346 148.314 30.5415C148.314 30.3497 148.28 30.1735 148.211 30.013C148.144 29.8513 148.04 29.7214 147.9 29.6236C147.759 29.5257 147.582 29.4768 147.369 29.4768C147.153 29.4768 146.975 29.5257 146.833 29.6236C146.693 29.7214 146.588 29.8513 146.519 30.013C146.452 30.1735 146.419 30.3497 146.419 30.5415C146.419 30.7346 146.452 30.9113 146.519 31.0718C146.588 31.2323 146.693 31.3608 146.833 31.4574C146.975 31.5539 147.153 31.6022 147.369 31.6022Z" fill="black"/>
<path d="M151.803 30.7861V29.0267H152.49V32.0328H151.817V31.5122H151.78C151.699 31.6726 151.57 31.8064 151.391 31.9134C151.214 32.0191 150.994 32.0719 150.73 32.0719C150.504 32.0719 150.304 32.0295 150.13 31.9447C149.957 31.8586 149.822 31.7314 149.722 31.5631C149.625 31.3947 149.576 31.1866 149.576 30.9387V29.0267H150.26V30.8683C150.26 31.0731 150.327 31.2362 150.459 31.3576C150.592 31.4789 150.765 31.5396 150.977 31.5396C151.105 31.5396 151.232 31.5122 151.359 31.4574C151.487 31.4026 151.593 31.3197 151.677 31.2088C151.763 31.0979 151.805 30.957 151.803 30.7861Z" fill="black"/>
<path d="M153.216 32.0328V29.0267H153.878V29.5042H153.914C153.978 29.3424 154.091 29.2152 154.253 29.1226C154.416 29.0286 154.601 28.9817 154.807 28.9817C154.85 28.9817 154.9 28.983 154.958 28.9856C155.018 28.9882 155.064 28.9914 155.098 28.9954V29.5551C155.07 29.5486 155.021 29.5414 154.951 29.5336C154.881 29.5244 154.811 29.5199 154.741 29.5199C154.579 29.5199 154.435 29.5492 154.308 29.6079C154.183 29.6653 154.084 29.7456 154.01 29.8486C153.937 29.9504 153.901 30.0665 153.901 30.197V32.0328H153.216Z" fill="black"/>
<path d="M156.833 28.5452V28.0246H160.461V28.5452H158.998V32.0328H158.293V28.5452H156.833Z" fill="black"/>
<path d="M160.649 32.0328V29.0267H161.311V29.5042H161.348C161.412 29.3424 161.525 29.2152 161.686 29.1226C161.85 29.0286 162.034 28.9817 162.24 28.9817C162.283 28.9817 162.333 28.983 162.391 28.9856C162.451 28.9882 162.498 28.9914 162.531 28.9954V29.5551C162.504 29.5486 162.455 29.5414 162.385 29.5336C162.314 29.5244 162.244 29.5199 162.174 29.5199C162.012 29.5199 161.868 29.5492 161.741 29.6079C161.616 29.6653 161.517 29.7456 161.444 29.8486C161.371 29.9504 161.334 30.0665 161.334 30.197V32.0328H160.649Z" fill="black"/>
<path d="M165.157 30.7861V29.0267H165.844V32.0328H165.171V31.5122H165.134C165.053 31.6726 164.924 31.8064 164.745 31.9134C164.568 32.0191 164.348 32.0719 164.084 32.0719C163.858 32.0719 163.658 32.0295 163.484 31.9447C163.312 31.8586 163.176 31.7314 163.076 31.5631C162.979 31.3947 162.93 31.1866 162.93 30.9387V29.0267H163.614V30.8683C163.614 31.0731 163.681 31.2362 163.814 31.3576C163.946 31.4789 164.119 31.5396 164.331 31.5396C164.459 31.5396 164.587 31.5122 164.713 31.4574C164.841 31.4026 164.947 31.3197 165.031 31.2088C165.117 31.0979 165.159 30.957 165.157 30.7861Z" fill="black"/>
<path d="M169.205 29.7606L168.585 29.8545C168.559 29.7867 168.517 29.7221 168.461 29.6608C168.406 29.5994 168.331 29.5492 168.237 29.5101C168.142 29.4709 168.024 29.4514 167.882 29.4514C167.688 29.4514 167.526 29.4885 167.397 29.5629C167.267 29.636 167.202 29.7306 167.202 29.8467C167.202 29.9472 167.246 30.028 167.333 30.0894C167.42 30.1507 167.56 30.2009 167.754 30.2401L168.312 30.3497C168.636 30.4136 168.877 30.5121 169.036 30.6452C169.194 30.7783 169.274 30.9511 169.274 31.1638C169.274 31.3439 169.213 31.5043 169.091 31.6453C168.97 31.7849 168.801 31.8945 168.585 31.974C168.369 32.0536 168.12 32.0934 167.836 32.0934C167.442 32.0934 167.121 32.0217 166.872 31.8781C166.624 31.7333 166.471 31.5278 166.415 31.2617L167.076 31.1756C167.117 31.323 167.202 31.4345 167.33 31.5102C167.458 31.5846 167.626 31.6218 167.832 31.6218C168.056 31.6218 168.235 31.582 168.369 31.5024C168.504 31.4215 168.571 31.323 168.571 31.2069C168.571 31.1129 168.53 31.034 168.447 30.9701C168.366 30.9061 168.242 30.8579 168.074 30.8252L167.479 30.7137C167.151 30.6497 166.908 30.548 166.751 30.4084C166.595 30.2688 166.518 30.092 166.518 29.878C166.518 29.7006 166.576 29.5453 166.692 29.4122C166.808 29.2791 166.968 29.1754 167.172 29.101C167.377 29.0254 167.611 28.9875 167.875 28.9875C168.255 28.9875 168.554 29.058 168.772 29.1989C168.991 29.3385 169.135 29.5257 169.205 29.7606Z" fill="black"/>
<path d="M171.474 29.0267V29.4964H169.554V29.0267H171.474ZM170.069 28.3065H170.753V31.1501C170.753 31.2636 170.773 31.3491 170.813 31.4065C170.852 31.4626 170.903 31.5011 170.966 31.522C171.03 31.5415 171.099 31.5513 171.174 31.5513C171.229 31.5513 171.277 31.548 171.318 31.5415C171.36 31.535 171.392 31.5298 171.415 31.5259L171.538 32.0093C171.498 32.0223 171.442 32.0354 171.369 32.0484C171.296 32.0628 171.204 32.0706 171.094 32.0719C170.914 32.0745 170.746 32.0471 170.59 31.9897C170.435 31.9323 170.309 31.8436 170.213 31.7235C170.117 31.6035 170.069 31.4528 170.069 31.2714V28.3065Z" fill="black"/>
<path d="M173.515 32.0934C173.169 32.0934 172.871 32.0301 172.62 31.9036C172.372 31.7757 172.179 31.5963 172.044 31.3654C171.909 31.1331 171.842 30.8611 171.842 30.5493C171.842 30.2414 171.909 29.97 172.044 29.7351C172.179 29.5003 172.369 29.317 172.611 29.1852C172.855 29.0534 173.141 28.9875 173.467 28.9875C173.666 28.9875 173.858 29.0156 174.044 29.0717C174.23 29.1278 174.397 29.2159 174.546 29.3359C174.694 29.4559 174.81 29.6118 174.896 29.8036C174.981 29.9941 175.024 30.2257 175.024 30.4984V30.7059H172.229V30.2675H174.353C174.353 30.1135 174.317 29.9772 174.243 29.8584C174.17 29.7384 174.067 29.6438 173.934 29.5747C173.803 29.5055 173.649 29.4709 173.472 29.4709C173.28 29.4709 173.112 29.5114 172.968 29.5923C172.826 29.6719 172.717 29.7762 172.639 29.9054C172.562 30.0333 172.524 30.1722 172.524 30.3223V30.6648C172.524 30.8657 172.565 31.0366 172.648 31.1775C172.732 31.3184 172.849 31.4261 172.998 31.5004C173.148 31.5735 173.322 31.61 173.522 31.61C173.652 31.61 173.77 31.5944 173.877 31.5631C173.984 31.5304 174.076 31.4822 174.154 31.4182C174.232 31.3543 174.291 31.2754 174.333 31.1814L174.98 31.2812C174.929 31.4443 174.835 31.5872 174.701 31.7098C174.568 31.8312 174.401 31.9258 174.2 31.9936C174 32.0602 173.772 32.0934 173.515 32.0934Z" fill="black"/>
<path d="M176.906 32.0915C176.622 32.0915 176.369 32.0295 176.146 31.9055C175.925 31.7803 175.751 31.6022 175.624 31.3713C175.499 31.139 175.437 30.8605 175.437 30.5356C175.437 30.2107 175.5 29.9328 175.627 29.7019C175.755 29.4709 175.93 29.2941 176.153 29.1715C176.376 29.0489 176.628 28.9875 176.911 28.9875C177.129 28.9875 177.304 29.0188 177.437 29.0815C177.572 29.1428 177.675 29.2146 177.749 29.2968C177.823 29.3789 177.881 29.4514 177.923 29.514H177.964V28.0246H178.648V32.0328H177.98V31.565H177.923C177.881 31.6289 177.822 31.702 177.744 31.7842C177.668 31.8664 177.562 31.9382 177.428 31.9995C177.294 32.0608 177.12 32.0915 176.906 32.0915ZM177.057 31.5924C177.254 31.5924 177.42 31.548 177.556 31.4593C177.694 31.3693 177.797 31.2447 177.868 31.0855C177.939 30.9263 177.975 30.7411 177.975 30.5297C177.975 30.321 177.94 30.1383 177.87 29.9817C177.8 29.8252 177.697 29.7032 177.561 29.6158C177.425 29.5283 177.257 29.4846 177.057 29.4846C176.851 29.4846 176.68 29.5303 176.542 29.6216C176.405 29.713 176.301 29.8376 176.231 29.9954C176.162 30.1533 176.128 30.3314 176.128 30.5297C176.128 30.7306 176.163 30.9113 176.233 31.0718C176.303 31.2323 176.407 31.3595 176.544 31.4535C176.683 31.5461 176.854 31.5924 177.057 31.5924Z" fill="black"/>
<path d="M183.556 29.0776C183.532 28.8923 183.431 28.7488 183.254 28.647C183.077 28.5439 182.854 28.4924 182.585 28.4924C182.393 28.4924 182.227 28.5185 182.086 28.5707C181.946 28.6216 181.837 28.692 181.759 28.782C181.683 28.8708 181.645 28.9719 181.645 29.0854C181.645 29.1806 181.671 29.2628 181.722 29.332C181.776 29.4011 181.845 29.4592 181.931 29.5062C182.018 29.5518 182.111 29.5903 182.21 29.6216C182.309 29.6516 182.405 29.6764 182.496 29.696L182.954 29.7978C183.104 29.8291 183.257 29.8715 183.414 29.925C183.571 29.9785 183.717 30.0489 183.851 30.1363C183.986 30.2238 184.094 30.332 184.176 30.4612C184.26 30.5904 184.302 30.745 184.302 30.925C184.302 31.1521 184.234 31.3536 184.096 31.5298C183.96 31.7059 183.763 31.8449 183.503 31.9466C183.245 32.0484 182.933 32.0993 182.567 32.0993C182.216 32.0993 181.912 32.0517 181.656 31.9564C181.4 31.8612 181.199 31.7261 181.054 31.5513C180.909 31.3752 180.829 31.1664 180.814 30.925H181.523C181.537 31.0699 181.592 31.1906 181.688 31.2871C181.786 31.3823 181.91 31.4535 182.061 31.5004C182.214 31.5461 182.381 31.5689 182.563 31.5689C182.762 31.5689 182.94 31.5422 183.096 31.4887C183.253 31.4339 183.377 31.3582 183.467 31.2617C183.557 31.1638 183.602 31.0496 183.602 30.9192C183.602 30.8004 183.562 30.7032 183.483 30.6276C183.405 30.5519 183.299 30.4893 183.165 30.4397C183.032 30.3901 182.882 30.3464 182.714 30.3086L182.16 30.1794C181.784 30.092 181.487 29.9635 181.267 29.7938C181.049 29.6242 180.94 29.3998 180.94 29.1206C180.94 28.8897 181.013 28.6881 181.159 28.5159C181.306 28.3437 181.504 28.2099 181.755 28.1147C182.005 28.0181 182.287 27.9698 182.601 27.9698C182.919 27.9698 183.199 28.0175 183.442 28.1127C183.686 28.208 183.878 28.3391 184.018 28.5061C184.159 28.6718 184.232 28.8623 184.238 29.0776H183.556Z" fill="black"/>
<path d="M187.126 30.7861V29.0267H187.813V32.0328H187.14V31.5122H187.104C187.023 31.6726 186.893 31.8064 186.714 31.9134C186.537 32.0191 186.317 32.0719 186.053 32.0719C185.827 32.0719 185.627 32.0295 185.453 31.9447C185.281 31.8586 185.145 31.7314 185.046 31.5631C184.948 31.3947 184.899 31.1866 184.899 30.9387V29.0267H185.584V30.8683C185.584 31.0731 185.65 31.2362 185.783 31.3576C185.916 31.4789 186.088 31.5396 186.3 31.5396C186.428 31.5396 186.556 31.5122 186.682 31.4574C186.811 31.4026 186.917 31.3197 187.001 31.2088C187.086 31.0979 187.128 30.957 187.126 30.7861Z" fill="black"/>
<path d="M188.539 32.0328V29.0267H189.201V29.5042H189.238C189.302 29.3424 189.415 29.2152 189.576 29.1226C189.74 29.0286 189.924 28.9817 190.13 28.9817C190.173 28.9817 190.223 28.983 190.281 28.9856C190.341 28.9882 190.387 28.9914 190.421 28.9954V29.5551C190.394 29.5486 190.345 29.5414 190.275 29.5336C190.204 29.5244 190.134 29.5199 190.064 29.5199C189.902 29.5199 189.758 29.5492 189.631 29.6079C189.506 29.6653 189.407 29.7456 189.334 29.8486C189.261 29.9504 189.224 30.0665 189.224 30.197V32.0328H188.539Z" fill="black"/>
<path d="M192.168 33.2227C191.889 33.2227 191.649 33.1913 191.447 33.1287C191.247 33.0661 191.084 32.9832 190.957 32.8802C190.831 32.7771 190.736 32.6642 190.673 32.5416L191.262 32.3341C191.303 32.3916 191.358 32.4522 191.427 32.5162C191.497 32.5814 191.591 32.6368 191.71 32.6825C191.831 32.7282 191.986 32.751 192.175 32.751C192.435 32.751 192.649 32.6969 192.818 32.5886C192.988 32.4816 193.072 32.3107 193.072 32.0758V31.4848H193.029C192.988 31.5487 192.928 31.6198 192.85 31.6981C192.774 31.7764 192.669 31.8442 192.535 31.9016C192.4 31.959 192.225 31.9877 192.01 31.9877C191.733 31.9877 191.482 31.9323 191.26 31.8214C191.038 31.7092 190.863 31.5441 190.733 31.3262C190.605 31.1071 190.541 30.8376 190.541 30.518C190.541 30.1983 190.604 29.9243 190.731 29.696C190.859 29.4677 191.034 29.2928 191.257 29.1715C191.48 29.0489 191.733 28.9875 192.015 28.9875C192.233 28.9875 192.409 29.0188 192.544 29.0815C192.678 29.1428 192.783 29.2146 192.857 29.2968C192.934 29.3789 192.992 29.4514 193.034 29.514H193.084V29.0267H193.755V32.0993C193.755 32.3576 193.684 32.5696 193.544 32.7353C193.404 32.901 193.214 33.0237 192.974 33.1033C192.736 33.1829 192.467 33.2227 192.168 33.2227ZM192.161 31.5024C192.358 31.5024 192.525 31.4632 192.66 31.385C192.798 31.3054 192.902 31.1919 192.972 31.0444C193.043 30.8957 193.079 30.7176 193.079 30.5101C193.079 30.3079 193.044 30.1298 192.974 29.9759C192.904 29.8219 192.801 29.7019 192.665 29.6158C192.529 29.5283 192.361 29.4846 192.161 29.4846C191.955 29.4846 191.784 29.5303 191.646 29.6216C191.509 29.7117 191.405 29.8343 191.335 29.9896C191.266 30.1448 191.232 30.3183 191.232 30.5101C191.232 30.7072 191.267 30.88 191.337 31.0288C191.408 31.1775 191.511 31.2936 191.649 31.3771C191.788 31.4606 191.958 31.5024 192.161 31.5024Z" fill="black"/>
<path d="M195.995 32.0934C195.648 32.0934 195.35 32.0301 195.099 31.9036C194.851 31.7757 194.658 31.5963 194.523 31.3654C194.388 31.1331 194.321 30.8611 194.321 30.5493C194.321 30.2414 194.388 29.97 194.523 29.7351C194.658 29.5003 194.848 29.317 195.09 29.1852C195.334 29.0534 195.62 28.9875 195.946 28.9875C196.145 28.9875 196.337 29.0156 196.523 29.0717C196.709 29.1278 196.877 29.2159 197.025 29.3359C197.173 29.4559 197.289 29.6118 197.375 29.8036C197.46 29.9941 197.503 30.2257 197.503 30.4984V30.7059H194.708V30.2675H196.832C196.832 30.1135 196.796 29.9772 196.722 29.8584C196.649 29.7384 196.546 29.6438 196.413 29.5747C196.282 29.5055 196.128 29.4709 195.951 29.4709C195.759 29.4709 195.591 29.5114 195.447 29.5923C195.305 29.6719 195.196 29.7762 195.118 29.9054C195.041 30.0333 195.003 30.1722 195.003 30.3223V30.6648C195.003 30.8657 195.045 31.0366 195.127 31.1775C195.211 31.3184 195.328 31.4261 195.477 31.5004C195.627 31.5735 195.801 31.61 196.001 31.61C196.131 31.61 196.249 31.5944 196.356 31.5631C196.463 31.5304 196.555 31.4822 196.633 31.4182C196.711 31.3543 196.771 31.2754 196.812 31.1814L197.46 31.2812C197.408 31.4443 197.315 31.5872 197.18 31.7098C197.047 31.8312 196.88 31.9258 196.679 31.9936C196.479 32.0602 196.251 32.0934 195.995 32.0934Z" fill="black"/>
<path d="M199.55 32.0934C199.22 32.0934 198.933 32.0288 198.687 31.8997C198.441 31.7705 198.251 31.5898 198.115 31.3576C197.979 31.1253 197.911 30.8539 197.911 30.5434C197.911 30.2316 197.979 29.9589 198.115 29.7254C198.251 29.4918 198.441 29.3105 198.687 29.1813C198.933 29.0521 199.22 28.9875 199.55 28.9875C199.88 28.9875 200.167 29.0521 200.413 29.1813C200.659 29.3105 200.85 29.4918 200.985 29.7254C201.121 29.9589 201.189 30.2316 201.189 30.5434C201.189 30.8539 201.121 31.1253 200.985 31.3576C200.85 31.5898 200.659 31.7705 200.413 31.8997C200.167 32.0288 199.88 32.0934 199.55 32.0934ZM199.552 31.6022C199.766 31.6022 199.943 31.5539 200.083 31.4574C200.224 31.3608 200.328 31.2323 200.395 31.0718C200.463 30.9113 200.498 30.7346 200.498 30.5415C200.498 30.3497 200.463 30.1735 200.395 30.013C200.328 29.8513 200.224 29.7214 200.083 29.6236C199.943 29.5257 199.766 29.4768 199.552 29.4768C199.337 29.4768 199.159 29.5257 199.017 29.6236C198.876 29.7214 198.772 29.8513 198.703 30.013C198.636 30.1735 198.602 30.3497 198.602 30.5415C198.602 30.7346 198.636 30.9113 198.703 31.0718C198.772 31.2323 198.876 31.3608 199.017 31.4574C199.159 31.5539 199.337 31.6022 199.552 31.6022Z" fill="black"/>
<path d="M202.444 30.2479V32.0328H201.76V29.0267H202.417V29.5159H202.46C202.541 29.3568 202.668 29.2289 202.84 29.1324C203.014 29.0358 203.233 28.9875 203.497 28.9875C203.737 28.9875 203.946 29.0306 204.127 29.1167C204.307 29.2015 204.446 29.3281 204.545 29.4964C204.645 29.6647 204.694 29.8728 204.694 30.1207V32.0328H204.01V30.1911C204.01 29.9732 203.943 29.803 203.811 29.6803C203.678 29.5564 203.496 29.4944 203.264 29.4944C203.105 29.4944 202.964 29.5238 202.84 29.5825C202.718 29.6412 202.621 29.7273 202.549 29.8408C202.479 29.953 202.444 30.0887 202.444 30.2479Z" fill="black"/>
<path d="M15.1673 0.0448074H10.8166V10.8581H0V21.3945C0.216867 21.3945 0.433734 21.3845 0.6506 21.3745C14.1597 19.7063 15.6745 7.62847 15.6745 0.0448074H15.1673Z" fill="#615EFC"/>
<path d="M16.9988 32.2112H21.3494V21.3979H32.1627V10.8615C31.9459 10.8615 31.729 10.8715 31.5121 10.8815C18.0063 12.553 16.4883 24.6308 16.4883 32.2145H16.9954L16.9988 32.2112Z" fill="#615EFC"/>
<path d="M21.3495 0.0448151H15.6743C15.6743 7.62848 14.1562 19.7063 0.650391 21.3778C11.2335 20.9641 21.3495 10.6413 21.3495 0.0448151Z" fill="#D6D2FF"/>
<path d="M10.8135 32.2112H16.4887C16.4887 24.6275 18.0068 12.5497 31.5126 10.8782C20.9295 11.2885 10.8135 21.6114 10.8135 32.2112Z" fill="#D6D2FF"/>
</svg>
